{
.appVersion = "1271";
DisplayStrings = (
A
);
classes = (
{
automatic = 1;
code = "A Aacute Abreve Acircumflex Adieresis Agrave Amacron Aogonek Aring Atilde AE B C Cacute Ccaron Ccedilla Cdotaccent D Eth Dcaron Dcroat E Eacute Ecaron Ecircumflex Edieresis Edotaccent Egrave Emacron Eogonek F G Gbreve Gcommaaccent Gdotaccent H Hbar I Iacute Icircumflex Idieresis Idotaccent Igrave Imacron Iogonek J K Kcommaaccent L Lacute Lcaron Lcommaaccent Lslash M N Nacute Ncaron Ncommaaccent Eng Ntilde O Oacute Ocircumflex Odieresis Ograve Ohungarumlaut Omacron Oslash Otilde OE P Thorn Q R Racute Rcaron Rcommaaccent S Sacute Scaron Scedilla Scommaaccent T Tbar Tcaron Tcedilla Tcommaaccent U Uacute Ucircumflex Udieresis Ugrave Uhungarumlaut Umacron Uogonek Uring V W Wacute Wcircumflex Wdieresis Wgrave X Y Yacute Ycircumflex Ydieresis Ygrave Z Zacute Zcaron Zdotaccent N.002 R.002 C.80 D.90 U.90 C.orig G.orig N.orig O.orig Q.orig S.orig W.rvrn K.start K.v K.v001 K.v002 A-cy Be-cy Ve-cy Ge-cy Gje-cy Gheupturn-cy De-cy Ie-cy Io-cy Zhe-cy Ze-cy Ii-cy Iishort-cy Ka-cy Kje-cy El-cy Em-cy En-cy O-cy Pe-cy Er-cy Es-cy Te-cy U-cy Ushort-cy Ef-cy Ha-cy Che-cy Tse-cy Sha-cy Shcha-cy Dzhe-cy Softsign-cy Hardsign-cy Yeru-cy Lje-cy Nje-cy Dze-cy E-cy Ereversed-cy I-cy Yi-cy Je-cy Tshe-cy Iu-cy Ia-cy Dje-cy Yat-cy Fita-cy Izhitsa-cy Ghestroke-cy Zhedescender-cy Kadescender-cy Endescender-cy Ustrait-cy Ustraitstroke-cy Hadescender-cy Chedescender-cy Shha-cy Palochka-cy Schwa-cy Imacron-cy Obarred-cy Umacron-cy Alpha Beta Gamma Delta Epsilon Zeta Eta Theta Iota Kappa Lambda Mu Nu Xi Omicron Pi Rho Sigma Tau Upsilon Phi Chi Psi Omega Iotadieresis Upsilondieresis";
name = Uppercase;
}
);
copyright = "Copyright 2019 The Russolo Project Authors (https://github.com/laerm0/Russolo)";
customParameters = (
{
name = vendorID;
value = Bits;
},
{
name = glyphOrder;
value = (
.notdef,
uni0000,
uni000D,
space
);
},
{
name = note;
value = ".orig glyphs are the 100% versions; the others are 90% of .orig";
},
{

glyphs = (
{
glyphname = .notdef;
lastChange = "2019-11-04 21:30:13 +0000";
layers = (
{
layerId = "EA94BB3F-1054-4F03-AAB6-69C3B81B3CC3";
paths = (
{
closed = 1;
nodes = (
"1100 -354 LINE",
"1100 1410 LINE",
"100 1410 LINE",
"100 -354 LINE"
);
},
{
closed = 1;
nodes = (
"212 1298 LINE",
"988 1298 LINE",
"988 -242 LINE",
"212 -242 LINE"
);
}
);
width = 1200;
},
{
layerId = "1A84AFAC-8532-492C-A52A-D2ACD869B7F8";
paths = (
{
closed = 1;
nodes = (
"1100 -354 LINE",
"1100 1410 LINE",
"100 1410 LINE",
"100 -354 LINE"
);
},
{
closed = 1;
nodes = (
"212 1298 LINE",
"988 1298 LINE",
"988 -242 LINE",
"212 -242 LINE"
);
}
);
width = 1200;
},
{
layerId = "16E03120-9D89-4B3A-B1E3-633A6E865927";
paths = (
{
closed = 1;
nodes = (
"1165 -369 LINE",
"1165 1425 LINE",
"35 1425 LINE",
"35 -369 LINE"
);
},
{
closed = 1;
nodes = (
"277 1283 LINE",
"923 1283 LINE",
"923 -227 LINE",
"277 -227 LINE"
);
}
);
width = 1200;
},
{
layerId = "D5C24015-3945-4844-A39C-2F638D3E2004";
paths = (
{
closed = 1;
nodes = (
"1165 -369 LINE",
"1165 1425 LINE",
"35 1425 LINE",
"35 -369 LINE"
);
},
{
closed = 1;
nodes = (
"277 1283 LINE",
"923 1283 LINE",
"923 -227 LINE",
"277 -227 LINE"
);
}
);
width = 1200;
},
{
layerId = "A518794E-5143-4302-A915-751D2A609FF0";
paths = (
{
closed = 1;
nodes = (
"1100 -354 LINE",
"1100 1410 LINE",
"100 1410 LINE",
"100 -354 LINE"
);
},
{
closed = 1;
nodes = (
"212 1298 LINE",
"988 1298 LINE",
"988 -242 LINE",
"212 -242 LINE"
);
}
);
width = 1200;
},
{
layerId = "1D873E37-AF27-4769-9F86-9F16E4B4DD36";
paths = (
{
closed = 1;
nodes = (
"1165 -369 LINE",
"1165 1425 LINE",
"35 1425 LINE",
"35 -369 LINE"
);
},
{
closed = 1;
nodes = (
"277 1283 LINE",
"923 1283 LINE",
"923 -227 LINE",
"277 -227 LINE"
);
}
);
width = 1200;
},
{
layerId = "092756DD-C6BD-4F67-9765-10D57923B42B";
paths = (
{
closed = 1;
nodes = (
"1100 -354 LINE",
"1100 1410 LINE",
"100 1410 LINE",
"100 -354 LINE"
);
},
{
closed = 1;
nodes = (
"212 1298 LINE",
"988 1298 LINE",
"988 -242 LINE",
"212 -242 LINE"
);
}
);
width = 1200;
}
);
note = .notdef;
unicode = 007F;
},
{
glyphname = A;
lastChange = "2019-11-04 22:00:22 +0000";
layers = (
{
anchors = (
{
name = bottom;
position = "{733, 0}";
},
{
name = ogonek;
position = "{1293, 20}";
},
{
name = top;
position = "{757, 1430}";
}
);
background = {
paths = (
{
closed = 1;
nodes = (
"101 36 LINE",
"101 0 LINE",
"551 0 LINE",
"551 36 LINE",
"485 36 LINE SMOOTH",
"383 36 OFFCURVE",
"341 54 OFFCURVE",
"341 98 CURVE SMOOTH",
"341 112 OFFCURVE",
"351 150 OFFCURVE",
"367 196 CURVE SMOOTH",
"465 468 LINE",
"953 468 LINE",
"1117 36 LINE",
"905 36 LINE",
"905 0 LINE",
"1529 0 LINE",
"1529 36 LINE",
"1347 36 LINE",
"805 1452 LINE",
"779 1452 LINE",
"327 200 LINE SMOOTH",
"277 56 OFFCURVE",
"257 36 OFFCURVE",
"169 36 CURVE SMOOTH"
);
},
{
closed = 1;
nodes = (
"477 502 LINE",
"701 1138 LINE",
"941 502 LINE"
);
}
);
};
layerId = "EA94BB3F-1054-4F03-AAB6-69C3B81B3CC3";
paths = (
{
closed = 1;
nodes = (
"189 0 LINE",
"673 1196 LINE",
"645 1197 LINE",
"1123 0 LINE",
"1361 0 LINE",
"757 1486 LINE",
"155 0 LINE"
);
},
{
closed = 1;
nodes = (
"947 466 LINE",
"933 502 LINE",
"382 502 LINE",
"367 466 LINE"
);
}
);
width = 1366;
},
{
anchors = (
{
name = bottom;
position = "{657, -80}";
},
{
name = ogonek;
position = "{1217, -60}";
},
{
name = top;
position = "{681, 1350}";
}
);
layerId = "16E03120-9D89-4B3A-B1E3-633A6E865927";
paths = (
{
closed = 1;
nodes = (
"179 0 LINE",
"654 1072 LINE",
"531 1012 LINE",
"983 0 LINE",
"1347 0 LINE",
"681 1500 LINE",
"20 0 LINE"
);
},
{
closed = 1;
nodes = (
"950 391 LINE",
"924 457 LINE",
"260 457 LINE",
"232 391 LINE"
);
}
);
width = 1367;
},
{
anchors = (
{
name = bottom;
position = "{625, 0}";
},
{
name = ogonek;
position = "{1125, 10}";
},
{
name = top;
position = "{648, 1430}";
}
);
background = {
paths = (
{
closed = 1;
nodes = (
"61 0 LINE",
"541 1186 LINE",
"618 1377 LINE",
"1167 0 LINE",
"1252 0 LINE",
"650 1482 LINE",
"50 0 LINE"
);
},
{
closed = 1;
nodes = (
"835 476 LINE",
"828 492 LINE",
"254 492 LINE",
"248 476 LINE"
);
}
);
};
layerId = "1A84AFAC-8532-492C-A52A-D2ACD869B7F8";
paths = (
{
closed = 1;
nodes = (
"71 0 LINE",
"634 1391 LINE",
"614 1386 LINE",
"1167 0 LINE",
"1252 0 LINE",
"650 1482 LINE",
"50 0 LINE"
);
},
{
closed = 1;
nodes = (
"1019 466 LINE",
"1008 492 LINE",
"254 492 LINE",
"244 466 LINE"
);
}
);
width = 1250;
},
{
anchors = (
{
name = bottom;
position = "{657, -80}";
},
{
name = ogonek;
position = "{1217, -60}";
},
{
name = top;
position = "{681, 1350}";
}
);
layerId = "D5C24015-3945-4844-A39C-2F638D3E2004";
paths = (
{
closed = 1;
nodes = (
"179 0 LINE",
"654 1072 LINE",
"531 1012 LINE",
"983 0 LINE",
"1347 0 LINE",
"681 1500 LINE",
"20 0 LINE"
);
},
{
closed = 1;
nodes = (
"950 391 LINE",
"924 457 LINE",
"260 457 LINE",
"232 391 LINE"
);
}
);
width = 1367;
},
{
anchors = (
{
name = bottom;
position = "{625, 0}";
},
{
name = ogonek;
position = "{1125, 10}";
},
{
name = top;
position = "{648, 1430}";
}
);
background = {
paths = (
{
closed = 1;
nodes = (
"61 0 LINE",
"541 1186 LINE",
"618 1377 LINE",
"1167 0 LINE",
"1252 0 LINE",
"650 1482 LINE",
"50 0 LINE"
);
},
{
closed = 1;
nodes = (
"835 476 LINE",
"828 492 LINE",
"254 492 LINE",
"248 476 LINE"
);
}
);
};
guideLines = (
{
angle = 67.9658;
position = "{301, 593}";
}
);
layerId = "A518794E-5143-4302-A915-751D2A609FF0";
paths = (
{
closed = 1;
nodes = (
"61 0 LINE",
"624 1391 LINE",
"614 1386 LINE",
"1167 0 LINE",
"1252 0 LINE",
"650 1482 LINE",
"50 0 LINE"
);
},
{
closed = 1;
nodes = (
"1019 466 LINE",
"1008 492 LINE",
"254 492 LINE",
"244 466 LINE"
);
}
);
width = 1250;
},
{
anchors = (
{
name = bottom;
position = "{657, -80}";
},
{
name = ogonek;
position = "{1217, -60}";
},
{
name = top;
position = "{681, 1350}";
}
);
layerId = "1D873E37-AF27-4769-9F86-9F16E4B4DD36";
paths = (
{
closed = 1;
nodes = (
"179 0 LINE",
"653 1072 LINE",
"531 1012 LINE",
"983 0 LINE",
"1347 0 LINE",
"681 1500 LINE",
"20 0 LINE"
);
},
{
closed = 1;
nodes = (
"950 381 LINE",
"924 457 LINE",
"260 457 LINE",
"232 381 LINE"
);
}
);
width = 1367;
},
{
anchors = (
{
name = bottom;
position = "{625, 0}";
},
{
name = ogonek;
position = "{1125, 10}";
},
{
name = top;
position = "{648, 1430}";
}
);
background = {
paths = (
{
closed = 1;
nodes = (
"61 0 LINE",
"541 1186 LINE",
"618 1377 LINE",
"1167 0 LINE",
"1252 0 LINE",
"650 1482 LINE",
"50 0 LINE"
);
},
{
closed = 1;
nodes = (
"835 476 LINE",
"828 492 LINE",
"254 492 LINE",
"248 476 LINE"
);
}
);
};
layerId = "092756DD-C6BD-4F67-9765-10D57923B42B";
paths = (
{
closed = 1;
nodes = (
"91 0 LINE",
"654 1391 LINE",
"614 1386 LINE",
"1167 0 LINE",
"1252 0 LINE",
"650 1482 LINE",
"50 0 LINE"
);
},
{
closed = 1;
nodes = (
"1019 446 LINE",
"1008 492 LINE",
"254 492 LINE",
"244 446 LINE"
);
}
);
width = 1250;
}
);
leftKerningGroup = A;
note = A;
rightKerningGroup = A;
unicode = 0041;
},
{
glyphname = Adieresis;
lastChange = "2019-11-04 21:30:13 +0000";
layers = (
{
background = {
paths = (
{
closed = 1;
nodes = (
"-6 34 LINE",
"-6 0 LINE",
"414 0 LINE",
"414 34 LINE",
"352 34 LINE SMOOTH",
"258 34 OFFCURVE",
"218 50 OFFCURVE",
"218 92 CURVE SMOOTH",
"218 104 OFFCURVE",
"228 140 OFFCURVE",
"242 182 CURVE SMOOTH",
"334 436 LINE",
"790 436 LINE",
"942 34 LINE",
"744 34 LINE",
"744 0 LINE",
"1326 0 LINE",
"1326 34 LINE",
"1156 34 LINE",
"652 1354 LINE",
"626 1354 LINE",
"206 186 LINE SMOOTH",
"158 52 OFFCURVE",
"140 34 OFFCURVE",
"58 34 CURVE SMOOTH"
);
},
{
closed = 1;
nodes = (
"346 468 LINE",
"554 1062 LINE",
"778 468 LINE"
);
},
{
closed = 1;
nodes = (
"772 1698 OFFCURVE",
"728 1656 OFFCURVE",
"728 1602 CURVE SMOOTH",
"728 1550 OFFCURVE",
"772 1506 OFFCURVE",
"824 1506 CURVE SMOOTH",
"876 1506 OFFCURVE",
"920 1550 OFFCURVE",
"920 1602 CURVE SMOOTH",
"920 1654 OFFCURVE",
"876 1698 OFFCURVE",
"826 1698 CURVE SMOOTH"
);
},
{
closed = 1;
nodes = (
"396 1698 OFFCURVE",
"352 1656 OFFCURVE",
"352 1602 CURVE SMOOTH",
"352 1550 OFFCURVE",
"396 1506 OFFCURVE",
"448 1506 CURVE SMOOTH",
"500 1506 OFFCURVE",
"544 1550 OFFCURVE",
"544 1602 CURVE SMOOTH",
"544 1654 OFFCURVE",
"500 1698 OFFCURVE",
"450 1698 CURVE SMOOTH"
);
}
);
};
components = (
{
name = A;
},
{
name = dieresiscomb;
transform = "{1, 0, 0, 1, 421, 516}";
}
);
layerId = "EA94BB3F-1054-4F03-AAB6-69C3B81B3CC3";
width = 1366;
},
{
components = (
{
name = A;
},
{
name = dieresiscomb;
transform = "{1, 0, 0, 1, 423, 516}";
}
);
layerId = "1A84AFAC-8532-492C-A52A-D2ACD869B7F8";
width = 1250;
},
{
components = (
{
name = A;
},
{
name = dieresiscomb;
transform = "{1, 0, 0, 1, 282, 431}";
}
);
layerId = "16E03120-9D89-4B3A-B1E3-633A6E865927";
width = 1367;
},
{
components = (
{
name = A;
},
{
name = dieresiscomb;
transform = "{1, 0, 0, 1, 282, 431}";
}
);
layerId = "D5C24015-3945-4844-A39C-2F638D3E2004";
width = 1367;
},
{
components = (
{
name = A;
},
{
name = dieresiscomb;
transform = "{1, 0, 0, 1, 423, 516}";
}
);
layerId = "A518794E-5143-4302-A915-751D2A609FF0";
width = 1250;
},
{
components = (
{
name = A;
},
{
name = dieresiscomb;
transform = "{1, 0, 0, 1, 282, 431}";
}
);
layerId = "1D873E37-AF27-4769-9F86-9F16E4B4DD36";
width = 1367;
},
{
components = (
{
name = A;
},
{
name = dieresiscomb;
transform = "{1, 0, 0, 1, 423, 516}";
}
);
layerId = "092756DD-C6BD-4F67-9765-10D57923B42B";
width = 1250;
}
);
leftKerningGroup = A;
note = Adieresis;
rightKerningGroup = A;
unicode = 00C4;
},
{
glyphname = Aring;
lastChange = "2019-11-04 21:30:13 +0000";
layers = (
{
background = {
paths = (
{
closed = 1;
nodes = (
"-6 34 LINE",
"-6 0 LINE",
"414 0 LINE",
"414 34 LINE",
"352 34 LINE SMOOTH",
"258 34 OFFCURVE",
"218 50 OFFCURVE",
"218 92 CURVE SMOOTH",
"218 104 OFFCURVE",
"228 140 OFFCURVE",
"242 182 CURVE SMOOTH",
"334 436 LINE",
"790 436 LINE",
"942 34 LINE",
"744 34 LINE",
"744 0 LINE",
"1326 0 LINE",
"1326 34 LINE",
"1156 34 LINE",
"652 1354 LINE",
"626 1354 LINE",
"206 186 LINE SMOOTH",
"158 52 OFFCURVE",
"140 34 OFFCURVE",
"58 34 CURVE SMOOTH"
);
},
{
closed = 1;
nodes = (
"346 468 LINE",
"554 1062 LINE",
"778 468 LINE"
);
},
{
closed = 1;
nodes = (
"538 1812 OFFCURVE",
"454 1730 OFFCURVE",
"454 1628 CURVE SMOOTH",
"454 1524 OFFCURVE",
"538 1440 OFFCURVE",
"640 1440 CURVE SMOOTH",
"742 1440 OFFCURVE",
"826 1524 OFFCURVE",
"826 1626 CURVE SMOOTH",
"826 1726 OFFCURVE",
"742 1812 OFFCURVE",
"642 1812 CURVE SMOOTH"
);
},
{
closed = 1;
nodes = (
"714 1762 OFFCURVE",
"776 1700 OFFCURVE",
"776 1626 CURVE SMOOTH",
"776 1552 OFFCURVE",
"714 1490 OFFCURVE",
"640 1490 CURVE SMOOTH",
"564 1490 OFFCURVE",
"504 1552 OFFCURVE",
"504 1628 CURVE SMOOTH",
"504 1702 OFFCURVE",
"566 1762 OFFCURVE",
"642 1762 CURVE SMOOTH"
);
}
);
};
components = (
{
name = A;
},
{
name = ringcomb;
transform = "{1, 0, 0, 1, 489, 516}";
}
);
layerId = "EA94BB3F-1054-4F03-AAB6-69C3B81B3CC3";
width = 1366;
},
{
components = (
{
name = A;
},
{
name = ringcomb;
transform = "{1, 0, 0, 1, 414, 516}";
}
);
layerId = "1A84AFAC-8532-492C-A52A-D2ACD869B7F8";
width = 1250;
},
{
components = (
{
name = A;
},
{
name = ringcomb;
transform = "{1, 0, 0, 1, 397, 431}";
}
);
layerId = "16E03120-9D89-4B3A-B1E3-633A6E865927";
width = 1367;
},
{
components = (
{
name = A;
},
{
name = ringcomb;
transform = "{1, 0, 0, 1, 397, 431}";
}
);
layerId = "D5C24015-3945-4844-A39C-2F638D3E2004";
width = 1367;
},
{
components = (
{
name = A;
},
{
name = ringcomb;
transform = "{1, 0, 0, 1, 414, 516}";
}
);
layerId = "A518794E-5143-4302-A915-751D2A609FF0";
width = 1250;
},
{
components = (
{
name = A;
},
{
name = ringcomb;
transform = "{1, 0, 0, 1, 397, 431}";
}
);
layerId = "1D873E37-AF27-4769-9F86-9F16E4B4DD36";
width = 1367;
},
{
components = (
{
name = A;
},
{
name = ringcomb;
transform = "{1, 0, 0, 1, 414, 516}";
}
);
layerId = "092756DD-C6BD-4F67-9765-10D57923B42B";
width = 1250;
}
);
leftKerningGroup = A;
note = Aring;
rightKerningGroup = A;
unicode = 00C5;
},
{
glyphname = AE;
lastChange = "2019-11-04 21:30:13 +0000";
layers = (
{
anchors = (
{
name = bottom;
position = "{864, 0}";
},
{
name = top;
position = "{864, 1430}";
}
);
background = {
paths = (
{
closed = 1;
nodes = (
"-54 0 LINE",
"50 2 OFFCURVE",
"128 4 OFFCURVE",
"182 4 CURVE SMOOTH",
"232 4 OFFCURVE",
"312 2 OFFCURVE",
"414 0 CURVE",
"414 34 LINE",
"352 34 LINE SMOOTH",
"266 34 OFFCURVE",
"228 48 OFFCURVE",
"228 80 CURVE SMOOTH",
"228 104 OFFCURVE",
"252 162 OFFCURVE",
"288 230 CURVE SMOOTH",
"398 436 LINE",
"846 436 LINE",
"846 34 LINE",
"628 34 LINE",
"628 0 LINE",
"1712 0 LINE",
"1712 394 LINE",
"1678 394 LINE",
"1678 374 LINE SMOOTH",
"1678 274 OFFCURVE",
"1654 184 OFFCURVE",
"1614 142 CURVE SMOOTH",
"1542 62 OFFCURVE",
"1436 34 OFFCURVE",
"1214 34 CURVE SMOOTH",
"1040 34 LINE",
"1040 660 LINE",
"1106 660 LINE SMOOTH",
"1240 660 OFFCURVE",
"1296 644 OFFCURVE",
"1322 598 CURVE",
"1338 572 OFFCURVE",
"1350 510 OFFCURVE",
"1350 456 CURVE SMOOTH",
"1350 432 LINE",
"1382 432 LINE",
"1382 936 LINE",
"1350 936 LINE",
"1350 912 LINE SMOOTH",
"1350 880 OFFCURVE",
"1340 814 OFFCURVE",
"1332 792 CURVE SMOOTH",
"1306 720 OFFCURVE",
"1246 694 OFFCURVE",
"1108 694 CURVE SMOOTH",
"1040 694 LINE",
"1040 1300 LINE",
"1220 1300 LINE SMOOTH",
"1376 1300 OFFCURVE",
"1474 1276 OFFCURVE",
"1526 1222 CURVE",
"1564 1186 OFFCURVE",
"1602 1088 OFFCURVE",
"1602 1026 CURVE SMOOTH",
"1602 1008 LINE",
"1636 1008 LINE",
"1604 1334 LINE",
"612 1334 LINE",
"612 1300 LINE",
"822 1300 LINE",
"240 210 LINE SMOOTH",
"220 172 OFFCURVE",
"184 118 OFFCURVE",
"160 90 CURVE SMOOTH",
"128 52 OFFCURVE",
"80 34 OFFCURVE",
"12 34 CURVE SMOOTH",
"-54 34 LINE"
);
},
{
closed = 1;
nodes = (
"846 1276 LINE",
"846 470 LINE",
"414 470 LINE"
);
}
);
};
layerId = "EA94BB3F-1054-4F03-AAB6-69C3B81B3CC3";
paths = (
{
closed = 1;
nodes = (
"10 0 LINE",
"870 1430 LINE",
"834 1430 LINE",
"-26 0 LINE"
);
},
{
closed = 1;
nodes = (
"958 466 LINE",
"958 502 LINE",
"284 502 LINE",
"284 466 LINE"
);
},
{
closed = 1;
nodes = (
"1684 0 LINE",
"1684 36 LINE",
"947 36 LINE",
"1040 13 LINE",
"1040 723 LINE",
"947 710 LINE",
"1684 710 LINE",
"1684 746 LINE",
"947 746 LINE",
"1040 733 LINE",
"1040 1417 LINE",
"947 1394 LINE",
"1684 1394 LINE",
"1684 1430 LINE",
"834 1430 LINE",
"834 0 LINE"
);
}
);
width = 1780;
},
{
anchors = (
{
name = bottom;
position = "{864, -20}";
},
{
name = top;
position = "{864, 1450}";
}
);
layerId = "1A84AFAC-8532-492C-A52A-D2ACD869B7F8";
paths = (
{
closed = 1;
nodes = (
"115 -10 LINE",
"963 1440 LINE",
"897 1440 LINE",
"49 -10 LINE"
);
},
{
closed = 1;
nodes = (
"987 459 LINE",
"987 486 LINE",
"345 486 LINE",
"345 459 LINE"
);
},
{
closed = 1;
nodes = (
"1564 -10 LINE",
"1564 17 LINE",
"985 17 LINE",
"1014 0 LINE",
"1014 745 LINE",
"986 715 LINE",
"1564 715 LINE",
"1564 742 LINE",
"986 742 LINE",
"1014 722 LINE",
"1014 1440 LINE",
"985 1413 LINE",
"1564 1413 LINE",
"1564 1440 LINE",
"954 1440 LINE",
"954 -10 LINE"
);
}
);
width = 1726;
},
{
anchors = (
{
name = bottom;
position = "{863, 0}";
},
{
name = top;
position = "{863, 1430}";
}
);
layerId = "16E03120-9D89-4B3A-B1E3-633A6E865927";
paths = (
{
closed = 1;
nodes = (
"47 -15 LINE",
"925 1445 LINE",
"769 1445 LINE",
"-109 -15 LINE"
);
},
{
closed = 1;
nodes = (
"1023 451 LINE",
"1023 517 LINE",
"269 517 LINE",
"269 451 LINE"
);
},
{
closed = 1;
nodes = (
"1749 -15 LINE",
"1749 51 LINE",
"812 51 LINE",
"1105 -1 LINE",
"1105 748 LINE",
"924 695 LINE",
"1749 695 LINE",
"1749 761 LINE",
"924 761 LINE",
"1105 708 LINE",
"1105 1431 LINE",
"812 1379 LINE",
"1749 1379 LINE",
"1749 1445 LINE",
"769 1445 LINE",
"769 -15 LINE"
);
}
);
width = 1780;
},
{
anchors = (
{
name = bottom;
position = "{863, 0}";
},
{
name = top;
position = "{863, 1430}";
}
);
layerId = "D5C24015-3945-4844-A39C-2F638D3E2004";
paths = (
{
closed = 1;
nodes = (
"47 -15 LINE",
"925 1445 LINE",
"769 1445 LINE",
"-109 -15 LINE"
);
},
{
closed = 1;
nodes = (
"1023 451 LINE",
"1023 517 LINE",
"269 517 LINE",
"269 451 LINE"
);
},
{
closed = 1;
nodes = (
"1749 -15 LINE",
"1749 51 LINE",
"812 51 LINE",
"1105 -1 LINE",
"1105 748 LINE",
"924 695 LINE",
"1749 695 LINE",
"1749 761 LINE",
"924 761 LINE",
"1105 708 LINE",
"1105 1431 LINE",
"812 1379 LINE",
"1749 1379 LINE",
"1749 1445 LINE",
"769 1445 LINE",
"769 -15 LINE"
);
}
);
width = 1780;
},
{
anchors = (
{
name = bottom;
position = "{864, -20}";
},
{
name = top;
position = "{864, 1450}";
}
);
layerId = "A518794E-5143-4302-A915-751D2A609FF0";
paths = (
{
closed = 1;
nodes = (
"115 -10 LINE",
"963 1440 LINE",
"897 1440 LINE",
"49 -10 LINE"
);
},
{
closed = 1;
nodes = (
"987 459 LINE",
"987 486 LINE",
"345 486 LINE",
"345 459 LINE"
);
},
{
closed = 1;
nodes = (
"1564 -10 LINE",
"1564 17 LINE",
"985 17 LINE",
"1014 0 LINE",
"1014 745 LINE",
"986 715 LINE",
"1564 715 LINE",
"1564 742 LINE",
"986 742 LINE",
"1014 722 LINE",
"1014 1440 LINE",
"985 1413 LINE",
"1564 1413 LINE",
"1564 1440 LINE",
"954 1440 LINE",
"954 -10 LINE"
);
}
);
width = 1726;
},
{
anchors = (
{
name = bottom;
position = "{863, 0}";
},
{
name = top;
position = "{863, 1430}";
}
);
layerId = "1D873E37-AF27-4769-9F86-9F16E4B4DD36";
paths = (
{
closed = 1;
nodes = (
"47 -15 LINE",
"925 1445 LINE",
"769 1445 LINE",
"-109 -15 LINE"
);
},
{
closed = 1;
nodes = (
"1023 451 LINE",
"1023 517 LINE",
"269 517 LINE",
"269 451 LINE"
);
},
{
closed = 1;
nodes = (
"1749 -15 LINE",
"1749 51 LINE",
"812 51 LINE",
"1105 -1 LINE",
"1105 748 LINE",
"924 695 LINE",
"1749 695 LINE",
"1749 761 LINE",
"924 761 LINE",
"1105 708 LINE",
"1105 1431 LINE",
"812 1379 LINE",
"1749 1379 LINE",
"1749 1445 LINE",
"769 1445 LINE",
"769 -15 LINE"
);
}
);
width = 1780;
},
{
anchors = (
{
name = bottom;
position = "{864, -20}";
},
{
name = top;
position = "{864, 1450}";
}
);
layerId = "092756DD-C6BD-4F67-9765-10D57923B42B";
paths = (
{
closed = 1;
nodes = (
"115 -10 LINE",
"963 1440 LINE",
"897 1440 LINE",
"49 -10 LINE"
);
},
{
closed = 1;
nodes = (
"987 459 LINE",
"987 486 LINE",
"345 486 LINE",
"345 459 LINE"
);
},
{
closed = 1;
nodes = (
"1564 -10 LINE",
"1564 17 LINE",
"985 17 LINE",
"1014 0 LINE",
"1014 745 LINE",
"986 715 LINE",
"1564 715 LINE",
"1564 742 LINE",
"986 742 LINE",
"1014 722 LINE",
"1014 1440 LINE",
"985 1413 LINE",
"1564 1413 LINE",
"1564 1440 LINE",
"954 1440 LINE",
"954 -10 LINE"
);
}
);
width = 1726;
}
);
leftKerningGroup = A;
note = AE;
rightKerningGroup = E;
unicode = 00C6;
},
{
glyphname = B;
lastChange = "2019-11-04 21:30:13 +0000";
layers = (
{
anchors = (
{
name = bottom;
position = "{593, 0}";
},
{
name = top;
position = "{593, 1430}";
}
);
background = {
paths = (
{
closed = 1;
nodes = (
"26 1430 LINE",
"26 1394 LINE",
"234 1394 LINE",
"234 36 LINE",
"26 36 LINE",
"26 0 LINE",
"654 0 LINE SMOOTH",
"900 0 OFFCURVE",
"948 10 OFFCURVE",
"1054 82 CURVE SMOOTH",
"1158 154 OFFCURVE",
"1218 266 OFFCURVE",
"1218 388 CURVE SMOOTH",
"1218 534 OFFCURVE",
"1140 650 OFFCURVE",
"996 708 CURVE SMOOTH",
"940 732 OFFCURVE",
"894 742 OFFCURVE",
"784 758 CURVE",
"894 766 OFFCURVE",
"944 776 OFFCURVE",
"1002 804 CURVE SMOOTH",
"1116 858 OFFCURVE",
"1184 962 OFFCURVE",
"1184 1084 CURVE SMOOTH",
"1184 1250 OFFCURVE",
"1072 1366 OFFCURVE",
"876 1408 CURVE SMOOTH",
"786 1428 OFFCURVE",
"742 1430 OFFCURVE",
"540 1430 CURVE SMOOTH"
);
},
{
closed = 1;
nodes = (
"442 1394 LINE",
"486 1394 LINE SMOOTH",
"676 1394 OFFCURVE",
"752 1378 OFFCURVE",
"836 1320 CURVE SMOOTH",
"924 1262 OFFCURVE",
"972 1172 OFFCURVE",
"972 1062 CURVE SMOOTH",
"972 964 OFFCURVE",
"938 886 OFFCURVE",
"876 838 CURVE SMOOTH",
"812 788 OFFCURVE",
"732 776 OFFCURVE",
"480 776 CURVE SMOOTH",
"442 776 LINE"
);
},
{
closed = 1;
nodes = (
"442 746 LINE",
"478 746 LINE SMOOTH",
"604 746 OFFCURVE",
"718 732 OFFCURVE",
"774 710 CURVE SMOOTH",
"918 652 OFFCURVE",
"986 550 OFFCURVE",
"986 396 CURVE SMOOTH",
"986 272 OFFCURVE",
"934 156 OFFCURVE",
"850 98 CURVE SMOOTH",
"784 52 OFFCURVE",
"698 36 OFFCURVE",
"502 36 CURVE SMOOTH",
"442 36 LINE"
);
}
);
};
layerId = "EA94BB3F-1054-4F03-AAB6-69C3B81B3CC3";
paths = (
{
closed = 1;
nodes = (
"506 0 LINE SMOOTH",
"850 0 OFFCURVE",
"1072 80 OFFCURVE",
"1072 406 CURVE SMOOTH",
"1072 670 OFFCURVE",
"926 732 OFFCURVE",
"758 756 CURVE",
"758 760 LINE",
"896 798 OFFCURVE",
"1010 856 OFFCURVE",
"1010 1054 CURVE SMOOTH",
"1010 1312 OFFCURVE",
"816 1430 OFFCURVE",
"506 1430 CURVE SMOOTH",
"114 1430 LINE",
"114 0 LINE"
);
},
{
closed = 1;
nodes = (
"320 748 LINE",
"227 740 LINE",
"556 740 LINE SMOOTH",
"770 740 OFFCURVE",
"854 570 OFFCURVE",
"854 406 CURVE SMOOTH",
"854 208 OFFCURVE",
"730 36 OFFCURVE",
"506 36 CURVE SMOOTH",
"227 36 LINE",
"320 13 LINE"
);
},
{
closed = 1;
nodes = (
"320 1417 LINE",
"227 1394 LINE",
"506 1394 LINE SMOOTH",
"762 1394 OFFCURVE",
"792 1154 OFFCURVE",
"792 1034 CURVE SMOOTH",
"792 888 OFFCURVE",
"748 776 OFFCURVE",
"506 776 CURVE SMOOTH",
"227 776 LINE",
"320 767 LINE"
);
}
);
width = 1196;
},
{
anchors = (
{
name = bottom;
position = "{424, 0}";
},
{
name = top;
position = "{424, 1430}";
}
);
layerId = "1A84AFAC-8532-492C-A52A-D2ACD869B7F8";
paths = (
{
closed = 1;
nodes = (
"457 0 LINE SMOOTH",
"727 0 OFFCURVE",
"903 151 OFFCURVE",
"903 386 CURVE SMOOTH",
"903 586 OFFCURVE",
"775 747 OFFCURVE",
"595 762 CURVE",
"596 750 LINE",
"743 782 OFFCURVE",
"861 899 OFFCURVE",
"861 1074 CURVE SMOOTH",
"861 1275 OFFCURVE",
"705 1430 OFFCURVE",
"477 1430 CURVE SMOOTH",
"75 1430 LINE",
"75 0 LINE"
);
},
{
closed = 1;
nodes = (
"135 755 LINE",
"90 747 LINE",
"487 747 LINE SMOOTH",
"689 747 OFFCURVE",
"835 630 OFFCURVE",
"835 397 CURVE SMOOTH",
"835 184 OFFCURVE",
"713 26 OFFCURVE",
"417 26 CURVE SMOOTH",
"116 26 LINE",
"135 10 LINE"
);
},
{
closed = 1;
nodes = (
"135 1420 LINE",
"106 1404 LINE",
"457 1404 LINE SMOOTH",
"717 1404 OFFCURVE",
"795 1238 OFFCURVE",
"795 1069 CURVE SMOOTH",
"795 837 OFFCURVE",
"648 768 OFFCURVE",
"477 768 CURVE SMOOTH",
"90 768 LINE",
"135 761 LINE"
);
}
);
width = 948;
},
{
anchors = (
{
name = bottom;
position = "{642, 0}";
},
{
name = top;
position = "{642, 1430}";
}
);
layerId = "16E03120-9D89-4B3A-B1E3-633A6E865927";
paths = (
{
closed = 1;
nodes = (
"555 0 LINE SMOOTH",
"988 0 OFFCURVE",
"1186 121 OFFCURVE",
"1186 415 CURVE SMOOTH",
"1186 618 OFFCURVE",
"1092 725 OFFCURVE",
"872 769 CURVE",
"872 767 LINE",
"1054 827 OFFCURVE",
"1124 912 OFFCURVE",
"1124 1059 CURVE SMOOTH",
"1124 1315 OFFCURVE",
"913 1444 OFFCURVE",
"555 1444 CURVE SMOOTH",
"98 1444 LINE",
"98 0 LINE"
);
},
{
closed = 1;
nodes = (
"434 757 LINE",
"322 732 LINE",
"605 732 LINE SMOOTH",
"765 732 OFFCURVE",
"838 583 OFFCURVE",
"838 415 CURVE SMOOTH",
"838 204 OFFCURVE",
"722 66 OFFCURVE",
"555 66 CURVE SMOOTH",
"141 66 LINE",
"434 14 LINE"
);
},
{
closed = 1;
nodes = (
"434 1420 LINE",
"141 1378 LINE",
"555 1378 LINE SMOOTH",
"748 1378 OFFCURVE",
"776 1166 OFFCURVE",
"776 1039 CURVE SMOOTH",
"776 862 OFFCURVE",
"721 798 OFFCURVE",
"555 798 CURVE SMOOTH",
"360 798 LINE",
"434 773 LINE"
);
}
);
width = 1326;
},
{
anchors = (
{
name = bottom;
position = "{642, 0}";
},
{
name = top;
position = "{642, 1430}";
}
);
layerId = "D5C24015-3945-4844-A39C-2F638D3E2004";
paths = (
{
closed = 1;
nodes = (
"555 0 LINE SMOOTH",
"988 0 OFFCURVE",
"1186 121 OFFCURVE",
"1186 415 CURVE SMOOTH",
"1186 618 OFFCURVE",
"1092 725 OFFCURVE",
"872 769 CURVE",
"872 767 LINE",
"1054 827 OFFCURVE",
"1124 912 OFFCURVE",
"1124 1059 CURVE SMOOTH",
"1124 1315 OFFCURVE",
"913 1444 OFFCURVE",
"555 1444 CURVE SMOOTH",
"98 1444 LINE",
"98 0 LINE"
);
},
{
closed = 1;
nodes = (
"434 757 LINE",
"322 732 LINE",
"605 732 LINE SMOOTH",
"765 732 OFFCURVE",
"838 583 OFFCURVE",
"838 415 CURVE SMOOTH",
"838 204 OFFCURVE",
"722 66 OFFCURVE",
"555 66 CURVE SMOOTH",
"141 66 LINE",
"434 14 LINE"
);
},
{
closed = 1;
nodes = (
"434 1420 LINE",
"141 1378 LINE",
"555 1378 LINE SMOOTH",
"748 1378 OFFCURVE",
"776 1166 OFFCURVE",
"776 1039 CURVE SMOOTH",
"776 862 OFFCURVE",
"721 798 OFFCURVE",
"555 798 CURVE SMOOTH",
"360 798 LINE",
"434 773 LINE"
);
}
);
width = 1326;
},
{
anchors = (
{
name = bottom;
position = "{424, 0}";
},
{
name = top;
position = "{424, 1430}";
}
);
layerId = "A518794E-5143-4302-A915-751D2A609FF0";
paths = (
{
closed = 1;
nodes = (
"457 0 LINE SMOOTH",
"727 0 OFFCURVE",
"903 151 OFFCURVE",
"903 386 CURVE SMOOTH",
"903 586 OFFCURVE",
"775 747 OFFCURVE",
"595 762 CURVE",
"596 750 LINE",
"743 782 OFFCURVE",
"861 899 OFFCURVE",
"861 1074 CURVE SMOOTH",
"861 1275 OFFCURVE",
"705 1430 OFFCURVE",
"477 1430 CURVE SMOOTH",
"75 1430 LINE",
"75 0 LINE"
);
},
{
closed = 1;
nodes = (
"135 755 LINE",
"90 747 LINE",
"487 747 LINE SMOOTH",
"689 747 OFFCURVE",
"835 630 OFFCURVE",
"835 397 CURVE SMOOTH",
"835 184 OFFCURVE",
"713 26 OFFCURVE",
"417 26 CURVE SMOOTH",
"116 26 LINE",
"135 10 LINE"
);
},
{
closed = 1;
nodes = (
"135 1420 LINE",
"106 1404 LINE",
"457 1404 LINE SMOOTH",
"717 1404 OFFCURVE",
"795 1238 OFFCURVE",
"795 1069 CURVE SMOOTH",
"795 837 OFFCURVE",
"648 768 OFFCURVE",
"477 768 CURVE SMOOTH",
"90 768 LINE",
"135 761 LINE"
);
}
);
width = 948;
},
{
anchors = (
{
name = bottom;
position = "{642, 0}";
},
{
name = top;
position = "{642, 1430}";
}
);
layerId = "1D873E37-AF27-4769-9F86-9F16E4B4DD36";
paths = (
{
closed = 1;
nodes = (
"555 0 LINE SMOOTH",
"988 0 OFFCURVE",
"1186 121 OFFCURVE",
"1186 415 CURVE SMOOTH",
"1186 618 OFFCURVE",
"1092 725 OFFCURVE",
"872 769 CURVE",
"872 767 LINE",
"1054 827 OFFCURVE",
"1124 912 OFFCURVE",
"1124 1059 CURVE SMOOTH",
"1124 1315 OFFCURVE",
"913 1444 OFFCURVE",
"555 1444 CURVE SMOOTH",
"98 1444 LINE",
"98 0 LINE"
);
},
{
closed = 1;
nodes = (
"434 757 LINE",
"322 732 LINE",
"605 732 LINE SMOOTH",
"765 732 OFFCURVE",
"838 583 OFFCURVE",
"838 415 CURVE SMOOTH",
"838 204 OFFCURVE",
"722 66 OFFCURVE",
"555 66 CURVE SMOOTH",
"141 66 LINE",
"434 14 LINE"
);
},
{
closed = 1;
nodes = (
"434 1420 LINE",
"141 1378 LINE",
"555 1378 LINE SMOOTH",
"748 1378 OFFCURVE",
"776 1166 OFFCURVE",
"776 1039 CURVE SMOOTH",
"776 862 OFFCURVE",
"721 798 OFFCURVE",
"555 798 CURVE SMOOTH",
"360 798 LINE",
"434 773 LINE"
);
}
);
width = 1326;
},
{
anchors = (
{
name = bottom;
position = "{424, 0}";
},
{
name = top;
position = "{424, 1430}";
}
);
layerId = "092756DD-C6BD-4F67-9765-10D57923B42B";
paths = (
{
closed = 1;
nodes = (
"457 0 LINE SMOOTH",
"727 0 OFFCURVE",
"903 151 OFFCURVE",
"903 386 CURVE SMOOTH",
"903 586 OFFCURVE",
"775 747 OFFCURVE",
"595 762 CURVE",
"596 750 LINE",
"743 782 OFFCURVE",
"861 899 OFFCURVE",
"861 1074 CURVE SMOOTH",
"861 1275 OFFCURVE",
"705 1430 OFFCURVE",
"477 1430 CURVE SMOOTH",
"75 1430 LINE",
"75 0 LINE"
);
},
{
closed = 1;
nodes = (
"135 755 LINE",
"90 747 LINE",
"487 747 LINE SMOOTH",
"689 747 OFFCURVE",
"835 630 OFFCURVE",
"835 397 CURVE SMOOTH",
"835 184 OFFCURVE",
"713 26 OFFCURVE",
"417 26 CURVE SMOOTH",
"116 26 LINE",
"135 10 LINE"
);
},
{
closed = 1;
nodes = (
"135 1420 LINE",
"106 1404 LINE",
"457 1404 LINE SMOOTH",
"717 1404 OFFCURVE",
"795 1238 OFFCURVE",
"795 1069 CURVE SMOOTH",
"795 837 OFFCURVE",
"648 768 OFFCURVE",
"477 768 CURVE SMOOTH",
"90 768 LINE",
"135 761 LINE"
);
}
);
width = 948;
}
);
leftKerningGroup = H;
note = B;
rightKerningGroup = B;
unicode = 0042;
},
{
glyphname = C;
lastChange = "2019-11-04 21:30:13 +0000";
layers = (
{
anchors = (
{
name = bottom;
position = "{754, 0}";
},
{
name = top;
position = "{758, 1430}";
}
);
background = {
paths = (
{
closed = 1;
nodes = (
"938 -26 OFFCURVE",
"1114 42 OFFCURVE",
"1244 182 CURVE SMOOTH",
"1282 224 OFFCURVE",
"1316 268 OFFCURVE",
"1344 318 CURVE",
"1164 318 LINE",
"1084 122 OFFCURVE",
"940 4 OFFCURVE",
"758 4 CURVE SMOOTH",
"472 4 OFFCURVE",
"282 288 OFFCURVE",
"282 712 CURVE SMOOTH",
"282 1142 OFFCURVE",
"472 1430 OFFCURVE",
"758 1430 CURVE SMOOTH",
"938 1430 OFFCURVE",
"1082 1314 OFFCURVE",
"1160 1118 CURVE",
"1338 1118 LINE",
"1312 1166 OFFCURVE",
"1280 1208 OFFCURVE",
"1244 1244 CURVE SMOOTH",
"1120 1374 OFFCURVE",
"930 1460 OFFCURVE",
"758 1460 CURVE SMOOTH",
"584 1460 OFFCURVE",
"394 1370 OFFCURVE",
"272 1244 CURVE SMOOTH",
"150 1118 OFFCURVE",
"70 930 OFFCURVE",
"70 712 CURVE SMOOTH",
"70 508 OFFCURVE",
"140 320 OFFCURVE",
"272 182 CURVE SMOOTH",
"402 44 OFFCURVE",
"576 -26 OFFCURVE",
"758 -26 CURVE SMOOTH"
);
}
);
};
layerId = "EA94BB3F-1054-4F03-AAB6-69C3B81B3CC3";
paths = (
{
closed = 1;
nodes = (
"1008 -26 OFFCURVE",
"1224 106 OFFCURVE",
"1344 318 CURVE",
"1164 318 LINE",
"1083 120 OFFCURVE",
"939 4 OFFCURVE",
"757 4 CURVE SMOOTH",
"472 4 OFFCURVE",
"282 288 OFFCURVE",
"282 715 CURVE SMOOTH",
"282 1141 OFFCURVE",
"472 1430 OFFCURVE",
"758 1430 CURVE SMOOTH",
"938 1430 OFFCURVE",
"1082 1314 OFFCURVE",
"1160 1118 CURVE",
"1338 1118 LINE",
"1233 1312 OFFCURVE",
"987 1460 OFFCURVE",
"756 1460 CURVE SMOOTH",
"375 1460 OFFCURVE",
"70 1117 OFFCURVE",
"70 718 CURVE SMOOTH",
"70 300 OFFCURVE",
"356 -26 OFFCURVE",
"763 -26 CURVE SMOOTH"
);
}
);
width = 1414;
},
{
anchors = (
{
name = bottom;
position = "{707, 0}";
},
{
name = top;
position = "{707, 1430}";
}
);
layerId = "1A84AFAC-8532-492C-A52A-D2ACD869B7F8";
paths = (
{
closed = 1;
nodes = (
"1024 -6 OFFCURVE",
"1180 98 OFFCURVE",
"1298 308 CURVE",
"1238 308 LINE",
"1121 90 OFFCURVE",
"955 24 OFFCURVE",
"789 24 CURVE SMOOTH",
"440 24 OFFCURVE",
"204 315 OFFCURVE",
"204 718 CURVE SMOOTH",
"204 1131 OFFCURVE",
"445 1410 OFFCURVE",
"782 1410 CURVE SMOOTH",
"947 1410 OFFCURVE",
"1133 1343 OFFCURVE",
"1240 1128 CURVE",
"1295 1128 LINE",
"1189 1350 OFFCURVE",
"1007 1440 OFFCURVE",
"784 1440 CURVE SMOOTH",
"391 1440 OFFCURVE",
"128 1154 OFFCURVE",
"128 715 CURVE SMOOTH",
"128 254 OFFCURVE",
"401 -6 OFFCURVE",
"783 -6 CURVE SMOOTH"
);
}
);
width = 1414;
},
{
anchors = (
{
name = bottom;
position = "{789, 0}";
},
{
name = top;
position = "{793, 1430}";
}
);
layerId = "16E03120-9D89-4B3A-B1E3-633A6E865927";
paths = (
{
closed = 1;
nodes = (
"1081 -41 OFFCURVE",
"1333 109 OFFCURVE",
"1448 333 CURVE",
"1143 343 LINE",
"1059 134 OFFCURVE",
"940 29 OFFCURVE",
"792 29 CURVE SMOOTH",
"551 29 OFFCURVE",
"382 309 OFFCURVE",
"382 715 CURVE SMOOTH",
"382 1126 OFFCURVE",
"554 1405 OFFCURVE",
"793 1405 CURVE SMOOTH",
"940 1405 OFFCURVE",
"1058 1300 OFFCURVE",
"1138 1093 CURVE",
"1441 1103 LINE",
"1355 1293 OFFCURVE",
"1080 1475 OFFCURVE",
"791 1475 CURVE SMOOTH",
"395 1475 OFFCURVE",
"40 1155 OFFCURVE",
"40 718 CURVE SMOOTH",
"40 302 OFFCURVE",
"371 -41 OFFCURVE",
"798 -41 CURVE SMOOTH"
);
}
);
width = 1488;
},
{
anchors = (
{
name = bottom;
position = "{789, 0}";
},
{
name = top;
position = "{793, 1430}";
}
);
layerId = "D5C24015-3945-4844-A39C-2F638D3E2004";
paths = (
{
closed = 1;
nodes = (
"1081 -41 OFFCURVE",
"1333 109 OFFCURVE",
"1448 333 CURVE",
"1143 343 LINE",
"1059 134 OFFCURVE",
"940 29 OFFCURVE",
"792 29 CURVE SMOOTH",
"551 29 OFFCURVE",
"382 309 OFFCURVE",
"382 715 CURVE SMOOTH",
"382 1126 OFFCURVE",
"554 1405 OFFCURVE",
"793 1405 CURVE SMOOTH",
"940 1405 OFFCURVE",
"1058 1300 OFFCURVE",
"1138 1093 CURVE",
"1441 1103 LINE",
"1355 1293 OFFCURVE",
"1080 1475 OFFCURVE",
"791 1475 CURVE SMOOTH",
"395 1475 OFFCURVE",
"40 1155 OFFCURVE",
"40 718 CURVE SMOOTH",
"40 302 OFFCURVE",
"371 -41 OFFCURVE",
"798 -41 CURVE SMOOTH"
);
}
);
width = 1488;
},
{
anchors = (
{
name = bottom;
position = "{707, 0}";
},
{
name = top;
position = "{707, 1430}";
}
);
layerId = "A518794E-5143-4302-A915-751D2A609FF0";
paths = (
{
closed = 1;
nodes = (
"1024 -6 OFFCURVE",
"1180 98 OFFCURVE",
"1298 308 CURVE",
"1238 308 LINE",
"1121 90 OFFCURVE",
"955 24 OFFCURVE",
"789 24 CURVE SMOOTH",
"440 24 OFFCURVE",
"204 315 OFFCURVE",
"204 718 CURVE SMOOTH",
"204 1131 OFFCURVE",
"445 1410 OFFCURVE",
"782 1410 CURVE SMOOTH",
"947 1410 OFFCURVE",
"1133 1343 OFFCURVE",
"1240 1128 CURVE",
"1295 1128 LINE",
"1189 1350 OFFCURVE",
"1007 1440 OFFCURVE",
"784 1440 CURVE SMOOTH",
"391 1440 OFFCURVE",
"128 1154 OFFCURVE",
"128 715 CURVE SMOOTH",
"128 254 OFFCURVE",
"401 -6 OFFCURVE",
"783 -6 CURVE SMOOTH"
);
}
);
width = 1414;
},
{
anchors = (
{
name = bottom;
position = "{789, 0}";
},
{
name = top;
position = "{793, 1430}";
}
);
layerId = "1D873E37-AF27-4769-9F86-9F16E4B4DD36";
paths = (
{
closed = 1;
nodes = (
"1081 -41 OFFCURVE",
"1333 109 OFFCURVE",
"1448 333 CURVE",
"1143 343 LINE",
"1059 134 OFFCURVE",
"940 29 OFFCURVE",
"792 29 CURVE SMOOTH",
"551 29 OFFCURVE",
"382 309 OFFCURVE",
"382 715 CURVE SMOOTH",
"382 1126 OFFCURVE",
"554 1405 OFFCURVE",
"793 1405 CURVE SMOOTH",
"940 1405 OFFCURVE",
"1058 1300 OFFCURVE",
"1138 1093 CURVE",
"1441 1103 LINE",
"1355 1293 OFFCURVE",
"1080 1475 OFFCURVE",
"791 1475 CURVE SMOOTH",
"395 1475 OFFCURVE",
"40 1155 OFFCURVE",
"40 718 CURVE SMOOTH",
"40 302 OFFCURVE",
"371 -41 OFFCURVE",
"798 -41 CURVE SMOOTH"
);
}
);
width = 1488;
},
{
anchors = (
{
name = bottom;
position = "{707, 0}";
},
{
name = top;
position = "{707, 1430}";
}
);
layerId = "092756DD-C6BD-4F67-9765-10D57923B42B";
paths = (
{
closed = 1;
nodes = (
"1024 -6 OFFCURVE",
"1180 98 OFFCURVE",
"1298 308 CURVE",
"1238 308 LINE",
"1121 90 OFFCURVE",
"955 24 OFFCURVE",
"789 24 CURVE SMOOTH",
"440 24 OFFCURVE",
"204 315 OFFCURVE",
"204 718 CURVE SMOOTH",
"204 1131 OFFCURVE",
"445 1410 OFFCURVE",
"782 1410 CURVE SMOOTH",
"947 1410 OFFCURVE",
"1133 1343 OFFCURVE",
"1240 1128 CURVE",
"1295 1128 LINE",
"1189 1350 OFFCURVE",
"1007 1440 OFFCURVE",
"784 1440 CURVE SMOOTH",
"391 1440 OFFCURVE",
"128 1154 OFFCURVE",
"128 715 CURVE SMOOTH",
"128 254 OFFCURVE",
"401 -6 OFFCURVE",
"783 -6 CURVE SMOOTH"
);
}
);
width = 1414;
}
);
leftKerningGroup = O;
note = C;
rightKerningGroup = C;
unicode = 0043;
},
{
glyphname = Ccedilla;
lastChange = "2019-11-04 21:30:13 +0000";
layers = (
{
background = {
paths = (
{
closed = 1;
nodes = (
"1170 22 LINE",
"1166 110 OFFCURVE",
"1164 188 OFFCURVE",
"1164 224 CURVE SMOOTH",
"1164 294 OFFCURVE",
"1166 364 OFFCURVE",
"1170 476 CURVE",
"1138 476 LINE",
"1136 372 OFFCURVE",
"1120 308 OFFCURVE",
"1084 242 CURVE SMOOTH",
"1002 96 OFFCURVE",
"852 6 OFFCURVE",
"690 6 CURVE SMOOTH",
"432 6 OFFCURVE",
"296 224 OFFCURVE",
"296 640 CURVE SMOOTH",
"296 844 OFFCURVE",
"332 1034 OFFCURVE",
"394 1148 CURVE SMOOTH",
"458 1266 OFFCURVE",
"558 1326 OFFCURVE",
"694 1326 CURVE SMOOTH",
"834 1326 OFFCURVE",
"954 1264 OFFCURVE",
"1048 1146 CURVE SMOOTH",
"1108 1066 OFFCURVE",
"1130 1006 OFFCURVE",
"1138 896 CURVE",
"1170 896 LINE",
"1170 926 LINE",
"1164 1152 LINE",
"1164 1188 OFFCURVE",
"1166 1224 OFFCURVE",
"1170 1300 CURVE",
"1138 1300 LINE",
"1130 1244 OFFCURVE",
"1112 1220 OFFCURVE",
"1076 1220 CURVE SMOOTH",
"1054 1220 OFFCURVE",
"1040 1228 OFFCURVE",
"980 1266 CURVE SMOOTH",
"886 1328 OFFCURVE",
"800 1354 OFFCURVE",
"692 1354 CURVE SMOOTH",
"524 1354 OFFCURVE",
"360 1272 OFFCURVE",
"238 1124 CURVE SMOOTH",
"136 1002 OFFCURVE",
"74 820 OFFCURVE",
"74 642 CURVE SMOOTH",
"74 280 OFFCURVE",
"332 -8 OFFCURVE",
"670 -22 CURVE",
"560 -216 LINE",
"576 -230 LINE",
"612 -208 OFFCURVE",
"622 -204 OFFCURVE",
"648 -204 CURVE SMOOTH",
"706 -204 OFFCURVE",
"746 -240 OFFCURVE",
"746 -290 CURVE SMOOTH",
"746 -348 OFFCURVE",
"698 -392 OFFCURVE",
"632 -392 CURVE SMOOTH",
"584 -392 OFFCURVE",
"526 -380 OFFCURVE",
"488 -360 CURVE",
"476 -388 LINE",
"536 -416 OFFCURVE",
"600 -432 OFFCURVE",
"662 -432 CURVE SMOOTH",
"784 -432 OFFCURVE",
"876 -372 OFFCURVE",
"876 -290 CURVE SMOOTH",
"876 -218 OFFCURVE",
"812 -168 OFFCURVE",
"720 -168 CURVE SMOOTH",
"682 -168 OFFCURVE",
"654 -174 OFFCURVE",
"610 -192 CURVE",
"708 -22 LINE",
"826 -16 OFFCURVE",
"892 8 OFFCURVE",
"978 72 CURVE SMOOTH",
"1028 108 OFFCURVE",
"1042 116 OFFCURVE",
"1068 116 CURVE SMOOTH",
"1104 116 OFFCURVE",
"1134 78 OFFCURVE",
"1138 22 CURVE"
);
}
);
};
components = (
{
name = C;
},
{
name = cedillacomb;
transform = "{1, 0, 0, 1, 510, -20}";
}
);
layerId = "EA94BB3F-1054-4F03-AAB6-69C3B81B3CC3";
width = 1414;
},
{
components = (
{
name = C;
transform = "{1, 0, 0, 1.014, 0, 0}";
},
{
name = cedillacomb;
transform = "{1, 0, 0, 1, 539, 0}";
}
);
layerId = "1A84AFAC-8532-492C-A52A-D2ACD869B7F8";
width = 1414;
},
{
components = (
{
name = C;
},
{
name = cedillacomb;
transform = "{1, 0, 0, 1, 538, -10}";
}
);
layerId = "16E03120-9D89-4B3A-B1E3-633A6E865927";
width = 1488;
},
{
components = (
{
name = C;
},
{
name = cedillacomb;
transform = "{1, 0, 0, 1, 538, -10}";
}
);
layerId = "D5C24015-3945-4844-A39C-2F638D3E2004";
width = 1488;
},
{
components = (
{
name = C;
transform = "{1, 0, 0, 1.014, 0, 0}";
},
{
name = cedillacomb;
transform = "{1, 0, 0, 1, 539, 0}";
}
);
layerId = "A518794E-5143-4302-A915-751D2A609FF0";
width = 1414;
},
{
components = (
{
name = C;
},
{
name = cedillacomb;
transform = "{1, 0, 0, 1, 538, -10}";
}
);
layerId = "1D873E37-AF27-4769-9F86-9F16E4B4DD36";
width = 1488;
},
{
components = (
{
name = C;
transform = "{1, 0, 0, 1.014, 0, 0}";
},
{
name = cedillacomb;
transform = "{1, 0, 0, 1, 539, 0}";
}
);
layerId = "092756DD-C6BD-4F67-9765-10D57923B42B";
width = 1414;
}
);
leftKerningGroup = O;
note = Ccedilla;
rightKerningGroup = C;
unicode = 00C7;
},
{
glyphname = D;
lastChange = "2019-11-04 21:30:13 +0000";
layers = (
{
anchors = (
{
name = bottom;
position = "{715, 0}";
},
{
name = center;
position = "{229, 715}";
},
{
name = top;
position = "{715, 1430}";
}
);
background = {
paths = (
{
closed = 1;
nodes = (
"498 0 LINE SMOOTH",
"836 0 OFFCURVE",
"978 54 OFFCURVE",
"1084 134 CURVE SMOOTH",
"1250 260 OFFCURVE",
"1334 459 OFFCURVE",
"1334 713 CURVE SMOOTH",
"1334 843 OFFCURVE",
"1312 956 OFFCURVE",
"1270 1054 CURVE SMOOTH",
"1186 1250 OFFCURVE",
"1028 1361 OFFCURVE",
"866 1400 CURVE SMOOTH",
"782 1420 OFFCURVE",
"666 1430 OFFCURVE",
"436 1430 CURVE SMOOTH",
"114 1430 LINE",
"114 0 LINE"
);
},
{
closed = 1;
nodes = (
"328 1417 LINE",
"235 1394 LINE",
"442 1394 LINE SMOOTH",
"965 1394 OFFCURVE",
"1098 1124 OFFCURVE",
"1098 719 CURVE SMOOTH",
"1098 252 OFFCURVE",
"921 36 OFFCURVE",
"442 36 CURVE SMOOTH",
"235 36 LINE",
"328 13 LINE"
);
}
);
};
layerId = "EA94BB3F-1054-4F03-AAB6-69C3B81B3CC3";
paths = (
{
closed = 1;
nodes = (
"498 0 LINE SMOOTH",
"836 0 OFFCURVE",
"978 54 OFFCURVE",
"1084 134 CURVE SMOOTH",
"1250 260 OFFCURVE",
"1334 459 OFFCURVE",
"1334 712 CURVE SMOOTH",
"1334 935 OFFCURVE",
"1269 1134 OFFCURVE",
"1114 1272 CURVE SMOOTH",
"945 1422 OFFCURVE",
"750 1430 OFFCURVE",
"436 1430 CURVE SMOOTH",
"114 1430 LINE",
"114 0 LINE"
);
},
{
closed = 1;
nodes = (
"328 1417 LINE",
"235 1394 LINE",
"442 1394 LINE SMOOTH",
"965 1394 OFFCURVE",
"1098 1124 OFFCURVE",
"1098 719 CURVE SMOOTH",
"1098 252 OFFCURVE",
"921 36 OFFCURVE",
"442 36 CURVE SMOOTH",
"235 36 LINE",
"328 13 LINE"
);
}
);
width = 1440;
},
{
anchors = (
{
name = bottom;
position = "{725, 0}";
},
{
name = center;
position = "{275, 715}";
},
{
name = top;
position = "{725, 1430}";
}
);
layerId = "1A84AFAC-8532-492C-A52A-D2ACD869B7F8";
paths = (
{
closed = 1;
nodes = (
"558 0 LINE SMOOTH",
"751 0 OFFCURVE",
"903 29 OFFCURVE",
"1016 95 CURVE SMOOTH",
"1196 199 OFFCURVE",
"1279 397 OFFCURVE",
"1279 715 CURVE SMOOTH",
"1279 991 OFFCURVE",
"1217 1174 OFFCURVE",
"1078 1286 CURVE SMOOTH",
"951 1388 OFFCURVE",
"761 1430 OFFCURVE",
"496 1430 CURVE SMOOTH",
"234 1430 LINE",
"234 0 LINE"
);
},
{
closed = 1;
nodes = (
"304 1415 LINE",
"280 1404 LINE",
"588 1404 LINE SMOOTH",
"1030 1404 OFFCURVE",
"1214 1180 OFFCURVE",
"1214 719 CURVE SMOOTH",
"1214 250 OFFCURVE",
"1023 26 OFFCURVE",
"578 26 CURVE SMOOTH",
"280 26 LINE",
"304 15 LINE"
);
}
);
width = 1450;
},
{
anchors = (
{
name = bottom;
position = "{764, 0}";
},
{
name = center;
position = "{278, 715}";
},
{
name = top;
position = "{764, 1430}";
}
);
layerId = "16E03120-9D89-4B3A-B1E3-633A6E865927";
paths = (
{
closed = 1;
nodes = (
"547 -15 LINE SMOOTH",
"845 -15 OFFCURVE",
"1049 29 OFFCURVE",
"1172 122 CURVE SMOOTH",
"1363 267 OFFCURVE",
"1448 448 OFFCURVE",
"1448 712 CURVE SMOOTH",
"1448 961 OFFCURVE",
"1375 1133 OFFCURVE",
"1206 1283 CURVE SMOOTH",
"1035 1435 OFFCURVE",
"801 1445 OFFCURVE",
"485 1445 CURVE SMOOTH",
"98 1445 LINE",
"98 -15 LINE"
);
},
{
closed = 1;
nodes = (
"442 1451 LINE",
"149 1379 LINE",
"491 1379 LINE SMOOTH",
"911 1379 OFFCURVE",
"1082 1189 OFFCURVE",
"1082 719 CURVE SMOOTH",
"1082 240 OFFCURVE",
"913 51 OFFCURVE",
"491 51 CURVE SMOOTH",
"149 51 LINE",
"442 -21 LINE"
);
}
);
width = 1489;
},
{
anchors = (
{
name = bottom;
position = "{764, 0}";
},
{
name = center;
position = "{278, 715}";
},
{
name = top;
position = "{764, 1430}";
}
);
layerId = "D5C24015-3945-4844-A39C-2F638D3E2004";
paths = (
{
closed = 1;
nodes = (
"547 -15 LINE SMOOTH",
"845 -15 OFFCURVE",
"1049 29 OFFCURVE",
"1172 122 CURVE SMOOTH",
"1363 267 OFFCURVE",
"1448 448 OFFCURVE",
"1448 712 CURVE SMOOTH",
"1448 961 OFFCURVE",
"1375 1133 OFFCURVE",
"1206 1283 CURVE SMOOTH",
"1035 1435 OFFCURVE",
"801 1445 OFFCURVE",
"485 1445 CURVE SMOOTH",
"98 1445 LINE",
"98 -15 LINE"
);
},
{
closed = 1;
nodes = (
"442 1451 LINE",
"149 1379 LINE",
"491 1379 LINE SMOOTH",
"911 1379 OFFCURVE",
"1082 1189 OFFCURVE",
"1082 719 CURVE SMOOTH",
"1082 240 OFFCURVE",
"913 51 OFFCURVE",
"491 51 CURVE SMOOTH",
"149 51 LINE",
"442 -21 LINE"
);
}
);
width = 1489;
},
{
anchors = (
{
name = bottom;
position = "{725, 0}";
},
{
name = center;
position = "{275, 715}";
},
{
name = top;
position = "{725, 1430}";
}
);
layerId = "A518794E-5143-4302-A915-751D2A609FF0";
paths = (
{
closed = 1;
nodes = (
"558 0 LINE SMOOTH",
"751 0 OFFCURVE",
"903 29 OFFCURVE",
"1016 95 CURVE SMOOTH",
"1196 199 OFFCURVE",
"1279 397 OFFCURVE",
"1279 715 CURVE SMOOTH",
"1279 991 OFFCURVE",
"1217 1174 OFFCURVE",
"1078 1286 CURVE SMOOTH",
"951 1388 OFFCURVE",
"761 1430 OFFCURVE",
"496 1430 CURVE SMOOTH",
"234 1430 LINE",
"234 0 LINE"
);
},
{
closed = 1;
nodes = (
"304 1415 LINE",
"280 1404 LINE",
"588 1404 LINE SMOOTH",
"1030 1404 OFFCURVE",
"1214 1180 OFFCURVE",
"1214 719 CURVE SMOOTH",
"1214 250 OFFCURVE",
"1023 26 OFFCURVE",
"578 26 CURVE SMOOTH",
"280 26 LINE",
"304 15 LINE"
);
}
);
width = 1450;
},
{
anchors = (
{
name = bottom;
position = "{764, 0}";
},
{
name = center;
position = "{278, 715}";
},
{
name = top;
position = "{764, 1430}";
}
);
layerId = "1D873E37-AF27-4769-9F86-9F16E4B4DD36";
paths = (
{
closed = 1;
nodes = (
"547 -15 LINE SMOOTH",
"845 -15 OFFCURVE",
"1049 29 OFFCURVE",
"1172 122 CURVE SMOOTH",
"1363 267 OFFCURVE",
"1448 448 OFFCURVE",
"1448 712 CURVE SMOOTH",
"1448 961 OFFCURVE",
"1375 1133 OFFCURVE",
"1206 1283 CURVE SMOOTH",
"1035 1435 OFFCURVE",
"801 1445 OFFCURVE",
"485 1445 CURVE SMOOTH",
"98 1445 LINE",
"98 -15 LINE"
);
},
{
closed = 1;
nodes = (
"442 1451 LINE",
"149 1379 LINE",
"491 1379 LINE SMOOTH",
"911 1379 OFFCURVE",
"1082 1189 OFFCURVE",
"1082 719 CURVE SMOOTH",
"1082 240 OFFCURVE",
"913 51 OFFCURVE",
"491 51 CURVE SMOOTH",
"149 51 LINE",
"442 -21 LINE"
);
}
);
width = 1489;
},
{
anchors = (
{
name = bottom;
position = "{725, 0}";
},
{
name = center;
position = "{275, 715}";
},
{
name = top;
position = "{725, 1430}";
}
);
layerId = "092756DD-C6BD-4F67-9765-10D57923B42B";
paths = (
{
closed = 1;
nodes = (
"558 0 LINE SMOOTH",
"751 0 OFFCURVE",
"903 29 OFFCURVE",
"1016 95 CURVE SMOOTH",
"1196 199 OFFCURVE",
"1279 397 OFFCURVE",
"1279 715 CURVE SMOOTH",
"1279 991 OFFCURVE",
"1217 1174 OFFCURVE",
"1078 1286 CURVE SMOOTH",
"951 1388 OFFCURVE",
"761 1430 OFFCURVE",
"496 1430 CURVE SMOOTH",
"234 1430 LINE",
"234 0 LINE"
);
},
{
closed = 1;
nodes = (
"304 1415 LINE",
"280 1404 LINE",
"588 1404 LINE SMOOTH",
"1030 1404 OFFCURVE",
"1214 1180 OFFCURVE",
"1214 719 CURVE SMOOTH",
"1214 250 OFFCURVE",
"1023 26 OFFCURVE",
"578 26 CURVE SMOOTH",
"280 26 LINE",
"304 15 LINE"
);
}
);
width = 1450;
}
);
leftKerningGroup = H;
note = D;
rightKerningGroup = O;
unicode = 0044;
},
{
glyphname = Eth;
lastChange = "2019-11-04 21:30:13 +0000";
layers = (
{
background = {
paths = (
{
closed = 1;
nodes = (
"34 1334 LINE",
"34 1300 LINE",
"228 1300 LINE",
"228 710 LINE",
"50 710 LINE",
"50 676 LINE",
"228 676 LINE",
"228 34 LINE",
"34 34 LINE",
"34 0 LINE",
"556 0 LINE SMOOTH",
"812 0 OFFCURVE",
"920 18 OFFCURVE",
"1038 84 CURVE SMOOTH",
"1242 196 OFFCURVE",
"1362 410 OFFCURVE",
"1362 662 CURVE SMOOTH",
"1362 980 OFFCURVE",
"1176 1228 OFFCURVE",
"878 1306 CURVE SMOOTH",
"786 1332 OFFCURVE",
"752 1334 OFFCURVE",
"526 1334 CURVE SMOOTH"
);
},
{
closed = 1;
nodes = (
"426 676 LINE",
"718 676 LINE",
"718 710 LINE",
"426 710 LINE",
"426 1300 LINE",
"632 1300 OFFCURVE",
"690 1294 OFFCURVE",
"778 1270 CURVE SMOOTH",
"1018 1198 OFFCURVE",
"1144 996 OFFCURVE",
"1144 676 CURVE SMOOTH",
"1144 482 OFFCURVE",
"1108 328 OFFCURVE",
"1038 226 CURVE SMOOTH",
"968 124 OFFCURVE",
"830 56 OFFCURVE",
"660 40 CURVE SMOOTH",
"600 36 OFFCURVE",
"564 34 OFFCURVE",
"426 34 CURVE"
);
}
);
};
components = (
{
name = D;
},
{
name = strokeshortcomb;
transform = "{1, 0, 0, 1, -137, -37}";
}
);
layerId = "EA94BB3F-1054-4F03-AAB6-69C3B81B3CC3";
width = 1440;
},
{
components = (
{
name = D;
},
{
name = strokeshortcomb;
transform = "{1, 0, 0, 1, 34, -37}";
}
);
layerId = "1A84AFAC-8532-492C-A52A-D2ACD869B7F8";
width = 1450;
},
{
components = (
{
name = D;
},
{
name = strokeshortcomb;
transform = "{1, 0, 0, 1, -158, -37}";
}
);
layerId = "16E03120-9D89-4B3A-B1E3-633A6E865927";
width = 1489;
},
{
components = (
{
name = D;
},
{
name = strokeshortcomb;
transform = "{1, 0, 0, 1, -158, -37}";
}
);
layerId = "D5C24015-3945-4844-A39C-2F638D3E2004";
width = 1489;
},
{
components = (
{
name = D;
},
{
name = strokeshortcomb;
transform = "{1, 0, 0, 1, 34, -37}";
}
);
layerId = "A518794E-5143-4302-A915-751D2A609FF0";
width = 1450;
},
{
components = (
{
name = D;
},
{
name = strokeshortcomb;
transform = "{1, 0, 0, 1, -158, -37}";
}
);
layerId = "1D873E37-AF27-4769-9F86-9F16E4B4DD36";
width = 1489;
},
{
components = (
{
name = D;
},
{
name = strokeshortcomb;
transform = "{1, 0, 0, 1, 34, -37}";
}
);
layerId = "092756DD-C6BD-4F67-9765-10D57923B42B";
width = 1450;
}
);
leftKerningGroup = H;
note = Eth;
rightKerningGroup = O;
unicode = 00D0;
},
{
glyphname = E;
lastChange = "2019-11-04 21:30:13 +0000";
layers = (
{
anchors = (
{
name = bottom;
position = "{525, 0}";
},
{
name = ogonek;
position = "{953, 10}";
},
{
name = top;
position = "{525, 1430}";
},
{
name = topleft;
position = "{10, 1430}";
}
);
background = {
paths = (
{
closed = 1;
nodes = (
"472 36 LINE",
"472 712 LINE",
"554 712 LINE SMOOTH",
"664 712 OFFCURVE",
"736 706 OFFCURVE",
"776 694 CURVE",
"848 674 OFFCURVE",
"886 618 OFFCURVE",
"886 538 CURVE SMOOTH",
"886 464 LINE",
"922 464 LINE",
"922 1002 LINE",
"886 1002 LINE",
"886 934 LINE SMOOTH",
"886 870 OFFCURVE",
"846 802 OFFCURVE",
"792 776 CURVE",
"746 756 OFFCURVE",
"656 744 OFFCURVE",
"556 744 CURVE SMOOTH",
"472 744 LINE",
"472 1394 LINE",
"716 1394 LINE SMOOTH",
"914 1394 OFFCURVE",
"1030 1376 OFFCURVE",
"1100 1336 CURVE SMOOTH",
"1180 1290 OFFCURVE",
"1204 1246 OFFCURVE",
"1232 1080 CURVE",
"1264 1080 LINE",
"1232 1430 LINE",
"54 1430 LINE",
"54 1394 LINE",
"262 1394 LINE",
"262 36 LINE",
"54 36 LINE",
"54 0 LINE",
"1340 0 LINE",
"1340 420 LINE",
"1304 420 LINE",
"1304 338 LINE SMOOTH",
"1304 220 OFFCURVE",
"1250 142 OFFCURVE",
"1132 88 CURVE",
"1056 50 OFFCURVE",
"946 36 OFFCURVE",
"740 36 CURVE SMOOTH"
);
}
);
};
layerId = "EA94BB3F-1054-4F03-AAB6-69C3B81B3CC3";
paths = (
{
closed = 1;
nodes = (
"964 0 LINE",
"964 36 LINE",
"227 36 LINE",
"320 23 LINE",
"320 725 LINE",
"227 710 LINE",
"964 710 LINE",
"964 746 LINE",
"227 746 LINE",
"320 733 LINE",
"320 1417 LINE",
"227 1394 LINE",
"964 1394 LINE",
"964 1430 LINE",
"114 1430 LINE",
"114 0 LINE"
);
}
);
width = 1060;
},
{
anchors = (
{
name = bottom;
position = "{485, 0}";
},
{
name = ogonek;
position = "{937, 10}";
},
{
name = top;
position = "{485, 1430}";
},
{
name = topleft;
position = "{-60, 1430}";
}
);
layerId = "1A84AFAC-8532-492C-A52A-D2ACD869B7F8";
paths = (
{
closed = 1;
nodes = (
"874 0 LINE",
"874 26 LINE",
"165 26 LINE",
"190 12 LINE",
"190 738 LINE",
"158 715 LINE",
"874 715 LINE",
"874 741 LINE",
"165 741 LINE",
"190 727 LINE",
"190 1420 LINE",
"146 1404 LINE",
"874 1404 LINE",
"874 1430 LINE",
"130 1430 LINE",
"130 0 LINE"
);
}
);
width = 984;
},
{
anchors = (
{
name = bottom;
position = "{574, 0}";
},
{
name = ogonek;
position = "{1002, 10}";
},
{
name = top;
position = "{574, 1430}";
},
{
name = topleft;
position = "{59, 1430}";
}
);
layerId = "16E03120-9D89-4B3A-B1E3-633A6E865927";
paths = (
{
closed = 1;
nodes = (
"1078 -15 LINE",
"1078 51 LINE",
"253 51 LINE",
"434 -2 LINE",
"434 752 LINE",
"281 695 LINE",
"1078 695 LINE",
"1078 761 LINE",
"253 761 LINE",
"434 708 LINE",
"434 1431 LINE",
"141 1379 LINE",
"1078 1379 LINE",
"1078 1445 LINE",
"98 1445 LINE",
"98 -15 LINE"
);
}
);
width = 1109;
},
{
anchors = (
{
name = bottom;
position = "{574, 0}";
},
{
name = ogonek;
position = "{1002, 10}";
},
{
name = top;
position = "{574, 1430}";
},
{
name = topleft;
position = "{59, 1430}";
}
);
layerId = "D5C24015-3945-4844-A39C-2F638D3E2004";
paths = (
{
closed = 1;
nodes = (
"1078 -15 LINE",
"1078 51 LINE",
"253 51 LINE",
"434 -2 LINE",
"434 752 LINE",
"281 695 LINE",
"1078 695 LINE",
"1078 761 LINE",
"253 761 LINE",
"434 708 LINE",
"434 1431 LINE",
"141 1379 LINE",
"1078 1379 LINE",
"1078 1445 LINE",
"98 1445 LINE",
"98 -15 LINE"
);
}
);
width = 1109;
},
{
anchors = (
{
name = bottom;
position = "{485, 0}";
},
{
name = ogonek;
position = "{937, 10}";
},
{
name = top;
position = "{485, 1430}";
},
{
name = topleft;
position = "{-60, 1430}";
}
);
layerId = "A518794E-5143-4302-A915-751D2A609FF0";
paths = (
{
closed = 1;
nodes = (
"874 0 LINE",
"874 26 LINE",
"165 26 LINE",
"190 12 LINE",
"190 738 LINE",
"158 715 LINE",
"874 715 LINE",
"874 741 LINE",
"165 741 LINE",
"190 727 LINE",
"190 1420 LINE",
"146 1404 LINE",
"874 1404 LINE",
"874 1430 LINE",
"130 1430 LINE",
"130 0 LINE"
);
}
);
width = 984;
},
{
anchors = (
{
name = bottom;
position = "{574, 0}";
},
{
name = ogonek;
position = "{1002, 10}";
},
{
name = top;
position = "{574, 1430}";
},
{
name = topleft;
position = "{59, 1430}";
}
);
layerId = "1D873E37-AF27-4769-9F86-9F16E4B4DD36";
paths = (
{
closed = 1;
nodes = (
"1078 -15 LINE",
"1078 51 LINE",
"253 51 LINE",
"434 -2 LINE",
"434 752 LINE",
"281 695 LINE",
"1078 695 LINE",
"1078 761 LINE",
"253 761 LINE",
"434 708 LINE",
"434 1431 LINE",
"141 1379 LINE",
"1078 1379 LINE",
"1078 1445 LINE",
"98 1445 LINE",
"98 -15 LINE"
);
}
);
width = 1109;
},
{
anchors = (
{
name = bottom;
position = "{485, 0}";
},
{
name = ogonek;
position = "{937, 10}";
},
{
name = top;
position = "{485, 1430}";
},
{
name = topleft;
position = "{-60, 1430}";
}
);
layerId = "092756DD-C6BD-4F67-9765-10D57923B42B";
paths = (
{
closed = 1;
nodes = (
"874 0 LINE",
"874 26 LINE",
"165 26 LINE",
"190 12 LINE",
"190 738 LINE",
"158 715 LINE",
"874 715 LINE",
"874 741 LINE",
"165 741 LINE",
"190 727 LINE",
"190 1420 LINE",
"146 1404 LINE",
"874 1404 LINE",
"874 1430 LINE",
"130 1430 LINE",
"130 0 LINE"
);
}
);
width = 984;
}
);
leftKerningGroup = H;
leftMetricsKey = H;
note = E;
rightKerningGroup = E;
unicode = 0045;
},
{
glyphname = Eacute;
lastChange = "2019-11-04 21:30:13 +0000";
layers = (
{
background = {
paths = (
{
closed = 1;
nodes = (
"424 34 LINE",
"424 664 LINE",
"500 664 LINE SMOOTH",
"602 664 OFFCURVE",
"670 658 OFFCURVE",
"708 648 CURVE",
"774 628 OFFCURVE",
"810 576 OFFCURVE",
"810 502 CURVE SMOOTH",
"810 432 LINE",
"844 432 LINE",
"844 934 LINE",
"810 934 LINE",
"810 872 LINE SMOOTH",
"810 812 OFFCURVE",
"772 748 OFFCURVE",
"722 724 CURVE",
"680 706 OFFCURVE",
"596 694 OFFCURVE",
"502 694 CURVE SMOOTH",
"424 694 LINE",
"424 1300 LINE",
"652 1300 LINE SMOOTH",
"836 1300 OFFCURVE",
"944 1284 OFFCURVE",
"1010 1246 CURVE SMOOTH",
"1084 1204 OFFCURVE",
"1106 1162 OFFCURVE",
"1132 1008 CURVE",
"1162 1008 LINE",
"1132 1334 LINE",
"34 1334 LINE",
"34 1300 LINE",
"228 1300 LINE",
"228 34 LINE",
"34 34 LINE",
"34 0 LINE",
"1234 0 LINE",
"1234 392 LINE",
"1200 392 LINE",
"1200 316 LINE SMOOTH",
"1200 206 OFFCURVE",
"1150 132 OFFCURVE",
"1040 82 CURVE",
"968 46 OFFCURVE",
"866 34 OFFCURVE",
"674 34 CURVE SMOOTH"
);
},
{
closed = 1;
nodes = (
"406 1446 LINE",
"636 1596 LINE SMOOTH",
"692 1632 OFFCURVE",
"718 1664 OFFCURVE",
"718 1694 CURVE SMOOTH",
"718 1732 OFFCURVE",
"686 1758 OFFCURVE",
"642 1758 CURVE SMOOTH",
"594 1758 OFFCURVE",
"572 1740 OFFCURVE",
"516 1658 CURVE SMOOTH",
"368 1446 LINE"
);
}
);
};
components = (
{
name = E;
},
{
name = acutecomb;
transform = "{1, 0, 0, 1, 448, 516}";
}
);
layerId = "EA94BB3F-1054-4F03-AAB6-69C3B81B3CC3";
width = 1060;
},
{
components = (
{
name = E;
},
{
name = acutecomb;
transform = "{1, 0, 0, 1, 289, 516}";
}
);
layerId = "1A84AFAC-8532-492C-A52A-D2ACD869B7F8";
width = 984;
},
{
components = (
{
name = E;
},
{
name = acutecomb;
transform = "{1, 0, 0, 1, 394, 511}";
}
);
layerId = "16E03120-9D89-4B3A-B1E3-633A6E865927";
width = 1109;
},
{
components = (
{
name = E;
},
{
name = acutecomb;
transform = "{1, 0, 0, 1, 394, 511}";
}
);
layerId = "D5C24015-3945-4844-A39C-2F638D3E2004";
width = 1109;
},
{
components = (
{
name = E;
},
{
name = acutecomb;
transform = "{1, 0, 0, 1, 289, 516}";
}
);
layerId = "A518794E-5143-4302-A915-751D2A609FF0";
width = 984;
},
{
components = (
{
name = E;
},
{
name = acutecomb;
transform = "{1, 0, 0, 1, 394, 511}";
}
);
layerId = "1D873E37-AF27-4769-9F86-9F16E4B4DD36";
width = 1109;
},
{
components = (
{
name = E;
},
{
name = acutecomb;
transform = "{1, 0, 0, 1, 289, 516}";
}
);
layerId = "092756DD-C6BD-4F67-9765-10D57923B42B";
width = 984;
}
);
leftKerningGroup = H;
note = Eacute;
rightKerningGroup = E;
unicode = 00C9;
},
{
glyphname = F;
lastChange = "2019-11-04 21:30:13 +0000";
layers = (
{
anchors = (
{
name = bottom;
position = "{496, 0}";
},
{
name = top;
position = "{496, 1430}";
}
);
background = {
paths = (
{
closed = 1;
nodes = (
"1218 1054 LINE",
"1180 1430 LINE",
"14 1430 LINE",
"14 1394 LINE",
"222 1394 LINE",
"222 36 LINE",
"14 36 LINE",
"14 0 LINE",
"654 0 LINE",
"654 36 LINE",
"430 36 LINE",
"430 712 LINE",
"518 712 LINE SMOOTH",
"722 712 OFFCURVE",
"808 692 OFFCURVE",
"846 632 CURVE SMOOTH",
"864 606 OFFCURVE",
"878 536 OFFCURVE",
"878 472 CURVE SMOOTH",
"878 456 LINE",
"914 456 LINE",
"914 1016 LINE",
"878 1016 LINE",
"878 1004 LINE SMOOTH",
"878 948 OFFCURVE",
"866 876 OFFCURVE",
"850 846 CURVE SMOOTH",
"812 774 OFFCURVE",
"726 748 OFFCURVE",
"520 748 CURVE SMOOTH",
"430 748 LINE",
"430 1394 LINE",
"676 1394 LINE SMOOTH",
"868 1394 OFFCURVE",
"868 1394 OFFCURVE",
"914 1384 CURVE SMOOTH",
"1034 1366 OFFCURVE",
"1098 1328 OFFCURVE",
"1134 1250 CURVE SMOOTH",
"1164 1188 OFFCURVE",
"1178 1132 OFFCURVE",
"1178 1090 CURVE SMOOTH",
"1178 1054 LINE"
);
}
);
};
layerId = "EA94BB3F-1054-4F03-AAB6-69C3B81B3CC3";
paths = (
{
closed = 1;
nodes = (
"320 0 LINE",
"320 735 LINE",
"227 712 LINE",
"904 712 LINE",
"904 746 LINE",
"227 746 LINE",
"320 723 LINE",
"320 1417 LINE",
"227 1394 LINE",
"904 1394 LINE",
"904 1430 LINE",
"114 1430 LINE",
"114 0 LINE"
);
}
);
width = 992;
},
{
anchors = (
{
name = bottom;
position = "{492, 0}";
},
{
name = top;
position = "{492, 1430}";
}
);
background = {
paths = (
{
closed = 1;
nodes = (
"190 0 LINE",
"190 733 LINE",
"166 717 LINE",
"774 717 LINE",
"774 741 LINE",
"166 741 LINE",
"190 725 LINE",
"190 1420 LINE",
"166 1404 LINE",
"774 1404 LINE",
"774 1430 LINE",
"130 1430 LINE",
"130 0 LINE"
);
}
);
};
layerId = "1A84AFAC-8532-492C-A52A-D2ACD869B7F8";
paths = (
{
closed = 1;
nodes = (
"190 0 LINE",
"190 738 LINE",
"158 715 LINE",
"874 715 LINE",
"874 741 LINE",
"165 741 LINE",
"190 727 LINE",
"190 1420 LINE",
"146 1404 LINE",
"874 1404 LINE",
"874 1430 LINE",
"130 1430 LINE",
"130 0 LINE"
);
}
);
width = 984;
},
{
anchors = (
{
name = bottom;
position = "{521, 0}";
},
{
name = top;
position = "{521, 1430}";
}
);
layerId = "16E03120-9D89-4B3A-B1E3-633A6E865927";
paths = (
{
closed = 1;
nodes = (
"434 -15 LINE",
"434 749 LINE",
"141 697 LINE",
"1018 697 LINE",
"1018 761 LINE",
"141 761 LINE",
"434 702 LINE",
"434 1421 LINE",
"141 1379 LINE",
"1018 1379 LINE",
"1018 1445 LINE",
"98 1445 LINE",
"98 -15 LINE"
);
}
);
width = 1041;
},
{
anchors = (
{
name = bottom;
position = "{521, 0}";
},
{
name = top;
position = "{521, 1430}";
}
);
layerId = "D5C24015-3945-4844-A39C-2F638D3E2004";
paths = (
{
closed = 1;
nodes = (
"434 -15 LINE",
"434 749 LINE",
"141 697 LINE",
"1018 697 LINE",
"1018 761 LINE",
"141 761 LINE",
"434 702 LINE",
"434 1421 LINE",
"141 1379 LINE",
"1018 1379 LINE",
"1018 1445 LINE",
"98 1445 LINE",
"98 -15 LINE"
);
}
);
width = 1041;
},
{
anchors = (
{
name = bottom;
position = "{492, 0}";
},
{
name = top;
position = "{492, 1430}";
}
);
background = {
paths = (
{
closed = 1;
nodes = (
"190 0 LINE",
"190 733 LINE",
"166 717 LINE",
"774 717 LINE",
"774 741 LINE",
"166 741 LINE",
"190 725 LINE",
"190 1420 LINE",
"166 1404 LINE",
"774 1404 LINE",
"774 1430 LINE",
"130 1430 LINE",
"130 0 LINE"
);
}
);
};
layerId = "A518794E-5143-4302-A915-751D2A609FF0";
paths = (
{
closed = 1;
nodes = (
"190 0 LINE",
"190 738 LINE",
"158 715 LINE",
"874 715 LINE",
"874 741 LINE",
"165 741 LINE",
"190 727 LINE",
"190 1420 LINE",
"146 1404 LINE",
"874 1404 LINE",
"874 1430 LINE",
"130 1430 LINE",
"130 0 LINE"
);
}
);
width = 984;
},
{
anchors = (
{
name = bottom;
position = "{521, 0}";
},
{
name = top;
position = "{521, 1430}";
}
);
layerId = "1D873E37-AF27-4769-9F86-9F16E4B4DD36";
paths = (
{
closed = 1;
nodes = (
"434 -15 LINE",
"434 749 LINE",
"141 697 LINE",
"1018 697 LINE",
"1018 761 LINE",
"141 761 LINE",
"434 702 LINE",
"434 1421 LINE",
"141 1379 LINE",
"1018 1379 LINE",
"1018 1445 LINE",
"98 1445 LINE",
"98 -15 LINE"
);
}
);
width = 1041;
},
{
anchors = (
{
name = bottom;
position = "{492, 0}";
},
{
name = top;
position = "{492, 1430}";
}
);
background = {
paths = (
{
closed = 1;
nodes = (
"190 0 LINE",
"190 733 LINE",
"166 717 LINE",
"774 717 LINE",
"774 741 LINE",
"166 741 LINE",
"190 725 LINE",
"190 1420 LINE",
"166 1404 LINE",
"774 1404 LINE",
"774 1430 LINE",
"130 1430 LINE",
"130 0 LINE"
);
}
);
};
layerId = "092756DD-C6BD-4F67-9765-10D57923B42B";
paths = (
{
closed = 1;
nodes = (
"190 0 LINE",
"190 738 LINE",
"158 715 LINE",
"874 715 LINE",
"874 741 LINE",
"165 741 LINE",
"190 727 LINE",
"190 1420 LINE",
"146 1404 LINE",
"874 1404 LINE",
"874 1430 LINE",
"130 1430 LINE",
"130 0 LINE"
);
}
);
width = 984;
}
);
leftKerningGroup = H;
leftMetricsKey = H;
note = F;
rightKerningGroup = F;
unicode = 0046;
},
{
glyphname = G;
lastChange = "2019-11-04 21:30:13 +0000";
layers = (
{
anchors = (
{
name = bottom;
position = "{750, 0}";
},
{
name = top;
position = "{758, 1430}";
}
);
background = {
paths = (
{
closed = 1;
nodes = (
"934 -26 OFFCURVE",
"1110 39 OFFCURVE",
"1244 182 CURVE SMOOTH",
"1354 299 OFFCURVE",
"1424 457 OFFCURVE",
"1442 630 CURVE",
"1230 630 LINE",
"1208 253 OFFCURVE",
"1025 4 OFFCURVE",
"757 4 CURVE SMOOTH",
"472 4 OFFCURVE",
"282 287 OFFCURVE",
"282 714 CURVE SMOOTH",
"282 1141 OFFCURVE",
"472 1430 OFFCURVE",
"758 1430 CURVE SMOOTH",
"938 1430 OFFCURVE",
"1082 1314 OFFCURVE",
"1160 1118 CURVE",
"1338 1118 LINE",
"1311 1165 OFFCURVE",
"1285 1202 OFFCURVE",
"1244 1244 CURVE SMOOTH",
"1113 1378 OFFCURVE",
"930 1460 OFFCURVE",
"757 1460 CURVE SMOOTH",
"585 1460 OFFCURVE",
"406 1379 OFFCURVE",
"274 1243 CURVE SMOOTH",
"149 1114 OFFCURVE",
"70 937 OFFCURVE",
"70 718 CURVE SMOOTH",
"70 513 OFFCURVE",
"139 320 OFFCURVE",
"271 181 CURVE SMOOTH",
"402 44 OFFCURVE",
"579 -26 OFFCURVE",
"760 -26 CURVE SMOOTH"
);
},
{
closed = 1;
nodes = (
"1276 594 LINE",
"1276 630 LINE",
"812 630 LINE",
"812 594 LINE"
);
}
);
};
layerId = "EA94BB3F-1054-4F03-AAB6-69C3B81B3CC3";
paths = (
{
closed = 1;
nodes = (
"1128 -26 OFFCURVE",
"1403 257 OFFCURVE",
"1442 630 CURVE",
"1230 630 LINE",
"1208 253 OFFCURVE",
"1025 4 OFFCURVE",
"757 4 CURVE SMOOTH",
"472 4 OFFCURVE",
"282 287 OFFCURVE",
"282 714 CURVE SMOOTH",
"282 1141 OFFCURVE",
"472 1430 OFFCURVE",
"758 1430 CURVE SMOOTH",
"938 1430 OFFCURVE",
"1082 1314 OFFCURVE",
"1160 1118 CURVE",
"1338 1118 LINE",
"1221 1321 OFFCURVE",
"985 1460 OFFCURVE",
"757 1460 CURVE SMOOTH",
"375 1460 OFFCURVE",
"70 1118 OFFCURVE",
"70 718 CURVE SMOOTH",
"70 302 OFFCURVE",
"355 -26 OFFCURVE",
"760 -26 CURVE SMOOTH"
);
},
{
closed = 1;
nodes = (
"1276 594 LINE",
"1276 630 LINE",
"812 630 LINE",
"812 594 LINE"
);
}
);
width = 1512;
},
{
anchors = (
{
name = bottom;
position = "{733, 0}";
},
{
name = top;
position = "{733, 1430}";
}
);
background = {
paths = (
{
closed = 1;
nodes = (
"1076 -26 OFFCURVE",
"1306 238 OFFCURVE",
"1348 624 CURVE",
"1376 624 LINE",
"1351 230 OFFCURVE",
"1130 -6 OFFCURVE",
"783 -6 CURVE SMOOTH",
"410 -6 OFFCURVE",
"252 264 OFFCURVE",
"252 714 CURVE SMOOTH",
"252 1167 OFFCURVE",
"411 1440 OFFCURVE",
"784 1440 CURVE SMOOTH",
"1017 1440 OFFCURVE",
"1219 1316 OFFCURVE",
"1296 1126 CURVE",
"1256 1126 LINE",
"1127 1348 OFFCURVE",
"968 1460 OFFCURVE",
"783 1460 CURVE SMOOTH",
"478 1460 OFFCURVE",
"186 1120 OFFCURVE",
"186 718 CURVE SMOOTH",
"186 295 OFFCURVE",
"462 -26 OFFCURVE",
"786 -26 CURVE SMOOTH"
);
},
{
closed = 1;
nodes = (
"1182 598 LINE",
"1182 624 LINE",
"958 624 LINE",
"958 598 LINE"
);
}
);
};
layerId = "1A84AFAC-8532-492C-A52A-D2ACD869B7F8";
paths = (
{
closed = 1;
nodes = (
"1143 -6 OFFCURVE",
"1359 256 OFFCURVE",
"1391 624 CURVE",
"1334 624 LINE",
"1295 276 OFFCURVE",
"1078 35 OFFCURVE",
"768 24 CURVE",
"431 36 OFFCURVE",
"204 320 OFFCURVE",
"204 718 CURVE SMOOTH",
"204 1122 OFFCURVE",
"438 1402 OFFCURVE",
"768 1410 CURVE",
"969 1405 OFFCURVE",
"1134 1300 OFFCURVE",
"1233 1127 CURVE",
"1312 1127 LINE",
"1207 1319 OFFCURVE",
"1020 1440 OFFCURVE",
"768 1440 CURVE SMOOTH",
"365 1440 OFFCURVE",
"128 1131 OFFCURVE",
"128 715 CURVE SMOOTH",
"128 301 OFFCURVE",
"362 -6 OFFCURVE",
"768 -6 CURVE SMOOTH"
);
},
{
closed = 1;
nodes = (
"1352 598 LINE",
"1352 624 LINE",
"908 624 LINE",
"908 598 LINE"
);
}
);
width = 1466;
},
{
anchors = (
{
name = bottom;
position = "{785, 0}";
},
{
name = top;
position = "{793, 1430}";
}
);
layerId = "16E03120-9D89-4B3A-B1E3-633A6E865927";
paths = (
{
closed = 1;
nodes = (
"1195 -41 OFFCURVE",
"1510 248 OFFCURVE",
"1543 645 CURVE",
"1201 645 LINE",
"1183 271 OFFCURVE",
"1016 19 OFFCURVE",
"792 19 CURVE SMOOTH",
"553 19 OFFCURVE",
"382 306 OFFCURVE",
"382 714 CURVE SMOOTH",
"382 1124 OFFCURVE",
"555 1415 OFFCURVE",
"793 1415 CURVE SMOOTH",
"941 1415 OFFCURVE",
"1058 1310 OFFCURVE",
"1138 1103 CURVE",
"1442 1103 LINE",
"1334 1314 OFFCURVE",
"1052 1475 OFFCURVE",
"792 1475 CURVE SMOOTH",
"378 1475 OFFCURVE",
"40 1134 OFFCURVE",
"40 718 CURVE SMOOTH",
"40 282 OFFCURVE",
"362 -41 OFFCURVE",
"795 -41 CURVE SMOOTH"
);
},
{
closed = 1;
nodes = (
"1376 579 LINE",
"1376 645 LINE",
"782 645 LINE",
"782 579 LINE"
);
}
);
width = 1583;
},
{
anchors = (
{
name = bottom;
position = "{785, 0}";
},
{
name = top;
position = "{793, 1430}";
}
);
layerId = "D5C24015-3945-4844-A39C-2F638D3E2004";
paths = (
{
closed = 1;
nodes = (
"1195 -41 OFFCURVE",
"1510 248 OFFCURVE",
"1543 645 CURVE",
"1201 645 LINE",
"1183 271 OFFCURVE",
"1016 19 OFFCURVE",
"792 19 CURVE SMOOTH",
"553 19 OFFCURVE",
"382 306 OFFCURVE",
"382 714 CURVE SMOOTH",
"382 1124 OFFCURVE",
"555 1415 OFFCURVE",
"793 1415 CURVE SMOOTH",
"941 1415 OFFCURVE",
"1058 1310 OFFCURVE",
"1138 1103 CURVE",
"1442 1103 LINE",
"1334 1314 OFFCURVE",
"1052 1475 OFFCURVE",
"792 1475 CURVE SMOOTH",
"378 1475 OFFCURVE",
"40 1134 OFFCURVE",
"40 718 CURVE SMOOTH",
"40 282 OFFCURVE",
"362 -41 OFFCURVE",
"795 -41 CURVE SMOOTH"
);
},
{
closed = 1;
nodes = (
"1376 579 LINE",
"1376 645 LINE",
"782 645 LINE",
"782 579 LINE"
);
}
);
width = 1583;
},
{
anchors = (
{
name = bottom;
position = "{733, 0}";
},
{
name = top;
position = "{733, 1430}";
}
);
background = {
paths = (
{
closed = 1;
nodes = (
"1076 -26 OFFCURVE",
"1306 238 OFFCURVE",
"1348 624 CURVE",
"1376 624 LINE",
"1351 230 OFFCURVE",
"1130 -6 OFFCURVE",
"783 -6 CURVE SMOOTH",
"410 -6 OFFCURVE",
"252 264 OFFCURVE",
"252 714 CURVE SMOOTH",
"252 1167 OFFCURVE",
"411 1440 OFFCURVE",
"784 1440 CURVE SMOOTH",
"1017 1440 OFFCURVE",
"1219 1316 OFFCURVE",
"1296 1126 CURVE",
"1256 1126 LINE",
"1127 1348 OFFCURVE",
"968 1460 OFFCURVE",
"783 1460 CURVE SMOOTH",
"478 1460 OFFCURVE",
"186 1120 OFFCURVE",
"186 718 CURVE SMOOTH",
"186 295 OFFCURVE",
"462 -26 OFFCURVE",
"786 -26 CURVE SMOOTH"
);
},
{
closed = 1;
nodes = (
"1182 598 LINE",
"1182 624 LINE",
"958 624 LINE",
"958 598 LINE"
);
}
);
};
layerId = "A518794E-5143-4302-A915-751D2A609FF0";
paths = (
{
closed = 1;
nodes = (
"1143 -6 OFFCURVE",
"1359 256 OFFCURVE",
"1391 624 CURVE",
"1334 624 LINE",
"1295 276 OFFCURVE",
"1078 35 OFFCURVE",
"768 24 CURVE",
"431 36 OFFCURVE",
"204 320 OFFCURVE",
"204 718 CURVE SMOOTH",
"204 1122 OFFCURVE",
"438 1402 OFFCURVE",
"768 1410 CURVE",
"969 1405 OFFCURVE",
"1134 1300 OFFCURVE",
"1233 1127 CURVE",
"1312 1127 LINE",
"1207 1319 OFFCURVE",
"1020 1440 OFFCURVE",
"768 1440 CURVE SMOOTH",
"365 1440 OFFCURVE",
"128 1131 OFFCURVE",
"128 715 CURVE SMOOTH",
"128 301 OFFCURVE",
"362 -6 OFFCURVE",
"768 -6 CURVE SMOOTH"
);
},
{
closed = 1;
nodes = (
"1352 598 LINE",
"1352 624 LINE",
"908 624 LINE",
"908 598 LINE"
);
}
);
width = 1466;
},
{
anchors = (
{
name = bottom;
position = "{785, 0}";
},
{
name = top;
position = "{793, 1430}";
}
);
layerId = "1D873E37-AF27-4769-9F86-9F16E4B4DD36";
paths = (
{
closed = 1;
nodes = (
"1195 -41 OFFCURVE",
"1510 248 OFFCURVE",
"1543 645 CURVE",
"1201 645 LINE",
"1183 271 OFFCURVE",
"1016 19 OFFCURVE",
"792 19 CURVE SMOOTH",
"553 19 OFFCURVE",
"382 306 OFFCURVE",
"382 714 CURVE SMOOTH",
"382 1124 OFFCURVE",
"555 1415 OFFCURVE",
"793 1415 CURVE SMOOTH",
"941 1415 OFFCURVE",
"1058 1310 OFFCURVE",
"1138 1103 CURVE",
"1442 1103 LINE",
"1334 1314 OFFCURVE",
"1052 1475 OFFCURVE",
"792 1475 CURVE SMOOTH",
"378 1475 OFFCURVE",
"40 1134 OFFCURVE",
"40 718 CURVE SMOOTH",
"40 282 OFFCURVE",
"362 -41 OFFCURVE",
"795 -41 CURVE SMOOTH"
);
},
{
closed = 1;
nodes = (
"1376 579 LINE",
"1376 645 LINE",
"782 645 LINE",
"782 579 LINE"
);
}
);
width = 1583;
},
{
anchors = (
{
name = bottom;
position = "{733, 0}";
},
{
name = top;
position = "{733, 1430}";
}
);
background = {
paths = (
{
closed = 1;
nodes = (
"1076 -26 OFFCURVE",
"1306 238 OFFCURVE",
"1348 624 CURVE",
"1376 624 LINE",
"1351 230 OFFCURVE",
"1130 -6 OFFCURVE",
"783 -6 CURVE SMOOTH",
"410 -6 OFFCURVE",
"252 264 OFFCURVE",
"252 714 CURVE SMOOTH",
"252 1167 OFFCURVE",
"411 1440 OFFCURVE",
"784 1440 CURVE SMOOTH",
"1017 1440 OFFCURVE",
"1219 1316 OFFCURVE",
"1296 1126 CURVE",
"1256 1126 LINE",
"1127 1348 OFFCURVE",
"968 1460 OFFCURVE",
"783 1460 CURVE SMOOTH",
"478 1460 OFFCURVE",
"186 1120 OFFCURVE",
"186 718 CURVE SMOOTH",
"186 295 OFFCURVE",
"462 -26 OFFCURVE",
"786 -26 CURVE SMOOTH"
);
},
{
closed = 1;
nodes = (
"1182 598 LINE",
"1182 624 LINE",
"958 624 LINE",
"958 598 LINE"
);
}
);
};
layerId = "092756DD-C6BD-4F67-9765-10D57923B42B";
paths = (
{
closed = 1;
nodes = (
"1143 -6 OFFCURVE",
"1359 256 OFFCURVE",
"1391 624 CURVE",
"1334 624 LINE",
"1295 276 OFFCURVE",
"1078 35 OFFCURVE",
"768 24 CURVE",
"431 36 OFFCURVE",
"204 320 OFFCURVE",
"204 718 CURVE SMOOTH",
"204 1122 OFFCURVE",
"438 1402 OFFCURVE",
"768 1410 CURVE",
"969 1405 OFFCURVE",
"1134 1300 OFFCURVE",
"1233 1127 CURVE",
"1312 1127 LINE",
"1207 1319 OFFCURVE",
"1020 1440 OFFCURVE",
"768 1440 CURVE SMOOTH",
"365 1440 OFFCURVE",
"128 1131 OFFCURVE",
"128 715 CURVE SMOOTH",
"128 301 OFFCURVE",
"362 -6 OFFCURVE",
"768 -6 CURVE SMOOTH"
);
},
{
closed = 1;
nodes = (
"1352 598 LINE",
"1352 624 LINE",
"908 624 LINE",
"908 598 LINE"
);
}
);
width = 1466;
}
);
leftKerningGroup = O;
note = G;
rightKerningGroup = G;
unicode = 0047;
},
{
glyphname = H;
lastChange = "2019-11-04 21:30:13 +0000";
layers = (
{
anchors = (
{
name = bottom;
position = "{700, 0}";
},
{
name = center;
position = "{700, 715}";
},
{
name = top;
position = "{700, 1430}";
},
{
name = topleft;
position = "{10, 1430}";
}
);
background = {
paths = (
{
closed = 1;
nodes = (
"430 714 LINE",
"1218 714 LINE",
"1218 36 LINE",
"1008 36 LINE",
"1008 0 LINE",
"1634 0 LINE",
"1634 36 LINE",
"1426 36 LINE",
"1426 1394 LINE",
"1634 1394 LINE",
"1634 1430 LINE",
"1008 1430 LINE",
"1008 1394 LINE",
"1218 1394 LINE",
"1218 750 LINE",
"430 750 LINE",
"430 1394 LINE",
"638 1394 LINE",
"638 1430 LINE",
"14 1430 LINE",
"14 1394 LINE",
"222 1394 LINE",
"222 36 LINE",
"14 36 LINE",
"14 0 LINE",
"638 0 LINE",
"638 36 LINE",
"430 36 LINE"
);
}
);
};
layerId = "EA94BB3F-1054-4F03-AAB6-69C3B81B3CC3";
paths = (
{
closed = 1;
nodes = (
"320 0 LINE",
"320 737 LINE",
"227 714 LINE",
"1173 714 LINE",
"1080 737 LINE",
"1080 0 LINE",
"1286 0 LINE",
"1286 1430 LINE",
"1080 1430 LINE",
"1080 727 LINE",
"1173 750 LINE",
"227 750 LINE",
"320 727 LINE",
"320 1430 LINE",
"114 1430 LINE",
"114 0 LINE"
);
}
);
width = 1400;
},
{
anchors = (
{
name = bottom;
position = "{705, 0}";
},
{
name = center;
position = "{705, 715}";
},
{
name = top;
position = "{705, 1430}";
},
{
name = topleft;
position = "{20, 1430}";
}
);
layerId = "1A84AFAC-8532-492C-A52A-D2ACD869B7F8";
paths = (
{
closed = 1;
nodes = (
"196 0 LINE",
"196 725 LINE",
"189 719 LINE",
"1221 719 LINE",
"1214 725 LINE",
"1214 0 LINE",
"1280 0 LINE",
"1280 1430 LINE",
"1214 1430 LINE",
"1214 739 LINE",
"1221 745 LINE",
"189 745 LINE",
"196 739 LINE",
"196 1430 LINE",
"130 1430 LINE",
"130 0 LINE"
);
}
);
width = 1410;
},
{
anchors = (
{
name = bottom;
position = "{749, 0}";
},
{
name = center;
position = "{749, 715}";
},
{
name = top;
position = "{749, 1430}";
},
{
name = topleft;
position = "{59, 1430}";
}
);
layerId = "16E03120-9D89-4B3A-B1E3-633A6E865927";
paths = (
{
closed = 1;
nodes = (
"434 -15 LINE",
"434 771 LINE",
"141 699 LINE",
"1357 699 LINE",
"1064 771 LINE",
"1064 -15 LINE",
"1400 -15 LINE",
"1400 1445 LINE",
"1064 1445 LINE",
"1064 693 LINE",
"1357 765 LINE",
"141 765 LINE",
"434 693 LINE",
"434 1445 LINE",
"98 1445 LINE",
"98 -15 LINE"
);
}
);
width = 1498;
},
{
anchors = (
{
name = bottom;
position = "{749, 0}";
},
{
name = center;
position = "{749, 715}";
},
{
name = top;
position = "{749, 1430}";
},
{
name = topleft;
position = "{59, 1430}";
}
);
layerId = "D5C24015-3945-4844-A39C-2F638D3E2004";
paths = (
{
closed = 1;
nodes = (
"434 -15 LINE",
"434 771 LINE",
"141 699 LINE",
"1357 699 LINE",
"1064 771 LINE",
"1064 -15 LINE",
"1400 -15 LINE",
"1400 1445 LINE",
"1064 1445 LINE",
"1064 693 LINE",
"1357 765 LINE",
"141 765 LINE",
"434 693 LINE",
"434 1445 LINE",
"98 1445 LINE",
"98 -15 LINE"
);
}
);
width = 1498;
},
{
anchors = (
{
name = bottom;
position = "{705, 0}";
},
{
name = center;
position = "{705, 715}";
},
{
name = top;
position = "{705, 1430}";
},
{
name = topleft;
position = "{20, 1430}";
}
);
layerId = "A518794E-5143-4302-A915-751D2A609FF0";
paths = (
{
closed = 1;
nodes = (
"196 0 LINE",
"196 725 LINE",
"189 719 LINE",
"1221 719 LINE",
"1214 725 LINE",
"1214 0 LINE",
"1280 0 LINE",
"1280 1430 LINE",
"1214 1430 LINE",
"1214 739 LINE",
"1221 745 LINE",
"189 745 LINE",
"196 739 LINE",
"196 1430 LINE",
"130 1430 LINE",
"130 0 LINE"
);
}
);
width = 1410;
},
{
anchors = (
{
name = bottom;
position = "{749, 0}";
},
{
name = center;
position = "{749, 715}";
},
{
name = top;
position = "{749, 1430}";
},
{
name = topleft;
position = "{59, 1430}";
}
);
layerId = "1D873E37-AF27-4769-9F86-9F16E4B4DD36";
paths = (
{
closed = 1;
nodes = (
"434 -15 LINE",
"434 771 LINE",
"141 699 LINE",
"1357 699 LINE",
"1064 771 LINE",
"1064 -15 LINE",
"1400 -15 LINE",
"1400 1445 LINE",
"1064 1445 LINE",
"1064 693 LINE",
"1357 765 LINE",
"141 765 LINE",
"434 693 LINE",
"434 1445 LINE",
"98 1445 LINE",
"98 -15 LINE"
);
}
);
width = 1498;
},
{
anchors = (
{
name = bottom;
position = "{705, 0}";
},
{
name = center;
position = "{705, 715}";
},
{
name = top;
position = "{705, 1430}";
},
{
name = topleft;
position = "{20, 1430}";
}
);
layerId = "092756DD-C6BD-4F67-9765-10D57923B42B";
paths = (
{
closed = 1;
nodes = (
"196 0 LINE",
"196 725 LINE",
"189 719 LINE",
"1221 719 LINE",
"1214 725 LINE",
"1214 0 LINE",
"1280 0 LINE",
"1280 1430 LINE",
"1214 1430 LINE",
"1214 739 LINE",
"1221 745 LINE",
"189 745 LINE",
"196 739 LINE",
"196 1430 LINE",
"130 1430 LINE",
"130 0 LINE"
);
}
);
width = 1410;
}
);
leftKerningGroup = H;
note = H;
rightKerningGroup = H;
unicode = 0048;
},
{
glyphname = Hbar;
lastChange = "2019-11-04 21:30:13 +0000";
layers = (
{
anchors = (
{
name = bottom;
position = "{742, 0}";
},
{
name = top;
position = "{742, 1430}";
}
);
background = {
paths = (
{
closed = 1;
nodes = (
"362 0 LINE",
"362 714 LINE",
"1122 714 LINE",
"1122 0 LINE",
"1328 0 LINE",
"1328 1430 LINE",
"1122 1430 LINE",
"1122 750 LINE",
"362 750 LINE",
"362 1430 LINE",
"156 1430 LINE",
"156 0 LINE"
);
}
);
};
components = (
{
name = H;
},
{
name = strokelongcomb.case;
transform = "{1, 0, 0, 1, -42, -1}";
}
);
layerId = "EA94BB3F-1054-4F03-AAB6-69C3B81B3CC3";
width = 1400;
},
{
anchors = (
{
name = bottom;
position = "{742, -5}";
},
{
name = top;
position = "{742, 1435}";
}
);
components = (
{
name = H;
},
{
name = strokelongcomb.case;
transform = "{1, 0, 0, 1, -37, 2}";
}
);
layerId = "1A84AFAC-8532-492C-A52A-D2ACD869B7F8";
width = 1410;
},
{
anchors = (
{
name = bottom;
position = "{742, 0}";
},
{
name = top;
position = "{742, 1430}";
}
);
components = (
{
name = H;
},
{
name = strokelongcomb.case;
transform = "{1, 0, 0, 1, 7, -1}";
}
);
layerId = "16E03120-9D89-4B3A-B1E3-633A6E865927";
width = 1498;
},
{
anchors = (
{
name = bottom;
position = "{742, 0}";
},
{
name = top;
position = "{742, 1430}";
}
);
components = (
{
name = H;
},
{
name = strokelongcomb.case;
transform = "{1, 0, 0, 1, 7, -1}";
}
);
layerId = "D5C24015-3945-4844-A39C-2F638D3E2004";
width = 1498;
},
{
anchors = (
{
name = bottom;
position = "{742, -5}";
},
{
name = top;
position = "{742, 1435}";
}
);
components = (
{
name = H;
},
{
name = strokelongcomb.case;
transform = "{1, 0, 0, 1, -37, 2}";
}
);
layerId = "A518794E-5143-4302-A915-751D2A609FF0";
width = 1410;
},
{
anchors = (
{
name = bottom;
position = "{742, 0}";
},
{
name = top;
position = "{742, 1430}";
}
);
components = (
{
name = H;
},
{
name = strokelongcomb.case;
transform = "{1, 0, 0, 1, 7, -1}";
}
);
layerId = "1D873E37-AF27-4769-9F86-9F16E4B4DD36";
width = 1498;
},
{
anchors = (
{
name = bottom;
position = "{742, -5}";
},
{
name = top;
position = "{742, 1435}";
}
);
components = (
{
name = H;
},
{
name = strokelongcomb.case;
transform = "{1, 0, 0, 1, -37, 2}";
}
);
layerId = "092756DD-C6BD-4F67-9765-10D57923B42B";
width = 1410;
}
);
leftKerningGroup = H;
rightKerningGroup = H;
unicode = 0126;
},
{
glyphname = I;
lastChange = "2019-11-04 21:30:13 +0000";
layers = (
{
anchors = (
{
name = bottom;
position = "{228, 0}";
},
{
name = ogonek;
position = "{414, 20}";
},
{
name = top;
position = "{228, 1430}";
}
);
background = {
paths = (
{
closed = 1;
nodes = (
"8 1334 LINE",
"8 1300 LINE",
"202 1300 LINE",
"202 34 LINE",
"8 34 LINE",
"8 0 LINE",
"596 0 LINE",
"596 34 LINE",
"402 34 LINE",
"402 1300 LINE",
"596 1300 LINE",
"596 1334 LINE"
);
}
);
};
layerId = "EA94BB3F-1054-4F03-AAB6-69C3B81B3CC3";
paths = (
{
closed = 1;
nodes = (
"330 0 LINE",
"330 1430 LINE",
"124 1430 LINE",
"124 0 LINE"
);
}
);
width = 454;
},
{
anchors = (
{
name = bottom;
position = "{228, -5}";
},
{
name = ogonek;
position = "{414, 15}";
},
{
name = top;
position = "{228, 1435}";
}
);
layerId = "1A84AFAC-8532-492C-A52A-D2ACD869B7F8";
paths = (
{
closed = 1;
nodes = (
"197 0 LINE",
"197 1430 LINE",
"257 1430 LINE",
"257 0 LINE"
);
}
);
width = 454;
},
{
anchors = (
{
name = bottom;
position = "{228, 0}";
},
{
name = ogonek;
position = "{414, 20}";
},
{
name = top;
position = "{228, 1430}";
}
);
layerId = "16E03120-9D89-4B3A-B1E3-633A6E865927";
paths = (
{
closed = 1;
nodes = (
"395 -15 LINE",
"395 1445 LINE",
"59 1445 LINE",
"59 -15 LINE"
);
}
);
width = 454;
},
{
anchors = (
{
name = bottom;
position = "{228, 0}";
},
{
name = ogonek;
position = "{414, 20}";
},
{
name = top;
position = "{228, 1430}";
}
);
layerId = "D5C24015-3945-4844-A39C-2F638D3E2004";
paths = (
{
closed = 1;
nodes = (
"395 -15 LINE",
"395 1445 LINE",
"59 1445 LINE",
"59 -15 LINE"
);
}
);
width = 454;
},
{
anchors = (
{
name = bottom;
position = "{228, -5}";
},
{
name = ogonek;
position = "{414, 15}";
},
{
name = top;
position = "{228, 1435}";
}
);
layerId = "A518794E-5143-4302-A915-751D2A609FF0";
paths = (
{
closed = 1;
nodes = (
"197 0 LINE",
"197 1430 LINE",
"257 1430 LINE",
"257 0 LINE"
);
}
);
width = 454;
},
{
anchors = (
{
name = bottom;
position = "{228, 0}";
},
{
name = ogonek;
position = "{414, 20}";
},
{
name = top;
position = "{228, 1430}";
}
);
layerId = "1D873E37-AF27-4769-9F86-9F16E4B4DD36";
paths = (
{
closed = 1;
nodes = (
"395 -15 LINE",
"395 1445 LINE",
"59 1445 LINE",
"59 -15 LINE"
);
}
);
width = 454;
},
{
anchors = (
{
name = bottom;
position = "{228, -5}";
},
{
name = ogonek;
position = "{414, 15}";
},
{
name = top;
position = "{228, 1435}";
}
);
layerId = "092756DD-C6BD-4F67-9765-10D57923B42B";
paths = (
{
closed = 1;
nodes = (
"197 0 LINE",
"197 1430 LINE",
"257 1430 LINE",
"257 0 LINE"
);
}
);
width = 454;
}
);
leftKerningGroup = H;
note = I;
rightKerningGroup = H;
unicode = 0049;
},
{
glyphname = J;
lastChange = "2019-11-04 21:30:13 +0000";
layers = (
{
anchors = (
{
name = bottom;
position = "{369, 0}";
},
{
name = top;
position = "{369, 1430}";
}
);
background = {
paths = (
{
closed = 1;
nodes = (
"736 1394 LINE",
"736 1430 LINE",
"110 1430 LINE",
"110 1394 LINE",
"318 1394 LINE",
"318 264 LINE SMOOTH",
"318 198 OFFCURVE",
"320 186 OFFCURVE",
"350 116 CURVE",
"368 76 LINE",
"376 58 OFFCURVE",
"380 40 OFFCURVE",
"380 22 CURVE SMOOTH",
"380 -56 OFFCURVE",
"322 -118 OFFCURVE",
"250 -118 CURVE SMOOTH",
"204 -118 OFFCURVE",
"154 -88 OFFCURVE",
"154 -60 CURVE SMOOTH",
"154 -54 OFFCURVE",
"158 -48 OFFCURVE",
"166 -46 CURVE SMOOTH",
"206 -32 OFFCURVE",
"206 -32 OFFCURVE",
"216 -24 CURVE",
"234 -6 OFFCURVE",
"246 22 OFFCURVE",
"246 48 CURVE SMOOTH",
"246 102 OFFCURVE",
"204 146 OFFCURVE",
"150 146 CURVE SMOOTH",
"86 146 OFFCURVE",
"40 94 OFFCURVE",
"40 24 CURVE SMOOTH",
"40 -80 OFFCURVE",
"130 -152 OFFCURVE",
"260 -152 CURVE SMOOTH",
"346 -152 OFFCURVE",
"416 -120 OFFCURVE",
"462 -60 CURVE SMOOTH",
"510 6 OFFCURVE",
"528 86 OFFCURVE",
"528 234 CURVE SMOOTH",
"528 1394 LINE"
);
}
);
};
layerId = "EA94BB3F-1054-4F03-AAB6-69C3B81B3CC3";
paths = (
{
closed = 1;
nodes = (
"49 -112 OFFCURVE",
"183 -152 OFFCURVE",
"279 -152 CURVE SMOOTH",
"488 -152 OFFCURVE",
"614 42 OFFCURVE",
"614 374 CURVE SMOOTH",
"614 1430 LINE",
"408 1430 LINE",
"408 336 LINE SMOOTH",
"408 -46 OFFCURVE",
"395 -98 OFFCURVE",
"300 -98 CURVE SMOOTH",
"172 -98 OFFCURVE",
"65 -5 OFFCURVE",
"-16 134 CURVE",
"-16 -24 LINE"
);
}
);
width = 738;
},
{
associatedMasterId = "EA94BB3F-1054-4F03-AAB6-69C3B81B3CC3";
background = {
paths = (
{
closed = 1;
nodes = (
"738 1394 LINE",
"738 1430 LINE",
"112 1430 LINE",
"112 1394 LINE",
"320 1394 LINE",
"320 264 LINE SMOOTH",
"320 198 OFFCURVE",
"322 186 OFFCURVE",
"352 116 CURVE",
"370 76 LINE",
"378 58 OFFCURVE",
"382 40 OFFCURVE",
"382 22 CURVE SMOOTH",
"382 -56 OFFCURVE",
"324 -118 OFFCURVE",
"252 -118 CURVE SMOOTH",
"206 -118 OFFCURVE",
"156 -88 OFFCURVE",
"156 -60 CURVE SMOOTH",
"156 -54 OFFCURVE",
"160 -48 OFFCURVE",
"168 -46 CURVE SMOOTH",
"208 -32 OFFCURVE",
"208 -32 OFFCURVE",
"218 -24 CURVE",
"236 -6 OFFCURVE",
"248 22 OFFCURVE",
"248 48 CURVE SMOOTH",
"248 102 OFFCURVE",
"206 146 OFFCURVE",
"152 146 CURVE SMOOTH",
"88 146 OFFCURVE",
"42 94 OFFCURVE",
"42 24 CURVE SMOOTH",
"42 -80 OFFCURVE",
"132 -152 OFFCURVE",
"262 -152 CURVE SMOOTH",
"348 -152 OFFCURVE",
"418 -120 OFFCURVE",
"464 -60 CURVE SMOOTH",
"512 6 OFFCURVE",
"530 86 OFFCURVE",
"530 234 CURVE SMOOTH",
"530 1394 LINE"
);
}
);
};
layerId = "5F3C60D3-57DE-4E92-8BCD-2FCE42A3C567";
name = guide;
paths = (
{
closed = 1;
nodes = (
"474 -152 OFFCURVE",
"616 -6 OFFCURVE",
"616 172 CURVE SMOOTH",
"616 346 OFFCURVE",
"474 492 OFFCURVE",
"296 492 CURVE SMOOTH",
"118 492 OFFCURVE",
"-24 346 OFFCURVE",
"-24 172 CURVE SMOOTH",
"-24 -6 OFFCURVE",
"118 -152 OFFCURVE",
"296 -152 CURVE SMOOTH"
);
}
);
width = 774;
},
{
anchors = (
{
name = bottom;
position = "{369, -4}";
},
{
name = top;
position = "{369, 1436}";
}
);
layerId = "1A84AFAC-8532-492C-A52A-D2ACD869B7F8";
paths = (
{
closed = 1;
nodes = (
"157 -130 OFFCURVE",
"230 -153 OFFCURVE",
"279 -153 CURVE SMOOTH",
"432 -153 OFFCURVE",
"494 -20 OFFCURVE",
"494 252 CURVE SMOOTH",
"494 1431 LINE",
"434 1431 LINE",
"434 164 LINE SMOOTH",
"434 -106 OFFCURVE",
"312 -118 OFFCURVE",
"280 -118 CURVE SMOOTH",
"214 -118 OFFCURVE",
"150 -67 OFFCURVE",
"104 7 CURVE",
"104 -57 LINE"
);
}
);
width = 738;
},
{
anchors = (
{
name = bottom;
position = "{369, 0}";
},
{
name = top;
position = "{369, 1430}";
}
);
layerId = "16E03120-9D89-4B3A-B1E3-633A6E865927";
paths = (
{
closed = 1;
nodes = (
"-50 -90 OFFCURVE",
"123 -167 OFFCURVE",
"279 -167 CURVE SMOOTH",
"527 -167 OFFCURVE",
"679 27 OFFCURVE",
"679 374 CURVE SMOOTH",
"679 1445 LINE",
"343 1445 LINE",
"343 336 LINE SMOOTH",
"343 -15 OFFCURVE",
"304 -83 OFFCURVE",
"240 -83 CURVE SMOOTH",
"190 -83 OFFCURVE",
"50 -42 OFFCURVE",
"-81 249 CURVE",
"-81 -10 LINE"
);
}
);
width = 738;
},
{
anchors = (
{
name = bottom;
position = "{369, 0}";
},
{
name = top;
position = "{369, 1430}";
}
);
layerId = "D5C24015-3945-4844-A39C-2F638D3E2004";
paths = (
{
closed = 1;
nodes = (
"-50 -90 OFFCURVE",
"123 -167 OFFCURVE",
"279 -167 CURVE SMOOTH",
"527 -167 OFFCURVE",
"679 27 OFFCURVE",
"679 374 CURVE SMOOTH",
"679 1445 LINE",
"343 1445 LINE",
"343 336 LINE SMOOTH",
"343 -15 OFFCURVE",
"304 -83 OFFCURVE",
"240 -83 CURVE SMOOTH",
"190 -83 OFFCURVE",
"50 -42 OFFCURVE",
"-81 249 CURVE",
"-81 -10 LINE"
);
}
);
width = 738;
},
{
anchors = (
{
name = bottom;
position = "{369, -4}";
},
{
name = top;
position = "{369, 1436}";
}
);
layerId = "A518794E-5143-4302-A915-751D2A609FF0";
paths = (
{
closed = 1;
nodes = (
"157 -130 OFFCURVE",
"230 -153 OFFCURVE",
"279 -153 CURVE SMOOTH",
"432 -153 OFFCURVE",
"494 -20 OFFCURVE",
"494 252 CURVE SMOOTH",
"494 1431 LINE",
"434 1431 LINE",
"434 164 LINE SMOOTH",
"434 -106 OFFCURVE",
"312 -118 OFFCURVE",
"280 -118 CURVE SMOOTH",
"214 -118 OFFCURVE",
"150 -67 OFFCURVE",
"104 7 CURVE",
"104 -57 LINE"
);
}
);
width = 738;
},
{
anchors = (
{
name = bottom;
position = "{369, 0}";
},
{
name = top;
position = "{369, 1430}";
}
);
layerId = "1D873E37-AF27-4769-9F86-9F16E4B4DD36";
paths = (
{
closed = 1;
nodes = (
"-50 -90 OFFCURVE",
"123 -167 OFFCURVE",
"279 -167 CURVE SMOOTH",
"527 -167 OFFCURVE",
"679 27 OFFCURVE",
"679 374 CURVE SMOOTH",
"679 1445 LINE",
"343 1445 LINE",
"343 336 LINE SMOOTH",
"343 -15 OFFCURVE",
"304 -83 OFFCURVE",
"240 -83 CURVE SMOOTH",
"190 -83 OFFCURVE",
"50 -42 OFFCURVE",
"-81 249 CURVE",
"-81 -10 LINE"
);
}
);
width = 738;
},
{
anchors = (
{
name = bottom;
position = "{369, -4}";
},
{
name = top;
position = "{369, 1436}";
}
);
layerId = "092756DD-C6BD-4F67-9765-10D57923B42B";
paths = (
{
closed = 1;
nodes = (
"157 -130 OFFCURVE",
"230 -153 OFFCURVE",
"279 -153 CURVE SMOOTH",
"432 -153 OFFCURVE",
"494 -20 OFFCURVE",
"494 252 CURVE SMOOTH",
"494 1431 LINE",
"434 1431 LINE",
"434 164 LINE SMOOTH",
"434 -106 OFFCURVE",
"312 -118 OFFCURVE",
"280 -118 CURVE SMOOTH",
"214 -118 OFFCURVE",
"150 -67 OFFCURVE",
"104 7 CURVE",
"104 -57 LINE"
);
}
);
width = 738;
}
);
leftKerningGroup = J;
note = J;
rightKerningGroup = J;
unicode = 004A;
},
{
glyphname = K;
lastChange = "2019-11-04 21:30:13 +0000";
layers = (
{
anchors = (
{
name = bottom;
position = "{629, 0}";
},
{
name = top;
position = "{629, 1430}";
}
);
background = {
paths = (
{
closed = 1;
nodes = (
"576 852 LINE",
"888 1132 LINE SMOOTH",
"992 1228 OFFCURVE",
"1112 1320 OFFCURVE",
"1190 1364 CURVE SMOOTH",
"1228 1384 OFFCURVE",
"1264 1394 OFFCURVE",
"1322 1394 CURVE SMOOTH",
"1436 1394 LINE",
"1436 1430 LINE",
"826 1430 LINE",
"826 1394 LINE",
"934 1394 LINE SMOOTH",
"1012 1394 OFFCURVE",
"1036 1384 OFFCURVE",
"1036 1354 CURVE SMOOTH",
"1036 1328 OFFCURVE",
"996 1278 OFFCURVE",
"928 1216 CURVE SMOOTH",
"394 736 LINE",
"394 1394 LINE",
"608 1394 LINE",
"608 1430 LINE",
"-22 1430 LINE",
"-22 1394 LINE",
"186 1394 LINE",
"186 36 LINE",
"-22 36 LINE",
"-22 0 LINE",
"620 0 LINE",
"620 36 LINE",
"394 36 LINE",
"394 688 LINE",
"420 712 LINE",
"978 36 LINE",
"776 36 LINE",
"776 0 LINE",
"1472 0 LINE",
"1472 36 LINE",
"1266 36 LINE"
);
}
);
};
layerId = "EA94BB3F-1054-4F03-AAB6-69C3B81B3CC3";
paths = (
{
closed = 1;
nodes = (
"320 0 LINE",
"320 1430 LINE",
"114 1430 LINE",
"114 0 LINE"
);
},
{
closed = 1;
nodes = (
"1056 1430 LINE",
"1008 1430 LINE",
"260 539 LINE",
"261 481 LINE"
);
},
{
closed = 1;
nodes = (
"1288 0 LINE",
"564 863 LINE",
"428 703 LINE",
"1016 0 LINE"
);
}
);
width = 1268;
},
{
anchors = (
{
name = bottom;
position = "{639, 0}";
},
{
name = top;
position = "{639, 1430}";
}
);
layerId = "1A84AFAC-8532-492C-A52A-D2ACD869B7F8";
paths = (
{
closed = 1;
nodes = (
"257 0 LINE",
"257 1430 LINE",
"197 1430 LINE",
"197 0 LINE"
);
},
{
closed = 1;
nodes = (
"1123 1430 LINE",
"1092 1430 LINE",
"238 410 LINE",
"226 361 LINE"
);
},
{
closed = 1;
nodes = (
"1192 0 LINE",
"550 766 LINE",
"516 727 LINE",
"1119 0 LINE"
);
}
);
width = 1278;
},
{
anchors = (
{
name = bottom;
position = "{678, 0}";
},
{
name = top;
position = "{678, 1430}";
}
);
guideLines = (
{
angle = 50.0776;
position = "{893, 1108}";
}
);
layerId = "16E03120-9D89-4B3A-B1E3-633A6E865927";
paths = (
{
closed = 1;
nodes = (
"434 -15 LINE",
"434 1445 LINE",
"98 1445 LINE",
"98 -15 LINE"
);
},
{
closed = 1;
nodes = (
"1175 1445 LINE",
"1012 1445 LINE",
"259 549 LINE",
"348 483 LINE"
);
},
{
closed = 1;
nodes = (
"1407 -15 LINE",
"604 943 LINE",
"420 702 LINE",
"1020 -15 LINE"
);
}
);
width = 1317;
},
{
anchors = (
{
name = bottom;
position = "{678, 0}";
},
{
name = top;
position = "{678, 1430}";
}
);
guideLines = (
{
angle = 50.0776;
position = "{893, 1108}";
}
);
layerId = "D5C24015-3945-4844-A39C-2F638D3E2004";
paths = (
{
closed = 1;
nodes = (
"434 -15 LINE",
"434 1445 LINE",
"98 1445 LINE",
"98 -15 LINE"
);
},
{
closed = 1;
nodes = (
"1175 1445 LINE",
"1012 1445 LINE",
"259 549 LINE",
"348 483 LINE"
);
},
{
closed = 1;
nodes = (
"1407 -15 LINE",
"604 943 LINE",
"420 702 LINE",
"1020 -15 LINE"
);
}
);
width = 1317;
},
{
anchors = (
{
name = bottom;
position = "{639, 0}";
},
{
name = top;
position = "{639, 1430}";
}
);
layerId = "A518794E-5143-4302-A915-751D2A609FF0";
paths = (
{
closed = 1;
nodes = (
"257 0 LINE",
"257 1430 LINE",
"197 1430 LINE",
"197 0 LINE"
);
},
{
closed = 1;
nodes = (
"1123 1430 LINE",
"1092 1430 LINE",
"238 410 LINE",
"226 361 LINE"
);
},
{
closed = 1;
nodes = (
"1192 0 LINE",
"550 766 LINE",
"516 727 LINE",
"1119 0 LINE"
);
}
);
width = 1278;
},
{
anchors = (
{
name = bottom;
position = "{678, 0}";
},
{
name = top;
position = "{678, 1430}";
}
);
guideLines = (
{
angle = 50.0776;
position = "{893, 1108}";
}
);
layerId = "1D873E37-AF27-4769-9F86-9F16E4B4DD36";
paths = (
{
closed = 1;
nodes = (
"434 -15 LINE",
"434 1445 LINE",
"98 1445 LINE",
"98 -15 LINE"
);
},
{
closed = 1;
nodes = (
"1175 1445 LINE",
"1012 1445 LINE",
"259 549 LINE",
"348 483 LINE"
);
},
{
closed = 1;
nodes = (
"1407 -15 LINE",
"604 943 LINE",
"420 702 LINE",
"1020 -15 LINE"
);
}
);
width = 1317;
},
{
anchors = (
{
name = bottom;
position = "{639, 0}";
},
{
name = top;
position = "{639, 1430}";
}
);
layerId = "092756DD-C6BD-4F67-9765-10D57923B42B";
paths = (
{
closed = 1;
nodes = (
"257 0 LINE",
"257 1430 LINE",
"197 1430 LINE",
"197 0 LINE"
);
},
{
closed = 1;
nodes = (
"1123 1430 LINE",
"1092 1430 LINE",
"238 410 LINE",
"226 361 LINE"
);
},
{
closed = 1;
nodes = (
"1192 0 LINE",
"550 766 LINE",
"516 727 LINE",
"1119 0 LINE"
);
}
);
width = 1278;
}
);
leftKerningGroup = H;
note = K;
rightKerningGroup = K;
unicode = 004B;
},
{
glyphname = L;
lastChange = "2019-11-04 21:30:13 +0000";
layers = (
{
anchors = (
{
name = bottom;
position = "{498, 0}";
},
{
name = center;
position = "{498, 716}";
},
{
name = top;
position = "{318, 1430}";
},
{
name = topright;
position = "{386, 1430}";
}
);
background = {
paths = (
{
closed = 1;
nodes = (
"1258 440 LINE",
"1224 440 LINE",
"1224 354 LINE SMOOTH",
"1224 210 OFFCURVE",
"1182 126 OFFCURVE",
"1088 82 CURVE SMOOTH",
"1016 48 OFFCURVE",
"892 34 OFFCURVE",
"664 34 CURVE SMOOTH",
"464 34 LINE",
"464 1300 LINE",
"686 1300 LINE",
"686 1334 LINE",
"76 1334 LINE",
"76 1300 LINE",
"270 1300 LINE",
"270 34 LINE",
"76 34 LINE",
"76 0 LINE",
"1258 0 LINE"
);
}
);
};
layerId = "EA94BB3F-1054-4F03-AAB6-69C3B81B3CC3";
paths = (
{
closed = 1;
nodes = (
"904 0 LINE",
"904 36 LINE",
"227 36 LINE",
"320 13 LINE",
"320 1430 LINE",
"114 1430 LINE",
"114 0 LINE"
);
}
);
width = 954;
},
{
anchors = (
{
name = bottom;
position = "{508, 0}";
},
{
name = center;
position = "{508, 716}";
},
{
name = top;
position = "{328, 1430}";
},
{
name = topright;
position = "{396, 1430}";
}
);
layerId = "1A84AFAC-8532-492C-A52A-D2ACD869B7F8";
paths = (
{
closed = 1;
nodes = (
"781 0 LINE",
"781 26 LINE",
"189 26 LINE",
"217 14 LINE",
"217 1430 LINE",
"157 1430 LINE",
"157 0 LINE"
);
}
);
width = 964;
},
{
anchors = (
{
name = bottom;
position = "{547, 0}";
},
{
name = center;
position = "{547, 716}";
},
{
name = top;
position = "{367, 1430}";
},
{
name = topright;
position = "{545, 1430}";
}
);
layerId = "16E03120-9D89-4B3A-B1E3-633A6E865927";
paths = (
{
closed = 1;
nodes = (
"1018 -15 LINE",
"1018 51 LINE",
"141 51 LINE",
"434 9 LINE",
"434 1445 LINE",
"98 1445 LINE",
"98 -15 LINE"
);
}
);
width = 1003;
},
{
anchors = (
{
name = bottom;
position = "{547, 0}";
},
{
name = center;
position = "{547, 716}";
},
{
name = top;
position = "{367, 1430}";
},
{
name = topright;
position = "{545, 1430}";
}
);
layerId = "D5C24015-3945-4844-A39C-2F638D3E2004";
paths = (
{
closed = 1;
nodes = (
"1018 -15 LINE",
"1018 51 LINE",
"141 51 LINE",
"434 9 LINE",
"434 1445 LINE",
"98 1445 LINE",
"98 -15 LINE"
);
}
);
width = 1003;
},
{
anchors = (
{
name = bottom;
position = "{508, 0}";
},
{
name = center;
position = "{508, 716}";
},
{
name = top;
position = "{328, 1430}";
},
{
name = topright;
position = "{396, 1430}";
}
);
layerId = "A518794E-5143-4302-A915-751D2A609FF0";
paths = (
{
closed = 1;
nodes = (
"781 0 LINE",
"781 26 LINE",
"189 26 LINE",
"217 14 LINE",
"217 1430 LINE",
"157 1430 LINE",
"157 0 LINE"
);
}
);
width = 964;
},
{
anchors = (
{
name = bottom;
position = "{547, 0}";
},
{
name = center;
position = "{547, 716}";
},
{
name = top;
position = "{367, 1430}";
},
{
name = topright;
position = "{545, 1430}";
}
);
layerId = "1D873E37-AF27-4769-9F86-9F16E4B4DD36";
paths = (
{
closed = 1;
nodes = (
"1018 -15 LINE",
"1018 51 LINE",
"141 51 LINE",
"434 9 LINE",
"434 1445 LINE",
"98 1445 LINE",
"98 -15 LINE"
);
}
);
width = 1003;
},
{
anchors = (
{
name = bottom;
position = "{508, 0}";
},
{
name = center;
position = "{508, 716}";
},
{
name = top;
position = "{328, 1430}";
},
{
name = topright;
position = "{396, 1430}";
}
);
layerId = "092756DD-C6BD-4F67-9765-10D57923B42B";
paths = (
{
closed = 1;
nodes = (
"781 0 LINE",
"781 26 LINE",
"189 26 LINE",
"217 14 LINE",
"217 1430 LINE",
"157 1430 LINE",
"157 0 LINE"
);
}
);
width = 964;
}
);
leftKerningGroup = H;
note = L;
rightKerningGroup = L;
unicode = 004C;
},
{
glyphname = Lslash;
lastChange = "2019-11-04 21:30:13 +0000";
layers = (
{
background = {
paths = (
{
closed = 1;
nodes = (
"276 626 LINE",
"90 482 LINE",
"90 430 LINE",
"276 572 LINE",
"276 34 LINE",
"82 34 LINE",
"82 0 LINE",
"1264 0 LINE",
"1264 440 LINE",
"1230 440 LINE",
"1230 354 LINE SMOOTH",
"1230 210 OFFCURVE",
"1188 126 OFFCURVE",
"1094 82 CURVE SMOOTH",
"1022 48 OFFCURVE",
"900 34 OFFCURVE",
"670 34 CURVE SMOOTH",
"470 34 LINE",
"470 702 LINE",
"774 936 LINE",
"774 992 LINE",
"470 758 LINE",
"470 1300 LINE",
"692 1300 LINE",
"692 1334 LINE",
"82 1334 LINE",
"82 1300 LINE",
"276 1300 LINE"
);
}
);
};
components = (
{
name = L;
},
{
name = slashshortcomb;
transform = "{1, 0, 0, 1, 150, 6}";
}
);
layerId = "EA94BB3F-1054-4F03-AAB6-69C3B81B3CC3";
width = 954;
},
{
components = (
{
name = L;
},
{
name = slashshortcomb;
transform = "{1, 0, 0, 1, 240, 6}";
}
);
layerId = "1A84AFAC-8532-492C-A52A-D2ACD869B7F8";
width = 964;
},
{
components = (
{
name = L;
},
{
name = slashshortcomb;
transform = "{1, 0, 0, 1, 141, 6}";
}
);
layerId = "16E03120-9D89-4B3A-B1E3-633A6E865927";
width = 1003;
},
{
components = (
{
name = L;
},
{
name = slashshortcomb;
transform = "{1, 0, 0, 1, 141, 6}";
}
);
layerId = "D5C24015-3945-4844-A39C-2F638D3E2004";
width = 1003;
},
{
components = (
{
name = L;
},
{
name = slashshortcomb;
transform = "{1, 0, 0, 1, 240, 6}";
}
);
layerId = "A518794E-5143-4302-A915-751D2A609FF0";
width = 964;
},
{
components = (
{
name = L;
},
{
name = slashshortcomb;
transform = "{1, 0, 0, 1, 141, 6}";
}
);
layerId = "1D873E37-AF27-4769-9F86-9F16E4B4DD36";
width = 1003;
},
{
components = (
{
name = L;
},
{
name = slashshortcomb;
transform = "{1, 0, 0, 1, 240, 6}";
}
);
layerId = "092756DD-C6BD-4F67-9765-10D57923B42B";
width = 964;
}
);
leftKerningGroup = H;
note = Lslash;
rightKerningGroup = L;
unicode = 0141;
},
{
glyphname = M;
lastChange = "2019-11-04 21:30:13 +0000";
layers = (
{
anchors = (
{
name = bottom;
position = "{771, 0}";
},
{
name = top;
position = "{771, 1430}";
}
);
background = {
paths = (
{
closed = 1;
nodes = (
"150 0 LINE",
"150 1304 LINE",
"680 58 LINE",
"1222 1340 LINE",
"1222 0 LINE",
"1428 0 LINE",
"1428 1430 LINE",
"1222 1430 LINE",
"770 368 LINE",
"320 1430 LINE",
"114 1430 LINE",
"114 0 LINE"
);
}
);
};
layerId = "EA94BB3F-1054-4F03-AAB6-69C3B81B3CC3";
paths = (
{
closed = 1;
nodes = (
"150 0 LINE",
"150 1357 LINE",
"129 1353 LINE",
"680 58 LINE",
"1243 1390 LINE",
"1222 1393 LINE",
"1222 0 LINE",
"1428 0 LINE",
"1428 1430 LINE",
"1222 1430 LINE",
"758 340 LINE",
"785 333 LINE",
"320 1430 LINE",
"114 1430 LINE",
"114 0 LINE"
);
}
);
width = 1542;
},
{
anchors = (
{
name = bottom;
position = "{712, 0}";
},
{
name = top;
position = "{712, 1430}";
}
);
guideLines = (
{
angle = 112.9199;
position = "{333, 856}";
},
{
angle = 247.1086;
position = "{931, 711}";
},
{
angle = 111.5953;
position = "{477, 730}";
},
{
angle = 248.2128;
position = "{1030, 730}";
},
{
angle = 68.3561;
position = "{990, 689}";
},
{
angle = -67.1343;
position = "{413, 712}";
}
);
layerId = "1A84AFAC-8532-492C-A52A-D2ACD869B7F8";
paths = (
{
closed = 1;
nodes = (
"136 5 LINE",
"136 1417 LINE",
"118 1413 LINE",
"715 76 LINE",
"1271 1404 LINE",
"1254 1407 LINE",
"1254 5 LINE",
"1314 5 LINE",
"1314 1430 LINE",
"1254 1430 LINE",
"722 168 LINE",
"749 186 LINE",
"194 1430 LINE",
"110 1430 LINE",
"110 5 LINE"
);
}
);
width = 1424;
},
{
anchors = (
{
name = bottom;
position = "{820, 0}";
},
{
name = top;
position = "{820, 1430}";
}
);
layerId = "16E03120-9D89-4B3A-B1E3-633A6E865927";
paths = (
{
closed = 1;
nodes = (
"264 -15 LINE",
"264 1386 LINE",
"140 1346 LINE",
"739 31 LINE",
"1347 1398 LINE",
"1206 1418 LINE",
"1206 -15 LINE",
"1542 -15 LINE",
"1542 1445 LINE",
"1215 1445 LINE",
"744 338 LINE",
"865 408 LINE",
"425 1445 LINE",
"98 1445 LINE",
"98 -15 LINE"
);
}
);
width = 1640;
},
{
anchors = (
{
name = bottom;
position = "{820, 0}";
},
{
name = top;
position = "{820, 1430}";
}
);
layerId = "D5C24015-3945-4844-A39C-2F638D3E2004";
paths = (
{
closed = 1;
nodes = (
"264 -15 LINE",
"264 1386 LINE",
"140 1346 LINE",
"739 31 LINE",
"1347 1398 LINE",
"1206 1418 LINE",
"1206 -15 LINE",
"1542 -15 LINE",
"1542 1445 LINE",
"1215 1445 LINE",
"744 338 LINE",
"865 408 LINE",
"425 1445 LINE",
"98 1445 LINE",
"98 -15 LINE"
);
}
);
width = 1640;
},
{
anchors = (
{
name = bottom;
position = "{712, 0}";
},
{
name = top;
position = "{712, 1430}";
}
);
guideLines = (
{
angle = 112.9199;
position = "{333, 856}";
},
{
angle = 247.1086;
position = "{931, 711}";
},
{
angle = 111.5953;
position = "{477, 730}";
},
{
angle = 248.2128;
position = "{1030, 730}";
},
{
angle = 68.3561;
position = "{990, 689}";
},
{
angle = -67.1343;
position = "{413, 712}";
}
);
layerId = "A518794E-5143-4302-A915-751D2A609FF0";
paths = (
{
closed = 1;
nodes = (
"136 5 LINE",
"136 1417 LINE",
"118 1413 LINE",
"715 76 LINE",
"1271 1404 LINE",
"1254 1407 LINE",
"1254 5 LINE",
"1314 5 LINE",
"1314 1430 LINE",
"1254 1430 LINE",
"722 168 LINE",
"749 186 LINE",
"194 1430 LINE",
"110 1430 LINE",
"110 5 LINE"
);
}
);
width = 1424;
},
{
anchors = (
{
name = bottom;
position = "{820, 0}";
},
{
name = top;
position = "{820, 1430}";
}
);
layerId = "1D873E37-AF27-4769-9F86-9F16E4B4DD36";
paths = (
{
closed = 1;
nodes = (
"264 -15 LINE",
"264 1386 LINE",
"140 1346 LINE",
"739 31 LINE",
"1347 1398 LINE",
"1206 1418 LINE",
"1206 -15 LINE",
"1542 -15 LINE",
"1542 1445 LINE",
"1215 1445 LINE",
"744 338 LINE",
"865 408 LINE",
"425 1445 LINE",
"98 1445 LINE",
"98 -15 LINE"
);
}
);
width = 1640;
},
{
anchors = (
{
name = bottom;
position = "{712, 0}";
},
{
name = top;
position = "{712, 1430}";
}
);
guideLines = (
{
angle = 112.9199;
position = "{333, 856}";
},
{
angle = 247.1086;
position = "{931, 711}";
},
{
angle = 111.5953;
position = "{477, 730}";
},
{
angle = 248.2128;
position = "{1030, 730}";
},
{
angle = 68.3561;
position = "{990, 689}";
},
{
angle = -67.1343;
position = "{413, 712}";
}
);
layerId = "092756DD-C6BD-4F67-9765-10D57923B42B";
paths = (
{
closed = 1;
nodes = (
"136 5 LINE",
"136 1417 LINE",
"118 1413 LINE",
"715 76 LINE",
"1271 1404 LINE",
"1254 1407 LINE",
"1254 5 LINE",
"1314 5 LINE",
"1314 1430 LINE",
"1254 1430 LINE",
"722 168 LINE",
"749 186 LINE",
"194 1430 LINE",
"110 1430 LINE",
"110 5 LINE"
);
}
);
width = 1424;
}
);
leftKerningGroup = M;
note = M;
rightKerningGroup = M;
unicode = 004D;
},
{
glyphname = N;
lastChange = "2019-11-04 21:30:13 +0000";
layers = (
{
anchors = (
{
name = bottom;
position = "{641, 0}";
},
{
name = top;
position = "{641, 1430}";
}
);
background = {
paths = (
{
closed = 1;
nodes = (
"12 36 LINE",
"12 0 LINE",
"476 0 LINE",
"476 36 LINE",
"416 36 LINE SMOOTH",
"262 36 OFFCURVE",
"254 50 OFFCURVE",
"254 264 CURVE SMOOTH",
"254 1330 LINE",
"1308 -10 LINE",
"1322 -10 LINE",
"1322 1216 LINE SMOOTH",
"1322 1394 OFFCURVE",
"1322 1394 OFFCURVE",
"1470 1394 CURVE SMOOTH",
"1530 1394 LINE",
"1530 1430 LINE",
"1070 1430 LINE",
"1070 1394 LINE",
"1130 1394 LINE SMOOTH",
"1284 1394 OFFCURVE",
"1288 1392 OFFCURVE",
"1288 1216 CURVE SMOOTH",
"1288 376 LINE",
"454 1430 LINE",
"12 1430 LINE",
"12 1394 LINE",
"182 1394 LINE",
"220 1368 LINE",
"220 264 LINE SMOOTH",
"220 108 OFFCURVE",
"220 102 OFFCURVE",
"200 70 CURVE",
"182 46 OFFCURVE",
"158 36 OFFCURVE",
"82 36 CURVE SMOOTH"
);
}
);
};
layerId = "EA94BB3F-1054-4F03-AAB6-69C3B81B3CC3";
paths = (
{
closed = 1;
nodes = (
"146 0 LINE",
"146 1255 LINE",
"127 1185 LINE",
"1073 0 LINE",
"1168 0 LINE",
"1168 1430 LINE",
"1136 1430 LINE",
"1136 179 LINE",
"1158 245 LINE",
"213 1430 LINE",
"114 1430 LINE",
"114 0 LINE"
);
}
);
width = 1282;
},
{
anchors = (
{
name = bottom;
position = "{681, 0}";
},
{
name = top;
position = "{681, 1430}";
}
);
layerId = "1A84AFAC-8532-492C-A52A-D2ACD869B7F8";
paths = (
{
closed = 1;
nodes = (
"156 5 LINE",
"156 1413 LINE",
"135 1417 LINE",
"1159 0 LINE",
"1232 0 LINE",
"1232 1430 LINE",
"1206 1430 LINE",
"1206 5 LINE",
"1224 24 LINE",
"214 1430 LINE",
"130 1430 LINE",
"130 5 LINE"
);
}
);
width = 1362;
},
{
anchors = (
{
name = bottom;
position = "{690, 0}";
},
{
name = top;
position = "{690, 1430}";
}
);
layerId = "16E03120-9D89-4B3A-B1E3-633A6E865927";
paths = (
{
closed = 1;
nodes = (
"260 -15 LINE",
"260 1310 LINE",
"114 1190 LINE",
"1076 -15 LINE",
"1282 -15 LINE",
"1282 1445 LINE",
"1120 1445 LINE",
"1120 94 LINE",
"1269 241 LINE",
"308 1445 LINE",
"98 1445 LINE",
"98 -15 LINE"
);
}
);
width = 1380;
},
{
anchors = (
{
name = bottom;
position = "{690, 0}";
},
{
name = top;
position = "{690, 1430}";
}
);
layerId = "D5C24015-3945-4844-A39C-2F638D3E2004";
paths = (
{
closed = 1;
nodes = (
"260 -15 LINE",
"260 1310 LINE",
"114 1190 LINE",
"1076 -15 LINE",
"1282 -15 LINE",
"1282 1445 LINE",
"1120 1445 LINE",
"1120 94 LINE",
"1269 241 LINE",
"308 1445 LINE",
"98 1445 LINE",
"98 -15 LINE"
);
}
);
width = 1380;
},
{
anchors = (
{
name = bottom;
position = "{681, 0}";
},
{
name = top;
position = "{681, 1430}";
}
);
layerId = "A518794E-5143-4302-A915-751D2A609FF0";
paths = (
{
closed = 1;
nodes = (
"156 5 LINE",
"156 1413 LINE",
"135 1417 LINE",
"1159 0 LINE",
"1232 0 LINE",
"1232 1430 LINE",
"1206 1430 LINE",
"1206 5 LINE",
"1224 24 LINE",
"214 1430 LINE",
"130 1430 LINE",
"130 5 LINE"
);
}
);
width = 1362;
},
{
anchors = (
{
name = bottom;
position = "{690, 0}";
},
{
name = top;
position = "{690, 1430}";
}
);
layerId = "1D873E37-AF27-4769-9F86-9F16E4B4DD36";
paths = (
{
closed = 1;
nodes = (
"260 -15 LINE",
"260 1310 LINE",
"114 1190 LINE",
"1076 -15 LINE",
"1282 -15 LINE",
"1282 1445 LINE",
"1120 1445 LINE",
"1120 94 LINE",
"1269 241 LINE",
"308 1445 LINE",
"98 1445 LINE",
"98 -15 LINE"
);
}
);
width = 1380;
},
{
anchors = (
{
name = bottom;
position = "{681, 0}";
},
{
name = top;
position = "{681, 1430}";
}
);
layerId = "092756DD-C6BD-4F67-9765-10D57923B42B";
paths = (
{
closed = 1;
nodes = (
"156 5 LINE",
"156 1413 LINE",
"135 1417 LINE",
"1159 0 LINE",
"1232 0 LINE",
"1232 1430 LINE",
"1206 1430 LINE",
"1206 5 LINE",
"1224 24 LINE",
"214 1430 LINE",
"130 1430 LINE",
"130 5 LINE"
);
}
);
width = 1362;
}
);
leftKerningGroup = H;
leftMetricsKey = H;
note = N;
rightKerningGroup = H;
rightMetricsKey = H;
unicode = 004E;
},
{
glyphname = Eng;
lastChange = "2019-11-04 21:30:13 +0000";
layers = (
{
background = {
paths = (
{
closed = 1;
nodes = (
"146 0 LINE",
"146 1162 LINE",
"999 92 LINE SMOOTH",
"1064 10 OFFCURVE",
"1095 -28 OFFCURVE",
"1095 -142 CURVE SMOOTH",
"1095 -244 OFFCURVE",
"1071 -366 OFFCURVE",
"978 -366 CURVE SMOOTH",
"968 -366 LINE",
"956 -366 LINE SMOOTH",
"867 -366 OFFCURVE",
"796 -310 OFFCURVE",
"731 -199 CURVE",
"731 -308 LINE",
"761 -348 OFFCURVE",
"823 -396 OFFCURVE",
"969 -396 CURVE SMOOTH",
"1111 -396 OFFCURVE",
"1168 -254 OFFCURVE",
"1168 -112 CURVE SMOOTH",
"1168 1430 LINE",
"1136 1430 LINE",
"1136 272 LINE",
"213 1430 LINE",
"114 1430 LINE",
"114 0 LINE"
);
}
);
};
layerId = "EA94BB3F-1054-4F03-AAB6-69C3B81B3CC3";
paths = (
{
closed = 1;
nodes = (
"1124 -396 OFFCURVE",
"1168 -254 OFFCURVE",
"1168 -112 CURVE SMOOTH",
"1168 1430 LINE",
"1136 1430 LINE",
"1136 272 LINE",
"213 1430 LINE",
"114 1430 LINE",
"114 0 LINE",
"146 0 LINE",
"146 1255 LINE",
"139 1170 LINE",
"999 92 LINE SMOOTH",
"1069 5 OFFCURVE",
"1095 -14 OFFCURVE",
"1095 -146 CURVE SMOOTH",
"1095 -308 OFFCURVE",
"1050 -366 OFFCURVE",
"957 -366 CURVE SMOOTH",
"864 -366 OFFCURVE",
"794 -308 OFFCURVE",
"731 -199 CURVE",
"731 -308 LINE",
"759 -351 OFFCURVE",
"846 -396 OFFCURVE",
"946 -396 CURVE SMOOTH"
);
}
);
width = 1280;
},
{
layerId = "1A84AFAC-8532-492C-A52A-D2ACD869B7F8";
paths = (
{
closed = 1;
nodes = (
"1146 -353 OFFCURVE",
"1232 -245 OFFCURVE",
"1232 -100 CURVE SMOOTH",
"1232 1430 LINE",
"1206 1430 LINE",
"1206 50 LINE",
"214 1430 LINE",
"130 1430 LINE",
"130 5 LINE",
"156 5 LINE",
"156 1413 LINE",
"140 1410 LINE",
"1159 0 LINE SMOOTH",
"1186 -38 OFFCURVE",
"1196 -56 OFFCURVE",
"1196 -106 CURVE SMOOTH",
"1196 -285 OFFCURVE",
"1066 -318 OFFCURVE",
"1018 -318 CURVE SMOOTH",
"959 -318 OFFCURVE",
"888 -267 OFFCURVE",
"842 -193 CURVE",
"842 -257 LINE",
"895 -330 OFFCURVE",
"957 -353 OFFCURVE",
"1017 -353 CURVE SMOOTH"
);
}
);
width = 1362;
},
{
layerId = "16E03120-9D89-4B3A-B1E3-633A6E865927";
paths = (
{
closed = 1;
nodes = (
"1162 -411 OFFCURVE",
"1282 -311 OFFCURVE",
"1282 -112 CURVE SMOOTH",
"1282 1445 LINE",
"1120 1445 LINE",
"1120 427 LINE",
"308 1445 LINE",
"98 1445 LINE",
"98 -15 LINE",
"260 -15 LINE",
"260 1052 LINE",
"232 1042 LINE",
"997 83 LINE SMOOTH",
"1052 14 OFFCURVE",
"1079 -30 OFFCURVE",
"1079 -146 CURVE SMOOTH",
"1079 -298 OFFCURVE",
"1032 -351 OFFCURVE",
"976 -351 CURVE SMOOTH",
"930 -351 OFFCURVE",
"833 -316 OFFCURVE",
"715 -92 CURVE",
"715 -300 LINE",
"746 -348 OFFCURVE",
"845 -411 OFFCURVE",
"985 -411 CURVE SMOOTH"
);
}
);
width = 1329;
},
{
layerId = "D5C24015-3945-4844-A39C-2F638D3E2004";
paths = (
{
closed = 1;
nodes = (
"1162 -411 OFFCURVE",
"1282 -311 OFFCURVE",
"1282 -112 CURVE SMOOTH",
"1282 1445 LINE",
"1120 1445 LINE",
"1120 427 LINE",
"308 1445 LINE",
"98 1445 LINE",
"98 -15 LINE",
"260 -15 LINE",
"260 1052 LINE",
"232 1042 LINE",
"997 83 LINE SMOOTH",
"1052 14 OFFCURVE",
"1079 -30 OFFCURVE",
"1079 -146 CURVE SMOOTH",
"1079 -298 OFFCURVE",
"1032 -351 OFFCURVE",
"976 -351 CURVE SMOOTH",
"930 -351 OFFCURVE",
"833 -316 OFFCURVE",
"715 -92 CURVE",
"715 -300 LINE",
"746 -348 OFFCURVE",
"845 -411 OFFCURVE",
"985 -411 CURVE SMOOTH"
);
}
);
width = 1329;
},
{
layerId = "A518794E-5143-4302-A915-751D2A609FF0";
paths = (
{
closed = 1;
nodes = (
"1146 -353 OFFCURVE",
"1232 -245 OFFCURVE",
"1232 -100 CURVE SMOOTH",
"1232 1430 LINE",
"1206 1430 LINE",
"1206 50 LINE",
"214 1430 LINE",
"130 1430 LINE",
"130 5 LINE",
"156 5 LINE",
"156 1413 LINE",
"140 1410 LINE",
"1159 0 LINE SMOOTH",
"1186 -38 OFFCURVE",
"1196 -56 OFFCURVE",
"1196 -106 CURVE SMOOTH",
"1196 -285 OFFCURVE",
"1066 -318 OFFCURVE",
"1018 -318 CURVE SMOOTH",
"959 -318 OFFCURVE",
"888 -267 OFFCURVE",
"842 -193 CURVE",
"842 -257 LINE",
"895 -330 OFFCURVE",
"957 -353 OFFCURVE",
"1017 -353 CURVE SMOOTH"
);
}
);
width = 1362;
},
{
layerId = "1D873E37-AF27-4769-9F86-9F16E4B4DD36";
paths = (
{
closed = 1;
nodes = (
"1162 -411 OFFCURVE",
"1282 -311 OFFCURVE",
"1282 -112 CURVE SMOOTH",
"1282 1445 LINE",
"1120 1445 LINE",
"1120 427 LINE",
"308 1445 LINE",
"98 1445 LINE",
"98 -15 LINE",
"260 -15 LINE",
"260 1052 LINE",
"232 1042 LINE",
"997 83 LINE SMOOTH",
"1052 14 OFFCURVE",
"1079 -30 OFFCURVE",
"1079 -146 CURVE SMOOTH",
"1079 -298 OFFCURVE",
"1032 -351 OFFCURVE",
"976 -351 CURVE SMOOTH",
"930 -351 OFFCURVE",
"833 -316 OFFCURVE",
"715 -92 CURVE",
"715 -300 LINE",
"746 -348 OFFCURVE",
"845 -411 OFFCURVE",
"985 -411 CURVE SMOOTH"
);
}
);
width = 1329;
},
{
layerId = "092756DD-C6BD-4F67-9765-10D57923B42B";
paths = (
{
closed = 1;
nodes = (
"1146 -353 OFFCURVE",
"1232 -245 OFFCURVE",
"1232 -100 CURVE SMOOTH",
"1232 1430 LINE",
"1206 1430 LINE",
"1206 50 LINE",
"214 1430 LINE",
"130 1430 LINE",
"130 5 LINE",
"156 5 LINE",
"156 1413 LINE",
"140 1410 LINE",
"1159 0 LINE SMOOTH",
"1186 -38 OFFCURVE",
"1196 -56 OFFCURVE",
"1196 -106 CURVE SMOOTH",
"1196 -285 OFFCURVE",
"1066 -318 OFFCURVE",
"1018 -318 CURVE SMOOTH",
"959 -318 OFFCURVE",
"888 -267 OFFCURVE",
"842 -193 CURVE",
"842 -257 LINE",
"895 -330 OFFCURVE",
"957 -353 OFFCURVE",
"1017 -353 CURVE SMOOTH"
);
}
);
width = 1362;
}
);
leftKerningGroup = Eng;
rightKerningGroup = Eng;
unicode = 014A;
},
{
glyphname = Ntilde;
lastChange = "2019-11-04 21:30:13 +0000";
layers = (
{
background = {
paths = (
{
closed = 1;
nodes = (
"20 34 LINE",
"20 0 LINE",
"454 0 LINE",
"454 34 LINE",
"398 34 LINE SMOOTH",
"254 34 OFFCURVE",
"246 46 OFFCURVE",
"246 246 CURVE SMOOTH",
"246 1240 LINE",
"1230 -10 LINE",
"1242 -10 LINE",
"1242 1134 LINE SMOOTH",
"1242 1300 OFFCURVE",
"1242 1300 OFFCURVE",
"1380 1300 CURVE SMOOTH",
"1436 1300 LINE",
"1436 1334 LINE",
"1008 1334 LINE",
"1008 1300 LINE",
"1064 1300 LINE SMOOTH",
"1208 1300 OFFCURVE",
"1210 1298 OFFCURVE",
"1210 1134 CURVE SMOOTH",
"1210 350 LINE",
"432 1334 LINE",
"20 1334 LINE",
"20 1300 LINE",
"180 1300 LINE",
"214 1276 LINE",
"214 246 LINE SMOOTH",
"214 100 OFFCURVE",
"214 96 OFFCURVE",
"196 66 CURVE",
"180 42 OFFCURVE",
"156 34 OFFCURVE",
"86 34 CURVE SMOOTH"
);
},
{
closed = 1;
nodes = (
"1008 1716 LINE",
"972 1638 OFFCURVE",
"950 1616 OFFCURVE",
"906 1616 CURVE SMOOTH",
"872 1616 OFFCURVE",
"838 1626 OFFCURVE",
"756 1664 CURVE",
"678 1696 OFFCURVE",
"640 1708 OFFCURVE",
"600 1708 CURVE SMOOTH",
"508 1708 OFFCURVE",
"440 1630 OFFCURVE",
"410 1494 CURVE",
"444 1494 LINE",
"464 1564 OFFCURVE",
"494 1592 OFFCURVE",
"542 1592 CURVE SMOOTH",
"564 1592 OFFCURVE",
"600 1582 OFFCURVE",
"636 1566 CURVE SMOOTH",
"770 1508 OFFCURVE",
"798 1498 OFFCURVE",
"838 1498 CURVE SMOOTH",
"932 1498 OFFCURVE",
"1002 1572 OFFCURVE",
"1042 1716 CURVE"
);
}
);
};
components = (
{
name = N;
},
{
name = tildecomb;
transform = "{1, 0, 0, 1, 261, 516}";
}
);
layerId = "EA94BB3F-1054-4F03-AAB6-69C3B81B3CC3";
width = 1282;
},
{
components = (
{
name = N;
},
{
name = tildecomb;
transform = "{1, 0, 0, 1, 325, 516}";
}
);
layerId = "1A84AFAC-8532-492C-A52A-D2ACD869B7F8";
width = 1362;
},
{
components = (
{
name = N;
},
{
name = tildecomb;
transform = "{1, 0, 0, 1, 301, 511}";
}
);
layerId = "16E03120-9D89-4B3A-B1E3-633A6E865927";
width = 1380;
},
{
components = (
{
name = N;
},
{
name = tildecomb;
transform = "{1, 0, 0, 1, 301, 511}";
}
);
layerId = "D5C24015-3945-4844-A39C-2F638D3E2004";
width = 1380;
},
{
components = (
{
name = N;
},
{
name = tildecomb;
transform = "{1, 0, 0, 1, 325, 516}";
}
);
layerId = "A518794E-5143-4302-A915-751D2A609FF0";
width = 1362;
},
{
components = (
{
name = N;
},
{
name = tildecomb;
transform = "{1, 0, 0, 1, 301, 511}";
}
);
layerId = "1D873E37-AF27-4769-9F86-9F16E4B4DD36";
width = 1380;
},
{
components = (
{
name = N;
},
{
name = tildecomb;
transform = "{1, 0, 0, 1, 325, 516}";
}
);
layerId = "092756DD-C6BD-4F67-9765-10D57923B42B";
width = 1362;
}
);
leftKerningGroup = H;
note = Ntilde;
rightKerningGroup = H;
unicode = 00D1;
},
{
glyphname = O;
lastChange = "2019-11-04 21:30:13 +0000";
layers = (
{
anchors = (
{
name = bottom;
position = "{757, 0}";
},
{
name = center;
position = "{757, 715}";
},
{
name = ogonek;
position = "{1363, 10}";
},
{
name = top;
position = "{757, 1430}";
},
{
name = topleft;
position = "{20, 1430}";
},
{
name = topright;
position = "{1494, 1430}";
}
);
background = {
paths = (
{
closed = 1;
nodes = (
"1152 -26 OFFCURVE",
"1444 296 OFFCURVE",
"1444 712 CURVE SMOOTH",
"1444 1120 OFFCURVE",
"1148 1460 OFFCURVE",
"758 1460 CURVE SMOOTH",
"374 1460 OFFCURVE",
"70 1122 OFFCURVE",
"70 712 CURVE SMOOTH",
"70 302 OFFCURVE",
"360 -26 OFFCURVE",
"758 -26 CURVE SMOOTH"
);
},
{
closed = 1;
nodes = (
"472 4 OFFCURVE",
"282 288 OFFCURVE",
"282 712 CURVE SMOOTH",
"282 1142 OFFCURVE",
"472 1430 OFFCURVE",
"758 1430 CURVE SMOOTH",
"1042 1430 OFFCURVE",
"1232 1142 OFFCURVE",
"1232 712 CURVE SMOOTH",
"1232 288 OFFCURVE",
"1042 4 OFFCURVE",
"758 4 CURVE SMOOTH"
);
}
);
};
layerId = "EA94BB3F-1054-4F03-AAB6-69C3B81B3CC3";
paths = (
{
closed = 1;
nodes = (
"1153 -26 OFFCURVE",
"1444 296 OFFCURVE",
"1444 712 CURVE SMOOTH",
"1444 1119 OFFCURVE",
"1148 1460 OFFCURVE",
"758 1460 CURVE SMOOTH",
"374 1460 OFFCURVE",
"70 1123 OFFCURVE",
"70 712 CURVE SMOOTH",
"70 302 OFFCURVE",
"361 -26 OFFCURVE",
"758 -26 CURVE SMOOTH"
);
},
{
closed = 1;
nodes = (
"472 4 OFFCURVE",
"282 288 OFFCURVE",
"282 712 CURVE SMOOTH",
"282 1142 OFFCURVE",
"472 1430 OFFCURVE",
"758 1430 CURVE SMOOTH",
"1042 1430 OFFCURVE",
"1232 1142 OFFCURVE",
"1232 712 CURVE SMOOTH",
"1232 288 OFFCURVE",
"1042 4 OFFCURVE",
"758 4 CURVE SMOOTH"
);
}
);
width = 1514;
},
{
anchors = (
{
name = bottom;
position = "{792, 0}";
},
{
name = center;
position = "{792, 715}";
},
{
name = ogonek;
position = "{1426, 10}";
},
{
name = top;
position = "{792, 1430}";
},
{
name = topleft;
position = "{20, 1430}";
},
{
name = topright;
position = "{1564, 1430}";
}
);
layerId = "16E03120-9D89-4B3A-B1E3-633A6E865927";
paths = (
{
closed = 1;
nodes = (
"1221 -41 OFFCURVE",
"1544 287 OFFCURVE",
"1544 712 CURVE SMOOTH",
"1544 1143 OFFCURVE",
"1210 1475 OFFCURVE",
"793 1475 CURVE SMOOTH",
"371 1475 OFFCURVE",
"40 1139 OFFCURVE",
"40 712 CURVE SMOOTH",
"40 288 OFFCURVE",
"364 -41 OFFCURVE",
"793 -41 CURVE SMOOTH"
);
},
{
closed = 1;
nodes = (
"556 19 OFFCURVE",
"382 302 OFFCURVE",
"382 712 CURVE SMOOTH",
"382 1121 OFFCURVE",
"555 1415 OFFCURVE",
"793 1415 CURVE SMOOTH",
"1030 1415 OFFCURVE",
"1202 1121 OFFCURVE",
"1202 712 CURVE SMOOTH",
"1202 303 OFFCURVE",
"1031 19 OFFCURVE",
"793 19 CURVE SMOOTH"
);
}
);
width = 1584;
},
{
anchors = (
{
name = bottom;
position = "{740, 0}";
},
{
name = center;
position = "{740, 715}";
},
{
name = ogonek;
position = "{1332, 10}";
},
{
name = top;
position = "{740, 1430}";
},
{
name = topleft;
position = "{20, 1430}";
},
{
name = topright;
position = "{1460, 1430}";
}
);
background = {
anchors = (
{
name = bottom;
position = "{701, 0}";
},
{
name = center;
position = "{701, 715}";
},
{
name = ogonek;
position = "{1284, 10}";
},
{
name = top;
position = "{701, 1430}";
},
{
name = topleft;
position = "{-8, 1430}";
},
{
name = topright;
position = "{1410, 1430}";
}
);
paths = (
{
closed = 1;
nodes = (
"1062 -26 OFFCURVE",
"1328 264 OFFCURVE",
"1328 712 CURVE SMOOTH",
"1328 1166 OFFCURVE",
"1062 1460 OFFCURVE",
"701 1460 CURVE SMOOTH",
"340 1460 OFFCURVE",
"74 1166 OFFCURVE",
"74 712 CURVE SMOOTH",
"74 264 OFFCURVE",
"340 -26 OFFCURVE",
"701 -26 CURVE SMOOTH"
);
},
{
closed = 1;
nodes = (
"349 4 OFFCURVE",
"140 264 OFFCURVE",
"140 712 CURVE SMOOTH",
"140 1167 OFFCURVE",
"349 1430 OFFCURVE",
"701 1430 CURVE SMOOTH",
"1052 1430 OFFCURVE",
"1262 1167 OFFCURVE",
"1262 712 CURVE SMOOTH",
"1262 264 OFFCURVE",
"1051 4 OFFCURVE",
"701 4 CURVE SMOOTH"
);
}
);
};
layerId = "1A84AFAC-8532-492C-A52A-D2ACD869B7F8";
paths = (
{
closed = 1;
nodes = (
"1145 -6 OFFCURVE",
"1380 300 OFFCURVE",
"1380 715 CURVE SMOOTH",
"1380 1130 OFFCURVE",
"1144 1440 OFFCURVE",
"740 1440 CURVE SMOOTH",
"337 1440 OFFCURVE",
"100 1131 OFFCURVE",
"100 715 CURVE SMOOTH",
"100 301 OFFCURVE",
"334 -6 OFFCURVE",
"740 -6 CURVE SMOOTH"
);
},
{
closed = 1;
nodes = (
"403 36 OFFCURVE",
"176 320 OFFCURVE",
"176 718 CURVE SMOOTH",
"176 1122 OFFCURVE",
"410 1402 OFFCURVE",
"740 1410 CURVE",
"1070 1402 OFFCURVE",
"1304 1122 OFFCURVE",
"1304 718 CURVE SMOOTH",
"1304 320 OFFCURVE",
"1077 36 OFFCURVE",
"740 24 CURVE"
);
}
);
width = 1480;
},
{
anchors = (
{
name = bottom;
position = "{792, 0}";
},
{
name = center;
position = "{792, 715}";
},
{
name = ogonek;
position = "{1426, 10}";
},
{
name = top;
position = "{792, 1430}";
},
{
name = topleft;
position = "{20, 1430}";
},
{
name = topright;
position = "{1564, 1430}";
}
);
layerId = "D5C24015-3945-4844-A39C-2F638D3E2004";
paths = (
{
closed = 1;
nodes = (
"1221 -41 OFFCURVE",
"1544 287 OFFCURVE",
"1544 712 CURVE SMOOTH",
"1544 1143 OFFCURVE",
"1210 1475 OFFCURVE",
"793 1475 CURVE SMOOTH",
"371 1475 OFFCURVE",
"40 1139 OFFCURVE",
"40 712 CURVE SMOOTH",
"40 288 OFFCURVE",
"364 -41 OFFCURVE",
"793 -41 CURVE SMOOTH"
);
},
{
closed = 1;
nodes = (
"556 19 OFFCURVE",
"382 302 OFFCURVE",
"382 712 CURVE SMOOTH",
"382 1121 OFFCURVE",
"555 1415 OFFCURVE",
"793 1415 CURVE SMOOTH",
"1030 1415 OFFCURVE",
"1202 1121 OFFCURVE",
"1202 712 CURVE SMOOTH",
"1202 303 OFFCURVE",
"1031 19 OFFCURVE",
"793 19 CURVE SMOOTH"
);
}
);
width = 1584;
},
{
anchors = (
{
name = bottom;
position = "{740, 0}";
},
{
name = center;
position = "{740, 715}";
},
{
name = ogonek;
position = "{1332, 10}";
},
{
name = top;
position = "{740, 1430}";
},
{
name = topleft;
position = "{20, 1430}";
},
{
name = topright;
position = "{1460, 1430}";
}
);
background = {
anchors = (
{
name = bottom;
position = "{701, 0}";
},
{
name = center;
position = "{701, 715}";
},
{
name = ogonek;
position = "{1284, 10}";
},
{
name = top;
position = "{701, 1430}";
},
{
name = topleft;
position = "{-8, 1430}";
},
{
name = topright;
position = "{1410, 1430}";
}
);
paths = (
{
closed = 1;
nodes = (
"1062 -26 OFFCURVE",
"1328 264 OFFCURVE",
"1328 712 CURVE SMOOTH",
"1328 1166 OFFCURVE",
"1062 1460 OFFCURVE",
"701 1460 CURVE SMOOTH",
"340 1460 OFFCURVE",
"74 1166 OFFCURVE",
"74 712 CURVE SMOOTH",
"74 264 OFFCURVE",
"340 -26 OFFCURVE",
"701 -26 CURVE SMOOTH"
);
},
{
closed = 1;
nodes = (
"349 4 OFFCURVE",
"140 264 OFFCURVE",
"140 712 CURVE SMOOTH",
"140 1167 OFFCURVE",
"349 1430 OFFCURVE",
"701 1430 CURVE SMOOTH",
"1052 1430 OFFCURVE",
"1262 1167 OFFCURVE",
"1262 712 CURVE SMOOTH",
"1262 264 OFFCURVE",
"1051 4 OFFCURVE",
"701 4 CURVE SMOOTH"
);
}
);
};
layerId = "A518794E-5143-4302-A915-751D2A609FF0";
paths = (
{
closed = 1;
nodes = (
"1145 -6 OFFCURVE",
"1380 300 OFFCURVE",
"1380 715 CURVE SMOOTH",
"1380 1130 OFFCURVE",
"1144 1440 OFFCURVE",
"740 1440 CURVE SMOOTH",
"337 1440 OFFCURVE",
"100 1131 OFFCURVE",
"100 715 CURVE SMOOTH",
"100 301 OFFCURVE",
"334 -6 OFFCURVE",
"740 -6 CURVE SMOOTH"
);
},
{
closed = 1;
nodes = (
"403 36 OFFCURVE",
"176 320 OFFCURVE",
"176 718 CURVE SMOOTH",
"176 1122 OFFCURVE",
"410 1402 OFFCURVE",
"740 1410 CURVE",
"1070 1402 OFFCURVE",
"1304 1122 OFFCURVE",
"1304 718 CURVE SMOOTH",
"1304 320 OFFCURVE",
"1077 36 OFFCURVE",
"740 24 CURVE"
);
}
);
width = 1480;
},
{
anchors = (
{
name = bottom;
position = "{792, 0}";
},
{
name = center;
position = "{792, 715}";
},
{
name = ogonek;
position = "{1426, 10}";
},
{
name = top;
position = "{792, 1430}";
},
{
name = topleft;
position = "{20, 1430}";
},
{
name = topright;
position = "{1564, 1430}";
}
);
layerId = "1D873E37-AF27-4769-9F86-9F16E4B4DD36";
paths = (
{
closed = 1;
nodes = (
"1221 -41 OFFCURVE",
"1544 287 OFFCURVE",
"1544 712 CURVE SMOOTH",
"1544 1143 OFFCURVE",
"1210 1475 OFFCURVE",
"793 1475 CURVE SMOOTH",
"371 1475 OFFCURVE",
"40 1139 OFFCURVE",
"40 712 CURVE SMOOTH",
"40 288 OFFCURVE",
"364 -41 OFFCURVE",
"793 -41 CURVE SMOOTH"
);
},
{
closed = 1;
nodes = (
"556 19 OFFCURVE",
"382 302 OFFCURVE",
"382 712 CURVE SMOOTH",
"382 1121 OFFCURVE",
"555 1415 OFFCURVE",
"793 1415 CURVE SMOOTH",
"1030 1415 OFFCURVE",
"1202 1121 OFFCURVE",
"1202 712 CURVE SMOOTH",
"1202 303 OFFCURVE",
"1031 19 OFFCURVE",
"793 19 CURVE SMOOTH"
);
}
);
width = 1584;
},
{
anchors = (
{
name = bottom;
position = "{740, 0}";
},
{
name = center;
position = "{740, 715}";
},
{
name = ogonek;
position = "{1332, 10}";
},
{
name = top;
position = "{740, 1430}";
},
{
name = topleft;
position = "{20, 1430}";
},
{
name = topright;
position = "{1460, 1430}";
}
);
background = {
anchors = (
{
name = bottom;
position = "{701, 0}";
},
{
name = center;
position = "{701, 715}";
},
{
name = ogonek;
position = "{1284, 10}";
},
{
name = top;
position = "{701, 1430}";
},
{
name = topleft;
position = "{-8, 1430}";
},
{
name = topright;
position = "{1410, 1430}";
}
);
paths = (
{
closed = 1;
nodes = (
"1062 -26 OFFCURVE",
"1328 264 OFFCURVE",
"1328 712 CURVE SMOOTH",
"1328 1166 OFFCURVE",
"1062 1460 OFFCURVE",
"701 1460 CURVE SMOOTH",
"340 1460 OFFCURVE",
"74 1166 OFFCURVE",
"74 712 CURVE SMOOTH",
"74 264 OFFCURVE",
"340 -26 OFFCURVE",
"701 -26 CURVE SMOOTH"
);
},
{
closed = 1;
nodes = (
"349 4 OFFCURVE",
"140 264 OFFCURVE",
"140 712 CURVE SMOOTH",
"140 1167 OFFCURVE",
"349 1430 OFFCURVE",
"701 1430 CURVE SMOOTH",
"1052 1430 OFFCURVE",
"1262 1167 OFFCURVE",
"1262 712 CURVE SMOOTH",
"1262 264 OFFCURVE",
"1051 4 OFFCURVE",
"701 4 CURVE SMOOTH"
);
}
);
};
layerId = "092756DD-C6BD-4F67-9765-10D57923B42B";
paths = (
{
closed = 1;
nodes = (
"1145 -6 OFFCURVE",
"1380 300 OFFCURVE",
"1380 715 CURVE SMOOTH",
"1380 1130 OFFCURVE",
"1144 1440 OFFCURVE",
"740 1440 CURVE SMOOTH",
"337 1440 OFFCURVE",
"100 1131 OFFCURVE",
"100 715 CURVE SMOOTH",
"100 301 OFFCURVE",
"334 -6 OFFCURVE",
"740 -6 CURVE SMOOTH"
);
},
{
closed = 1;
nodes = (
"403 36 OFFCURVE",
"176 320 OFFCURVE",
"176 718 CURVE SMOOTH",
"176 1122 OFFCURVE",
"410 1402 OFFCURVE",
"740 1410 CURVE",
"1070 1402 OFFCURVE",
"1304 1122 OFFCURVE",
"1304 718 CURVE SMOOTH",
"1304 320 OFFCURVE",
"1077 36 OFFCURVE",
"740 24 CURVE"
);
}
);
width = 1480;
}
);
leftKerningGroup = O;
note = O;
rightKerningGroup = O;
unicode = 004F;
},
{
glyphname = Odieresis;
lastChange = "2019-11-04 21:30:13 +0000";
layers = (
{
background = {
paths = (
{
closed = 1;
nodes = (
"558 1362 OFFCURVE",
"406 1292 OFFCURVE",
"280 1168 CURVE SMOOTH",
"148 1042 OFFCURVE",
"74 864 OFFCURVE",
"74 682 CURVE SMOOTH",
"74 522 OFFCURVE",
"118 378 OFFCURVE",
"202 256 CURVE SMOOTH",
"320 88 OFFCURVE",
"518 -24 OFFCURVE",
"700 -24 CURVE SMOOTH",
"846 -24 OFFCURVE",
"1006 50 OFFCURVE",
"1124 172 CURVE SMOOTH",
"1252 304 OFFCURVE",
"1320 476 OFFCURVE",
"1320 664 CURVE SMOOTH",
"1320 824 OFFCURVE",
"1268 984 OFFCURVE",
"1176 1104 CURVE SMOOTH",
"1056 1258 OFFCURVE",
"866 1362 OFFCURVE",
"698 1362 CURVE SMOOTH"
);
},
{
closed = 1;
nodes = (
"956 1332 OFFCURVE",
"1098 1094 OFFCURVE",
"1098 672 CURVE SMOOTH",
"1098 226 OFFCURVE",
"966 6 OFFCURVE",
"696 6 CURVE SMOOTH",
"430 6 OFFCURVE",
"296 228 OFFCURVE",
"296 670 CURVE SMOOTH",
"296 1104 OFFCURVE",
"436 1332 OFFCURVE",
"704 1332 CURVE SMOOTH"
);
},
{
closed = 1;
nodes = (
"834 1698 OFFCURVE",
"790 1656 OFFCURVE",
"790 1602 CURVE SMOOTH",
"790 1550 OFFCURVE",
"834 1506 OFFCURVE",
"886 1506 CURVE SMOOTH",
"938 1506 OFFCURVE",
"982 1550 OFFCURVE",
"982 1602 CURVE SMOOTH",
"982 1654 OFFCURVE",
"938 1698 OFFCURVE",
"888 1698 CURVE SMOOTH"
);
},
{
closed = 1;
nodes = (
"458 1698 OFFCURVE",
"414 1656 OFFCURVE",
"414 1602 CURVE SMOOTH",
"414 1550 OFFCURVE",
"458 1506 OFFCURVE",
"510 1506 CURVE SMOOTH",
"562 1506 OFFCURVE",
"606 1550 OFFCURVE",
"606 1602 CURVE SMOOTH",
"606 1654 OFFCURVE",
"562 1698 OFFCURVE",
"512 1698 CURVE SMOOTH"
);
}
);
};
components = (
{
name = O;
},
{
name = dieresiscomb;
transform = "{1, 0, 0, 1, 421, 516}";
}
);
layerId = "EA94BB3F-1054-4F03-AAB6-69C3B81B3CC3";
width = 1514;
},
{
components = (
{
name = O;
transform = "{1, 0, 0, 1.007, 0, 0}";
},
{
name = dieresiscomb;
transform = "{1, 0, 0, 1, 515, 526}";
}
);
layerId = "1A84AFAC-8532-492C-A52A-D2ACD869B7F8";
width = 1480;
},
{
components = (
{
name = O;
},
{
name = dieresiscomb;
transform = "{1, 0, 0, 1, 393, 511}";
}
);
layerId = "16E03120-9D89-4B3A-B1E3-633A6E865927";
width = 1584;
},
{
components = (
{
name = O;
},
{
name = dieresiscomb;
transform = "{1, 0, 0, 1, 393, 511}";
}
);
layerId = "D5C24015-3945-4844-A39C-2F638D3E2004";
width = 1584;
},
{
components = (
{
name = O;
transform = "{1, 0, 0, 1.007, 0, 0}";
},
{
name = dieresiscomb;
transform = "{1, 0, 0, 1, 515, 526}";
}
);
layerId = "A518794E-5143-4302-A915-751D2A609FF0";
width = 1480;
},
{
components = (
{
name = O;
},
{
name = dieresiscomb;
transform = "{1, 0, 0, 1, 393, 511}";
}
);
layerId = "1D873E37-AF27-4769-9F86-9F16E4B4DD36";
width = 1584;
},
{
components = (
{
name = O;
transform = "{1, 0, 0, 1.007, 0, 0}";
},
{
name = dieresiscomb;
transform = "{1, 0, 0, 1, 515, 526}";
}
);
layerId = "092756DD-C6BD-4F67-9765-10D57923B42B";
width = 1480;
}
);
leftKerningGroup = O;
note = Odieresis;
rightKerningGroup = O;
unicode = 00D6;
},
{
glyphname = Oslash;
lastChange = "2019-11-04 21:30:13 +0000";
layers = (
{
anchors = (
{
name = bottom;
position = "{870, 0}";
},
{
name = top;
position = "{870, 1430}";
}
);
background = {
paths = (
{
closed = 1;
nodes = (
"1104 1356 LINE",
"1074 1376 LINE",
"1002 1252 LINE",
"936 1290 OFFCURVE",
"926 1296 OFFCURVE",
"912 1302 CURVE",
"840 1338 OFFCURVE",
"758 1358 OFFCURVE",
"686 1358 CURVE SMOOTH",
"540 1358 OFFCURVE",
"370 1274 OFFCURVE",
"250 1140 CURVE SMOOTH",
"134 1010 OFFCURVE",
"74 858 OFFCURVE",
"74 686 CURVE SMOOTH",
"74 544 OFFCURVE",
"118 378 OFFCURVE",
"184 276 CURVE SMOOTH",
"224 214 OFFCURVE",
"266 168 OFFCURVE",
"340 106 CURVE",
"264 -30 LINE",
"296 -48 LINE",
"372 82 LINE",
"484 6 OFFCURVE",
"574 -24 OFFCURVE",
"684 -24 CURVE SMOOTH",
"1018 -24 OFFCURVE",
"1310 296 OFFCURVE",
"1310 662 CURVE SMOOTH",
"1310 788 OFFCURVE",
"1274 920 OFFCURVE",
"1206 1038 CURVE SMOOTH",
"1162 1112 OFFCURVE",
"1126 1154 OFFCURVE",
"1032 1234 CURVE"
);
},
{
closed = 1;
nodes = (
"986 1154 LINE",
"1054 1040 OFFCURVE",
"1088 872 OFFCURVE",
"1088 648 CURVE SMOOTH",
"1088 228 OFFCURVE",
"952 6 OFFCURVE",
"694 6 CURVE SMOOTH",
"574 6 OFFCURVE",
"484 54 OFFCURVE",
"414 156 CURVE"
);
},
{
closed = 1;
nodes = (
"390 190 LINE",
"320 318 OFFCURVE",
"290 460 OFFCURVE",
"290 676 CURVE SMOOTH",
"290 918 OFFCURVE",
"326 1082 OFFCURVE",
"406 1194 CURVE SMOOTH",
"466 1280 OFFCURVE",
"574 1332 OFFCURVE",
"690 1332 CURVE SMOOTH",
"806 1332 OFFCURVE",
"884 1290 OFFCURVE",
"964 1188 CURVE"
);
}
);
};
components = (
{
name = O;
},
{
name = slashlongcomb.case;
transform = "{1, 0, 0, 1, 27, -1}";
}
);
layerId = "EA94BB3F-1054-4F03-AAB6-69C3B81B3CC3";
width = 1514;
},
{
associatedMasterId = "EA94BB3F-1054-4F03-AAB6-69C3B81B3CC3";
background = {
paths = (
{
closed = 1;
nodes = (
"1104 1356 LINE",
"1074 1376 LINE",
"1002 1252 LINE",
"936 1290 OFFCURVE",
"926 1296 OFFCURVE",
"912 1302 CURVE",
"840 1338 OFFCURVE",
"758 1358 OFFCURVE",
"686 1358 CURVE SMOOTH",
"540 1358 OFFCURVE",
"370 1274 OFFCURVE",
"250 1140 CURVE SMOOTH",
"134 1010 OFFCURVE",
"74 858 OFFCURVE",
"74 686 CURVE SMOOTH",
"74 544 OFFCURVE",
"118 378 OFFCURVE",
"184 276 CURVE SMOOTH",
"224 214 OFFCURVE",
"266 168 OFFCURVE",
"340 106 CURVE",
"264 -30 LINE",
"296 -48 LINE",
"372 82 LINE",
"484 6 OFFCURVE",
"574 -24 OFFCURVE",
"684 -24 CURVE SMOOTH",
"1018 -24 OFFCURVE",
"1310 296 OFFCURVE",
"1310 662 CURVE SMOOTH",
"1310 788 OFFCURVE",
"1274 920 OFFCURVE",
"1206 1038 CURVE SMOOTH",
"1162 1112 OFFCURVE",
"1126 1154 OFFCURVE",
"1032 1234 CURVE"
);
},
{
closed = 1;
nodes = (
"986 1154 LINE",
"1054 1040 OFFCURVE",
"1088 872 OFFCURVE",
"1088 648 CURVE SMOOTH",
"1088 228 OFFCURVE",
"952 6 OFFCURVE",
"694 6 CURVE SMOOTH",
"574 6 OFFCURVE",
"484 54 OFFCURVE",
"414 156 CURVE"
);
},
{
closed = 1;
nodes = (
"390 190 LINE",
"320 318 OFFCURVE",
"290 460 OFFCURVE",
"290 676 CURVE SMOOTH",
"290 918 OFFCURVE",
"326 1082 OFFCURVE",
"406 1194 CURVE SMOOTH",
"466 1280 OFFCURVE",
"574 1332 OFFCURVE",
"690 1332 CURVE SMOOTH",
"806 1332 OFFCURVE",
"884 1290 OFFCURVE",
"964 1188 CURVE"
);
}
);
};
layerId = "7CBF5435-50A9-48C0-B687-F427D0BF7C11";
name = "Regular Sep 22 15, 13:24";
paths = (
{
closed = 1;
nodes = (
"1072 -26 OFFCURVE",
"1266 42 OFFCURVE",
"1412 182 CURVE SMOOTH",
"1556 320 OFFCURVE",
"1634 508 OFFCURVE",
"1634 712 CURVE SMOOTH",
"1634 926 OFFCURVE",
"1548 1116 OFFCURVE",
"1412 1244 CURVE SMOOTH",
"1274 1374 OFFCURVE",
"1062 1460 OFFCURVE",
"870 1460 CURVE SMOOTH",
"678 1460 OFFCURVE",
"466 1370 OFFCURVE",
"330 1244 CURVE SMOOTH",
"196 1118 OFFCURVE",
"106 930 OFFCURVE",
"106 712 CURVE SMOOTH",
"106 508 OFFCURVE",
"184 320 OFFCURVE",
"330 182 CURVE SMOOTH",
"476 44 OFFCURVE",
"668 -26 OFFCURVE",
"870 -26 CURVE SMOOTH"
);
},
{
closed = 1;
nodes = (
"554 4 OFFCURVE",
"342 288 OFFCURVE",
"342 712 CURVE SMOOTH",
"342 1142 OFFCURVE",
"554 1430 OFFCURVE",
"870 1430 CURVE SMOOTH",
"1186 1430 OFFCURVE",
"1398 1142 OFFCURVE",
"1398 712 CURVE SMOOTH",
"1398 288 OFFCURVE",
"1186 4 OFFCURVE",
"870 4 CURVE SMOOTH"
);
}
);
width = 1740;
},
{
anchors = (
{
name = bottom;
position = "{870, -5}";
},
{
name = top;
position = "{870, 1435}";
}
);
components = (
{
name = O;
transform = "{1, 0, 0, 1.007, 0, 0}";
},
{
name = slashlongcomb.case;
transform = "{1, 0, 0, 1, 10, 4}";
}
);
layerId = "1A84AFAC-8532-492C-A52A-D2ACD869B7F8";
width = 1480;
},
{
anchors = (
{
name = bottom;
position = "{870, 0}";
},
{
name = top;
position = "{870, 1430}";
}
);
components = (
{
name = O;
},
{
name = slashlongcomb.case;
transform = "{1, 0, 0, 1, 62, -1}";
}
);
layerId = "16E03120-9D89-4B3A-B1E3-633A6E865927";
width = 1584;
},
{
anchors = (
{
name = bottom;
position = "{870, 0}";
},
{
name = top;
position = "{870, 1430}";
}
);
components = (
{
name = O;
},
{
name = slashlongcomb.case;
transform = "{1, 0, 0, 1, 62, -1}";
}
);
layerId = "D5C24015-3945-4844-A39C-2F638D3E2004";
width = 1584;
},
{
anchors = (
{
name = bottom;
position = "{870, -5}";
},
{
name = top;
position = "{870, 1435}";
}
);
components = (
{
name = O;
transform = "{1, 0, 0, 1.007, 0, 0}";
},
{
name = slashlongcomb.case;
transform = "{1, 0, 0, 1, 10, 4}";
}
);
layerId = "A518794E-5143-4302-A915-751D2A609FF0";
width = 1480;
},
{
anchors = (
{
name = bottom;
position = "{870, 0}";
},
{
name = top;
position = "{870, 1430}";
}
);
components = (
{
name = O;
},
{
name = slashlongcomb.case;
transform = "{1, 0, 0, 1, 62, -1}";
}
);
layerId = "1D873E37-AF27-4769-9F86-9F16E4B4DD36";
width = 1584;
},
{
anchors = (
{
name = bottom;
position = "{870, -5}";
},
{
name = top;
position = "{870, 1435}";
}
);
components = (
{
name = O;
transform = "{1, 0, 0, 1.007, 0, 0}";
},
{
name = slashlongcomb.case;
transform = "{1, 0, 0, 1, 10, 4}";
}
);
layerId = "092756DD-C6BD-4F67-9765-10D57923B42B";
width = 1480;
}
);
leftKerningGroup = O;
note = Oslash;
rightKerningGroup = O;
unicode = 00D8;
},
{
glyphname = OE;
lastChange = "2019-11-04 21:30:13 +0000";
layers = (
{
anchors = (
{
name = bottom;
position = "{1058, 0}";
},
{
name = top;
position = "{1058, 1430}";
}
);
background = {
paths = (
{
closed = 1;
nodes = (
"1102 -26 OFFCURVE",
"1296 42 OFFCURVE",
"1442 182 CURVE SMOOTH",
"1496 234 OFFCURVE",
"1512 292 OFFCURVE",
"1512 354 CURVE SMOOTH",
"1512 462 OFFCURVE",
"1464 584 OFFCURVE",
"1464 712 CURVE SMOOTH",
"1464 846 OFFCURVE",
"1508 970 OFFCURVE",
"1508 1076 CURVE SMOOTH",
"1508 1140 OFFCURVE",
"1492 1196 OFFCURVE",
"1442 1244 CURVE SMOOTH",
"1304 1374 OFFCURVE",
"1092 1460 OFFCURVE",
"900 1460 CURVE SMOOTH",
"708 1460 OFFCURVE",
"496 1370 OFFCURVE",
"360 1244 CURVE SMOOTH",
"226 1118 OFFCURVE",
"136 930 OFFCURVE",
"136 712 CURVE SMOOTH",
"136 508 OFFCURVE",
"214 320 OFFCURVE",
"360 182 CURVE SMOOTH",
"506 44 OFFCURVE",
"698 -26 OFFCURVE",
"900 -26 CURVE SMOOTH"
);
},
{
closed = 1;
nodes = (
"584 4 OFFCURVE",
"372 288 OFFCURVE",
"372 712 CURVE SMOOTH",
"372 1142 OFFCURVE",
"584 1430 OFFCURVE",
"900 1430 CURVE SMOOTH",
"1216 1430 OFFCURVE",
"1428 1142 OFFCURVE",
"1428 712 CURVE SMOOTH",
"1428 288 OFFCURVE",
"1216 4 OFFCURVE",
"900 4 CURVE SMOOTH"
);
},
{
closed = 1;
nodes = (
"2278 0 LINE",
"2278 36 LINE",
"1634 36 LINE",
"1634 710 LINE",
"2278 710 LINE",
"2278 746 LINE",
"1634 746 LINE",
"1634 1394 LINE",
"2278 1394 LINE",
"2278 1430 LINE",
"1428 1430 LINE",
"1428 0 LINE"
);
}
);
};
layerId = "EA94BB3F-1054-4F03-AAB6-69C3B81B3CC3";
paths = (
{
closed = 1;
nodes = (
"1101 -26 OFFCURVE",
"1379 296 OFFCURVE",
"1379 712 CURVE SMOOTH",
"1379 1119 OFFCURVE",
"1097 1460 OFFCURVE",
"725 1460 CURVE SMOOTH",
"360 1460 OFFCURVE",
"70 1123 OFFCURVE",
"70 712 CURVE SMOOTH",
"70 302 OFFCURVE",
"347 -26 OFFCURVE",
"725 -26 CURVE SMOOTH"
);
},
{
closed = 1;
nodes = (
"453 4 OFFCURVE",
"276 288 OFFCURVE",
"276 712 CURVE SMOOTH",
"276 1142 OFFCURVE",
"453 1430 OFFCURVE",
"725 1430 CURVE SMOOTH",
"996 1430 OFFCURVE",
"1177 1142 OFFCURVE",
"1177 712 CURVE SMOOTH",
"1177 288 OFFCURVE",
"996 4 OFFCURVE",
"725 4 CURVE SMOOTH"
);
},
{
closed = 1;
nodes = (
"1992 0 LINE",
"1992 36 LINE",
"1290 36 LINE",
"1388 23 LINE",
"1388 725 LINE",
"1290 710 LINE",
"1992 710 LINE",
"1992 746 LINE",
"1290 746 LINE",
"1388 733 LINE",
"1388 1417 LINE",
"1290 1394 LINE",
"1992 1394 LINE",
"1992 1430 LINE",
"1182 1430 LINE",
"1182 0 LINE"
);
}
);
width = 2088;
},
{
anchors = (
{
name = bottom;
position = "{987, 0}";
},
{
name = top;
position = "{987, 1430}";
}
);
layerId = "1A84AFAC-8532-492C-A52A-D2ACD869B7F8";
paths = (
{
closed = 1;
nodes = (
"1095 -6 OFFCURVE",
"1280 300 OFFCURVE",
"1280 715 CURVE SMOOTH",
"1280 1130 OFFCURVE",
"1094 1440 OFFCURVE",
"690 1440 CURVE SMOOTH",
"287 1440 OFFCURVE",
"100 1131 OFFCURVE",
"100 715 CURVE SMOOTH",
"100 301 OFFCURVE",
"284 -6 OFFCURVE",
"690 -6 CURVE SMOOTH"
);
},
{
closed = 1;
nodes = (
"353 36 OFFCURVE",
"176 320 OFFCURVE",
"176 718 CURVE SMOOTH",
"176 1122 OFFCURVE",
"360 1402 OFFCURVE",
"690 1410 CURVE",
"1020 1402 OFFCURVE",
"1204 1122 OFFCURVE",
"1204 718 CURVE SMOOTH",
"1204 320 OFFCURVE",
"1027 36 OFFCURVE",
"690 24 CURVE"
);
},
{
closed = 1;
nodes = (
"1864 0 LINE",
"1864 26 LINE",
"1255 26 LINE",
"1280 12 LINE",
"1280 738 LINE",
"1248 715 LINE",
"1864 715 LINE",
"1864 741 LINE",
"1255 741 LINE",
"1280 727 LINE",
"1280 1420 LINE",
"1236 1404 LINE",
"1864 1404 LINE",
"1864 1430 LINE",
"1220 1430 LINE",
"1220 0 LINE"
);
}
);
width = 1974;
},
{
anchors = (
{
name = bottom;
position = "{1093, 0}";
},
{
name = top;
position = "{1093, 1430}";
}
);
layerId = "16E03120-9D89-4B3A-B1E3-633A6E865927";
paths = (
{
closed = 1;
nodes = (
"1171 -41 OFFCURVE",
"1479 286 OFFCURVE",
"1479 712 CURVE SMOOTH",
"1479 1144 OFFCURVE",
"1161 1475 OFFCURVE",
"760 1475 CURVE SMOOTH",
"355 1475 OFFCURVE",
"40 1140 OFFCURVE",
"40 712 CURVE SMOOTH",
"40 287 OFFCURVE",
"349 -41 OFFCURVE",
"760 -41 CURVE SMOOTH"
);
},
{
closed = 1;
nodes = (
"538 19 OFFCURVE",
"376 303 OFFCURVE",
"376 712 CURVE SMOOTH",
"376 1121 OFFCURVE",
"538 1415 OFFCURVE",
"760 1415 CURVE SMOOTH",
"982 1415 OFFCURVE",
"1147 1120 OFFCURVE",
"1147 712 CURVE SMOOTH",
"1147 305 OFFCURVE",
"983 19 OFFCURVE",
"760 19 CURVE SMOOTH"
);
},
{
closed = 1;
nodes = (
"2092 -15 LINE",
"2092 51 LINE",
"1091 51 LINE",
"1488 -2 LINE",
"1488 751 LINE",
"1220 695 LINE",
"2092 695 LINE",
"2092 761 LINE",
"1191 761 LINE",
"1488 708 LINE",
"1488 1420 LINE",
"1184 1379 LINE",
"2092 1379 LINE",
"2092 1445 LINE",
"1152 1445 LINE",
"1152 -15 LINE"
);
}
);
width = 2123;
},
{
anchors = (
{
name = bottom;
position = "{1093, 0}";
},
{
name = top;
position = "{1093, 1430}";
}
);
layerId = "D5C24015-3945-4844-A39C-2F638D3E2004";
paths = (
{
closed = 1;
nodes = (
"1171 -41 OFFCURVE",
"1479 286 OFFCURVE",
"1479 712 CURVE SMOOTH",
"1479 1144 OFFCURVE",
"1161 1475 OFFCURVE",
"760 1475 CURVE SMOOTH",
"355 1475 OFFCURVE",
"40 1140 OFFCURVE",
"40 712 CURVE SMOOTH",
"40 287 OFFCURVE",
"349 -41 OFFCURVE",
"760 -41 CURVE SMOOTH"
);
},
{
closed = 1;
nodes = (
"538 19 OFFCURVE",
"376 303 OFFCURVE",
"376 712 CURVE SMOOTH",
"376 1121 OFFCURVE",
"538 1415 OFFCURVE",
"760 1415 CURVE SMOOTH",
"982 1415 OFFCURVE",
"1147 1120 OFFCURVE",
"1147 712 CURVE SMOOTH",
"1147 305 OFFCURVE",
"983 19 OFFCURVE",
"760 19 CURVE SMOOTH"
);
},
{
closed = 1;
nodes = (
"2092 -15 LINE",
"2092 51 LINE",
"1091 51 LINE",
"1488 -2 LINE",
"1488 751 LINE",
"1220 695 LINE",
"2092 695 LINE",
"2092 761 LINE",
"1191 761 LINE",
"1488 708 LINE",
"1488 1420 LINE",
"1184 1379 LINE",
"2092 1379 LINE",
"2092 1445 LINE",
"1152 1445 LINE",
"1152 -15 LINE"
);
}
);
width = 2123;
},
{
anchors = (
{
name = bottom;
position = "{987, 0}";
},
{
name = top;
position = "{987, 1430}";
}
);
layerId = "A518794E-5143-4302-A915-751D2A609FF0";
paths = (
{
closed = 1;
nodes = (
"1095 -6 OFFCURVE",
"1280 300 OFFCURVE",
"1280 715 CURVE SMOOTH",
"1280 1130 OFFCURVE",
"1094 1440 OFFCURVE",
"690 1440 CURVE SMOOTH",
"287 1440 OFFCURVE",
"100 1131 OFFCURVE",
"100 715 CURVE SMOOTH",
"100 301 OFFCURVE",
"284 -6 OFFCURVE",
"690 -6 CURVE SMOOTH"
);
},
{
closed = 1;
nodes = (
"353 36 OFFCURVE",
"176 320 OFFCURVE",
"176 718 CURVE SMOOTH",
"176 1122 OFFCURVE",
"360 1402 OFFCURVE",
"690 1410 CURVE",
"1020 1402 OFFCURVE",
"1204 1122 OFFCURVE",
"1204 718 CURVE SMOOTH",
"1204 320 OFFCURVE",
"1027 36 OFFCURVE",
"690 24 CURVE"
);
},
{
closed = 1;
nodes = (
"1864 0 LINE",
"1864 26 LINE",
"1255 26 LINE",
"1280 12 LINE",
"1280 738 LINE",
"1248 715 LINE",
"1864 715 LINE",
"1864 741 LINE",
"1255 741 LINE",
"1280 727 LINE",
"1280 1420 LINE",
"1236 1404 LINE",
"1864 1404 LINE",
"1864 1430 LINE",
"1220 1430 LINE",
"1220 0 LINE"
);
}
);
width = 1974;
},
{
anchors = (
{
name = bottom;
position = "{1093, 0}";
},
{
name = top;
position = "{1093, 1430}";
}
);
layerId = "1D873E37-AF27-4769-9F86-9F16E4B4DD36";
paths = (
{
closed = 1;
nodes = (
"1171 -41 OFFCURVE",
"1479 286 OFFCURVE",
"1479 712 CURVE SMOOTH",
"1479 1144 OFFCURVE",
"1161 1475 OFFCURVE",
"760 1475 CURVE SMOOTH",
"355 1475 OFFCURVE",
"40 1140 OFFCURVE",
"40 712 CURVE SMOOTH",
"40 287 OFFCURVE",
"349 -41 OFFCURVE",
"760 -41 CURVE SMOOTH"
);
},
{
closed = 1;
nodes = (
"538 19 OFFCURVE",
"376 303 OFFCURVE",
"376 712 CURVE SMOOTH",
"376 1121 OFFCURVE",
"538 1415 OFFCURVE",
"760 1415 CURVE SMOOTH",
"982 1415 OFFCURVE",
"1147 1120 OFFCURVE",
"1147 712 CURVE SMOOTH",
"1147 305 OFFCURVE",
"983 19 OFFCURVE",
"760 19 CURVE SMOOTH"
);
},
{
closed = 1;
nodes = (
"2092 -15 LINE",
"2092 51 LINE",
"1091 51 LINE",
"1488 -2 LINE",
"1488 751 LINE",
"1220 695 LINE",
"2092 695 LINE",
"2092 761 LINE",
"1191 761 LINE",
"1488 708 LINE",
"1488 1420 LINE",
"1184 1379 LINE",
"2092 1379 LINE",
"2092 1445 LINE",
"1152 1445 LINE",
"1152 -15 LINE"
);
}
);
width = 2123;
},
{
anchors = (
{
name = bottom;
position = "{987, 0}";
},
{
name = top;
position = "{987, 1430}";
}
);
layerId = "092756DD-C6BD-4F67-9765-10D57923B42B";
paths = (
{
closed = 1;
nodes = (
"1095 -6 OFFCURVE",
"1280 300 OFFCURVE",
"1280 715 CURVE SMOOTH",
"1280 1130 OFFCURVE",
"1094 1440 OFFCURVE",
"690 1440 CURVE SMOOTH",
"287 1440 OFFCURVE",
"100 1131 OFFCURVE",
"100 715 CURVE SMOOTH",
"100 301 OFFCURVE",
"284 -6 OFFCURVE",
"690 -6 CURVE SMOOTH"
);
},
{
closed = 1;
nodes = (
"353 36 OFFCURVE",
"176 320 OFFCURVE",
"176 718 CURVE SMOOTH",
"176 1122 OFFCURVE",
"360 1402 OFFCURVE",
"690 1410 CURVE",
"1020 1402 OFFCURVE",
"1204 1122 OFFCURVE",
"1204 718 CURVE SMOOTH",
"1204 320 OFFCURVE",
"1027 36 OFFCURVE",
"690 24 CURVE"
);
},
{
closed = 1;
nodes = (
"1864 0 LINE",
"1864 26 LINE",
"1255 26 LINE",
"1280 12 LINE",
"1280 738 LINE",
"1248 715 LINE",
"1864 715 LINE",
"1864 741 LINE",
"1255 741 LINE",
"1280 727 LINE",
"1280 1420 LINE",
"1236 1404 LINE",
"1864 1404 LINE",
"1864 1430 LINE",
"1220 1430 LINE",
"1220 0 LINE"
);
}
);
width = 1974;
}
);
leftKerningGroup = O;
leftMetricsKey = O;
note = OE;
rightKerningGroup = E;
rightMetricsKey = E;
unicode = 0152;
},
{
glyphname = P;
lastChange = "2019-11-04 21:30:13 +0000";
layers = (
{
background = {
paths = (
{
closed = 1;
nodes = (
"414 626 LINE",
"486 598 OFFCURVE",
"542 588 OFFCURVE",
"630 588 CURVE SMOOTH",
"942 588 OFFCURVE",
"1154 742 OFFCURVE",
"1154 966 CURVE SMOOTH",
"1154 1110 OFFCURVE",
"1078 1216 OFFCURVE",
"928 1278 CURVE SMOOTH",
"830 1320 OFFCURVE",
"742 1334 OFFCURVE",
"580 1334 CURVE SMOOTH",
"24 1334 LINE",
"24 1300 LINE",
"218 1300 LINE",
"218 34 LINE",
"24 34 LINE",
"24 0 LINE",
"618 0 LINE",
"618 34 LINE",
"414 34 LINE"
);
},
{
closed = 1;
nodes = (
"414 1300 LINE",
"452 1304 OFFCURVE",
"472 1304 OFFCURVE",
"498 1304 CURVE SMOOTH",
"624 1304 OFFCURVE",
"734 1284 OFFCURVE",
"792 1252 CURVE SMOOTH",
"894 1194 OFFCURVE",
"946 1090 OFFCURVE",
"946 944 CURVE SMOOTH",
"946 848 OFFCURVE",
"926 788 OFFCURVE",
"876 734 CURVE SMOOTH",
"812 662 OFFCURVE",
"708 622 OFFCURVE",
"588 622 CURVE SMOOTH",
"518 622 OFFCURVE",
"472 634 OFFCURVE",
"414 664 CURVE"
);
}
);
};
layerId = "EA94BB3F-1054-4F03-AAB6-69C3B81B3CC3";
paths = (
{
closed = 1;
nodes = (
"320 0 LINE",
"320 655 LINE",
"227 642 LINE",
"462 642 LINE SMOOTH",
"672 642 OFFCURVE",
"748 654 OFFCURVE",
"822 714 CURVE SMOOTH",
"908 784 OFFCURVE",
"968 898 OFFCURVE",
"968 1036 CURVE SMOOTH",
"968 1169 OFFCURVE",
"913 1288 OFFCURVE",
"822 1358 CURVE SMOOTH",
"754 1410 OFFCURVE",
"672 1430 OFFCURVE",
"462 1430 CURVE SMOOTH",
"114 1430 LINE",
"114 0 LINE"
);
},
{
closed = 1;
nodes = (
"320 1417 LINE",
"227 1394 LINE",
"414 1394 LINE SMOOTH",
"700 1394 OFFCURVE",
"750 1208 OFFCURVE",
"750 1026 CURVE SMOOTH",
"750 856 OFFCURVE",
"706 678 OFFCURVE",
"414 678 CURVE SMOOTH",
"227 678 LINE",
"320 665 LINE"
);
}
);
width = 1006;
},
{
layerId = "1A84AFAC-8532-492C-A52A-D2ACD869B7F8";
paths = (
{
closed = 1;
nodes = (
"257 0 LINE",
"257 658 LINE",
"227 647 LINE",
"452 647 LINE SMOOTH",
"585 647 OFFCURVE",
"683 672 OFFCURVE",
"753 716 CURVE SMOOTH",
"857 783 OFFCURVE",
"898 895 OFFCURVE",
"898 1038 CURVE SMOOTH",
"898 1175 OFFCURVE",
"860 1275 OFFCURVE",
"782 1340 CURVE SMOOTH",
"708 1400 OFFCURVE",
"599 1430 OFFCURVE",
"452 1430 CURVE SMOOTH",
"197 1430 LINE",
"197 0 LINE"
);
},
{
closed = 1;
nodes = (
"257 1416 LINE",
"209 1404 LINE",
"414 1404 LINE SMOOTH",
"724 1404 OFFCURVE",
"833 1292 OFFCURVE",
"833 1038 CURVE SMOOTH",
"833 781 OFFCURVE",
"722 673 OFFCURVE",
"414 673 CURVE SMOOTH",
"227 673 LINE",
"257 661 LINE"
);
}
);
width = 1016;
},
{
layerId = "16E03120-9D89-4B3A-B1E3-633A6E865927";
paths = (
{
closed = 1;
nodes = (
"434 -15 LINE",
"434 680 LINE",
"173 627 LINE",
"511 627 LINE SMOOTH",
"734 627 OFFCURVE",
"843 647 OFFCURVE",
"912 702 CURVE SMOOTH",
"1030 799 OFFCURVE",
"1082 901 OFFCURVE",
"1082 1036 CURVE SMOOTH",
"1082 1175 OFFCURVE",
"1029 1278 OFFCURVE",
"911 1370 CURVE SMOOTH",
"844 1422 OFFCURVE",
"719 1445 OFFCURVE",
"511 1445 CURVE SMOOTH",
"98 1445 LINE",
"98 -15 LINE"
);
},
{
closed = 1;
nodes = (
"434 1421 LINE",
"141 1379 LINE",
"463 1379 LINE SMOOTH",
"652 1379 OFFCURVE",
"734 1272 OFFCURVE",
"734 1026 CURVE SMOOTH",
"734 790 OFFCURVE",
"655 693 OFFCURVE",
"463 693 CURVE SMOOTH",
"173 693 LINE",
"434 640 LINE"
);
}
);
width = 1055;
},
{
layerId = "D5C24015-3945-4844-A39C-2F638D3E2004";
paths = (
{
closed = 1;
nodes = (
"434 -15 LINE",
"434 680 LINE",
"173 627 LINE",
"511 627 LINE SMOOTH",
"734 627 OFFCURVE",
"843 647 OFFCURVE",
"912 702 CURVE SMOOTH",
"1030 799 OFFCURVE",
"1082 901 OFFCURVE",
"1082 1036 CURVE SMOOTH",
"1082 1175 OFFCURVE",
"1029 1278 OFFCURVE",
"911 1370 CURVE SMOOTH",
"844 1422 OFFCURVE",
"719 1445 OFFCURVE",
"511 1445 CURVE SMOOTH",
"98 1445 LINE",
"98 -15 LINE"
);
},
{
closed = 1;
nodes = (
"434 1421 LINE",
"141 1379 LINE",
"463 1379 LINE SMOOTH",
"652 1379 OFFCURVE",
"734 1272 OFFCURVE",
"734 1026 CURVE SMOOTH",
"734 790 OFFCURVE",
"655 693 OFFCURVE",
"463 693 CURVE SMOOTH",
"173 693 LINE",
"434 640 LINE"
);
}
);
width = 1055;
},
{
layerId = "A518794E-5143-4302-A915-751D2A609FF0";
paths = (
{
closed = 1;
nodes = (
"257 0 LINE",
"257 658 LINE",
"227 647 LINE",
"452 647 LINE SMOOTH",
"585 647 OFFCURVE",
"683 672 OFFCURVE",
"753 716 CURVE SMOOTH",
"857 783 OFFCURVE",
"898 895 OFFCURVE",
"898 1038 CURVE SMOOTH",
"898 1175 OFFCURVE",
"860 1275 OFFCURVE",
"782 1340 CURVE SMOOTH",
"708 1400 OFFCURVE",
"599 1430 OFFCURVE",
"452 1430 CURVE SMOOTH",
"197 1430 LINE",
"197 0 LINE"
);
},
{
closed = 1;
nodes = (
"257 1416 LINE",
"209 1404 LINE",
"414 1404 LINE SMOOTH",
"724 1404 OFFCURVE",
"833 1292 OFFCURVE",
"833 1038 CURVE SMOOTH",
"833 781 OFFCURVE",
"722 673 OFFCURVE",
"414 673 CURVE SMOOTH",
"227 673 LINE",
"257 661 LINE"
);
}
);
width = 1016;
},
{
layerId = "1D873E37-AF27-4769-9F86-9F16E4B4DD36";
paths = (
{
closed = 1;
nodes = (
"434 -15 LINE",
"434 680 LINE",
"173 627 LINE",
"511 627 LINE SMOOTH",
"734 627 OFFCURVE",
"843 647 OFFCURVE",
"912 702 CURVE SMOOTH",
"1030 799 OFFCURVE",
"1082 901 OFFCURVE",
"1082 1036 CURVE SMOOTH",
"1082 1175 OFFCURVE",
"1029 1278 OFFCURVE",
"911 1370 CURVE SMOOTH",
"844 1422 OFFCURVE",
"719 1445 OFFCURVE",
"511 1445 CURVE SMOOTH",
"98 1445 LINE",
"98 -15 LINE"
);
},
{
closed = 1;
nodes = (
"434 1421 LINE",
"141 1379 LINE",
"463 1379 LINE SMOOTH",
"652 1379 OFFCURVE",
"734 1272 OFFCURVE",
"734 1026 CURVE SMOOTH",
"734 790 OFFCURVE",
"655 693 OFFCURVE",
"463 693 CURVE SMOOTH",
"173 693 LINE",
"434 640 LINE"
);
}
);
width = 1055;
},
{
layerId = "092756DD-C6BD-4F67-9765-10D57923B42B";
paths = (
{
closed = 1;
nodes = (
"257 0 LINE",
"257 658 LINE",
"227 647 LINE",
"452 647 LINE SMOOTH",
"585 647 OFFCURVE",
"683 672 OFFCURVE",
"753 716 CURVE SMOOTH",
"857 783 OFFCURVE",
"898 895 OFFCURVE",
"898 1038 CURVE SMOOTH",
"898 1175 OFFCURVE",
"860 1275 OFFCURVE",
"782 1340 CURVE SMOOTH",
"708 1400 OFFCURVE",
"599 1430 OFFCURVE",
"452 1430 CURVE SMOOTH",
"197 1430 LINE",
"197 0 LINE"
);
},
{
closed = 1;
nodes = (
"257 1416 LINE",
"209 1404 LINE",
"414 1404 LINE SMOOTH",
"724 1404 OFFCURVE",
"833 1292 OFFCURVE",
"833 1038 CURVE SMOOTH",
"833 781 OFFCURVE",
"722 673 OFFCURVE",
"414 673 CURVE SMOOTH",
"227 673 LINE",
"257 661 LINE"
);
}
);
width = 1016;
}
);
leftKerningGroup = H;
note = P;
rightKerningGroup = P;
unicode = 0050;
},
{
glyphname = Thorn;
lastChange = "2019-11-04 21:30:13 +0000";
layers = (
{
background = {
paths = (
{
closed = 1;
nodes = (
"444 470 LINE",
"522 442 OFFCURVE",
"582 430 OFFCURVE",
"676 430 CURVE SMOOTH",
"1010 430 OFFCURVE",
"1238 596 OFFCURVE",
"1238 836 CURVE SMOOTH",
"1238 990 OFFCURVE",
"1156 1102 OFFCURVE",
"996 1170 CURVE SMOOTH",
"890 1214 OFFCURVE",
"796 1228 OFFCURVE",
"622 1228 CURVE SMOOTH",
"444 1228 LINE",
"444 1394 LINE",
"662 1394 LINE",
"662 1430 LINE",
"26 1430 LINE",
"26 1394 LINE",
"234 1394 LINE",
"234 36 LINE",
"26 36 LINE",
"26 0 LINE",
"664 0 LINE",
"664 36 LINE",
"444 36 LINE"
);
},
{
closed = 1;
nodes = (
"444 1192 LINE",
"486 1196 OFFCURVE",
"504 1196 OFFCURVE",
"534 1196 CURVE SMOOTH",
"672 1196 OFFCURVE",
"786 1174 OFFCURVE",
"850 1140 CURVE SMOOTH",
"960 1078 OFFCURVE",
"1014 970 OFFCURVE",
"1014 812 CURVE SMOOTH",
"1014 710 OFFCURVE",
"994 644 OFFCURVE",
"940 586 CURVE SMOOTH",
"872 510 OFFCURVE",
"760 468 OFFCURVE",
"632 468 CURVE SMOOTH",
"556 468 OFFCURVE",
"506 478 OFFCURVE",
"444 510 CURVE"
);
}
);
};
layerId = "EA94BB3F-1054-4F03-AAB6-69C3B81B3CC3";
paths = (
{
closed = 1;
nodes = (
"462 350 LINE SMOOTH",
"672 350 OFFCURVE",
"748 362 OFFCURVE",
"822 422 CURVE SMOOTH",
"908 492 OFFCURVE",
"968 606 OFFCURVE",
"968 744 CURVE SMOOTH",
"968 877 OFFCURVE",
"913 996 OFFCURVE",
"822 1066 CURVE SMOOTH",
"754 1118 OFFCURVE",
"672 1138 OFFCURVE",
"462 1138 CURVE SMOOTH",
"311 1138 LINE",
"311 1102 LINE",
"414 1102 LINE SMOOTH",
"700 1102 OFFCURVE",
"750 916 OFFCURVE",
"750 734 CURVE SMOOTH",
"750 564 OFFCURVE",
"706 386 OFFCURVE",
"414 386 CURVE SMOOTH",
"311 386 LINE",
"311 350 LINE"
);
},
{
closed = 1;
nodes = (
"320 0 LINE",
"320 1430 LINE",
"114 1430 LINE",
"114 0 LINE"
);
}
);
width = 1006;
},
{
layerId = "1A84AFAC-8532-492C-A52A-D2ACD869B7F8";
paths = (
{
closed = 1;
nodes = (
"452 337 LINE SMOOTH",
"585 337 OFFCURVE",
"683 362 OFFCURVE",
"753 406 CURVE SMOOTH",
"858 472 OFFCURVE",
"898 585 OFFCURVE",
"898 728 CURVE SMOOTH",
"898 865 OFFCURVE",
"860 965 OFFCURVE",
"782 1030 CURVE SMOOTH",
"709 1091 OFFCURVE",
"599 1120 OFFCURVE",
"452 1120 CURVE SMOOTH",
"236 1120 LINE",
"236 1094 LINE",
"414 1094 LINE SMOOTH",
"724 1094 OFFCURVE",
"833 982 OFFCURVE",
"833 728 CURVE SMOOTH",
"833 471 OFFCURVE",
"722 363 OFFCURVE",
"414 363 CURVE SMOOTH",
"227 363 LINE",
"227 337 LINE"
);
},
{
closed = 1;
nodes = (
"257 0 LINE",
"257 1430 LINE",
"197 1430 LINE",
"197 0 LINE"
);
}
);
width = 1016;
},
{
layerId = "16E03120-9D89-4B3A-B1E3-633A6E865927";
paths = (
{
closed = 1;
nodes = (
"511 325 LINE SMOOTH",
"734 325 OFFCURVE",
"843 345 OFFCURVE",
"912 400 CURVE SMOOTH",
"1031 495 OFFCURVE",
"1082 599 OFFCURVE",
"1082 734 CURVE SMOOTH",
"1082 873 OFFCURVE",
"1029 976 OFFCURVE",
"911 1068 CURVE SMOOTH",
"844 1120 OFFCURVE",
"719 1143 OFFCURVE",
"511 1143 CURVE SMOOTH",
"418 1143 LINE",
"418 1077 LINE",
"463 1077 LINE SMOOTH",
"652 1077 OFFCURVE",
"734 970 OFFCURVE",
"734 724 CURVE SMOOTH",
"734 488 OFFCURVE",
"655 391 OFFCURVE",
"463 391 CURVE SMOOTH",
"418 391 LINE",
"418 325 LINE"
);
},
{
closed = 1;
nodes = (
"434 -15 LINE",
"434 1445 LINE",
"98 1445 LINE",
"98 -15 LINE"
);
}
);
width = 1055;
},
{
layerId = "D5C24015-3945-4844-A39C-2F638D3E2004";
paths = (
{
closed = 1;
nodes = (
"511 325 LINE SMOOTH",
"734 325 OFFCURVE",
"843 345 OFFCURVE",
"912 400 CURVE SMOOTH",
"1031 495 OFFCURVE",
"1082 599 OFFCURVE",
"1082 734 CURVE SMOOTH",
"1082 873 OFFCURVE",
"1029 976 OFFCURVE",
"911 1068 CURVE SMOOTH",
"844 1120 OFFCURVE",
"719 1143 OFFCURVE",
"511 1143 CURVE SMOOTH",
"418 1143 LINE",
"418 1077 LINE",
"463 1077 LINE SMOOTH",
"652 1077 OFFCURVE",
"734 970 OFFCURVE",
"734 724 CURVE SMOOTH",
"734 488 OFFCURVE",
"655 391 OFFCURVE",
"463 391 CURVE SMOOTH",
"418 391 LINE",
"418 325 LINE"
);
},
{
closed = 1;
nodes = (
"434 -15 LINE",
"434 1445 LINE",
"98 1445 LINE",
"98 -15 LINE"
);
}
);
width = 1055;
},
{
layerId = "A518794E-5143-4302-A915-751D2A609FF0";
paths = (
{
closed = 1;
nodes = (
"452 337 LINE SMOOTH",
"585 337 OFFCURVE",
"683 362 OFFCURVE",
"753 406 CURVE SMOOTH",
"858 472 OFFCURVE",
"898 585 OFFCURVE",
"898 728 CURVE SMOOTH",
"898 865 OFFCURVE",
"860 965 OFFCURVE",
"782 1030 CURVE SMOOTH",
"709 1091 OFFCURVE",
"599 1120 OFFCURVE",
"452 1120 CURVE SMOOTH",
"236 1120 LINE",
"236 1094 LINE",
"414 1094 LINE SMOOTH",
"724 1094 OFFCURVE",
"833 982 OFFCURVE",
"833 728 CURVE SMOOTH",
"833 471 OFFCURVE",
"722 363 OFFCURVE",
"414 363 CURVE SMOOTH",
"227 363 LINE",
"227 337 LINE"
);
},
{
closed = 1;
nodes = (
"257 0 LINE",
"257 1430 LINE",
"197 1430 LINE",
"197 0 LINE"
);
}
);
width = 1016;
},
{
layerId = "1D873E37-AF27-4769-9F86-9F16E4B4DD36";
paths = (
{
closed = 1;
nodes = (
"511 325 LINE SMOOTH",
"734 325 OFFCURVE",
"843 345 OFFCURVE",
"912 400 CURVE SMOOTH",
"1031 495 OFFCURVE",
"1082 599 OFFCURVE",
"1082 734 CURVE SMOOTH",
"1082 873 OFFCURVE",
"1029 976 OFFCURVE",
"911 1068 CURVE SMOOTH",
"844 1120 OFFCURVE",
"719 1143 OFFCURVE",
"511 1143 CURVE SMOOTH",
"418 1143 LINE",
"418 1077 LINE",
"463 1077 LINE SMOOTH",
"652 1077 OFFCURVE",
"734 970 OFFCURVE",
"734 724 CURVE SMOOTH",
"734 488 OFFCURVE",
"655 391 OFFCURVE",
"463 391 CURVE SMOOTH",
"418 391 LINE",
"418 325 LINE"
);
},
{
closed = 1;
nodes = (
"434 -15 LINE",
"434 1445 LINE",
"98 1445 LINE",
"98 -15 LINE"
);
}
);
width = 1055;
},
{
layerId = "092756DD-C6BD-4F67-9765-10D57923B42B";
paths = (
{
closed = 1;
nodes = (
"452 337 LINE SMOOTH",
"585 337 OFFCURVE",
"683 362 OFFCURVE",
"753 406 CURVE SMOOTH",
"858 472 OFFCURVE",
"898 585 OFFCURVE",
"898 728 CURVE SMOOTH",
"898 865 OFFCURVE",
"860 965 OFFCURVE",
"782 1030 CURVE SMOOTH",
"709 1091 OFFCURVE",
"599 1120 OFFCURVE",
"452 1120 CURVE SMOOTH",
"236 1120 LINE",
"236 1094 LINE",
"414 1094 LINE SMOOTH",
"724 1094 OFFCURVE",
"833 982 OFFCURVE",
"833 728 CURVE SMOOTH",
"833 471 OFFCURVE",
"722 363 OFFCURVE",
"414 363 CURVE SMOOTH",
"227 363 LINE",
"227 337 LINE"
);
},
{
closed = 1;
nodes = (
"257 0 LINE",
"257 1430 LINE",
"197 1430 LINE",
"197 0 LINE"
);
}
);
width = 1016;
}
);
leftKerningGroup = H;
note = Thorn;
rightKerningGroup = Thorn;
unicode = 00DE;
},
{
glyphname = Q;
lastChange = "2019-11-04 21:30:13 +0000";
layers = (
{
background = {
paths = (
{
closed = 1;
nodes = (
"976 -18 LINE",
"1080 8 OFFCURVE",
"1138 34 OFFCURVE",
"1210 84 CURVE SMOOTH",
"1420 220 OFFCURVE",
"1542 454 OFFCURVE",
"1542 712 CURVE SMOOTH",
"1542 884 OFFCURVE",
"1488 1052 OFFCURVE",
"1388 1184 CURVE SMOOTH",
"1262 1346 OFFCURVE",
"1054 1460 OFFCURVE",
"876 1460 CURVE SMOOTH",
"726 1460 OFFCURVE",
"556 1382 OFFCURVE",
"428 1252 CURVE SMOOTH",
"282 1106 OFFCURVE",
"208 928 OFFCURVE",
"208 722 CURVE SMOOTH",
"208 364 OFFCURVE",
"432 66 OFFCURVE",
"772 -18 CURVE",
"772 -188 LINE SMOOTH",
"772 -258 OFFCURVE",
"790 -302 OFFCURVE",
"834 -336 CURVE SMOOTH",
"896 -388 OFFCURVE",
"1070 -428 OFFCURVE",
"1224 -428 CURVE SMOOTH",
"1262 -428 OFFCURVE",
"1292 -428 OFFCURVE",
"1348 -424 CURVE",
"1348 -388 LINE",
"1300 -392 OFFCURVE",
"1260 -394 OFFCURVE",
"1230 -394 CURVE SMOOTH",
"1146 -394 OFFCURVE",
"1070 -378 OFFCURVE",
"1024 -348 CURVE SMOOTH",
"988 -324 OFFCURVE",
"976 -292 OFFCURVE",
"976 -220 CURVE SMOOTH"
);
},
{
closed = 1;
nodes = (
"1152 1428 OFFCURVE",
"1306 1172 OFFCURVE",
"1306 720 CURVE SMOOTH",
"1306 242 OFFCURVE",
"1164 6 OFFCURVE",
"874 6 CURVE SMOOTH",
"588 6 OFFCURVE",
"446 244 OFFCURVE",
"446 718 CURVE SMOOTH",
"446 1184 OFFCURVE",
"596 1428 OFFCURVE",
"882 1428 CURVE SMOOTH"
);
}
);
};
components = (
{
name = O;
}
);
layerId = "EA94BB3F-1054-4F03-AAB6-69C3B81B3CC3";
paths = (
{
closed = 1;
nodes = (
"1098 -408 OFFCURVE",
"1136 -394 OFFCURVE",
"1136 -350 CURVE",
"1036 -350 LINE SMOOTH",
"894 -350 OFFCURVE",
"822 -272 OFFCURVE",
"822 -196 CURVE SMOOTH",
"822 -8 LINE",
"628 -8 LINE",
"628 -182 LINE SMOOTH",
"628 -290 OFFCURVE",
"693 -342 OFFCURVE",
"773 -371 CURVE SMOOTH",
"842 -396 OFFCURVE",
"934 -408 OFFCURVE",
"1013 -408 CURVE SMOOTH"
);
}
);
width = 1514;
},
{
components = (
{
name = O;
transform = "{1, 0, 0, 1.007, 0, -4}";
}
);
layerId = "1A84AFAC-8532-492C-A52A-D2ACD869B7F8";
paths = (
{
closed = 1;
nodes = (
"1022 -379 OFFCURVE",
"1046 -374 OFFCURVE",
"1048 -353 CURVE",
"1011 -353 LINE SMOOTH",
"845 -353 OFFCURVE",
"743 -305 OFFCURVE",
"743 -161 CURVE SMOOTH",
"743 3 LINE",
"696 3 LINE",
"696 -177 LINE SMOOTH",
"696 -260 OFFCURVE",
"742 -311 OFFCURVE",
"784 -338 CURVE SMOOTH",
"828 -366 OFFCURVE",
"880 -379 OFFCURVE",
"968 -379 CURVE SMOOTH"
);
}
);
width = 1480;
},
{
components = (
{
name = O;
}
);
layerId = "16E03120-9D89-4B3A-B1E3-633A6E865927";
paths = (
{
closed = 1;
nodes = (
"1137 -423 OFFCURVE",
"1189 -412 OFFCURVE",
"1189 -335 CURVE",
"1026 -335 LINE SMOOTH",
"930 -335 OFFCURVE",
"877 -286 OFFCURVE",
"877 -196 CURVE SMOOTH",
"877 7 LINE",
"553 7 LINE",
"553 -182 LINE SMOOTH",
"553 -280 OFFCURVE",
"642 -349 OFFCURVE",
"741 -385 CURVE SMOOTH",
"834 -419 OFFCURVE",
"922 -423 OFFCURVE",
"1003 -423 CURVE SMOOTH"
);
}
);
width = 1584;
},
{
components = (
{
name = O;
}
);
layerId = "D5C24015-3945-4844-A39C-2F638D3E2004";
paths = (
{
closed = 1;
nodes = (
"1137 -423 OFFCURVE",
"1189 -412 OFFCURVE",
"1189 -335 CURVE",
"1026 -335 LINE SMOOTH",
"930 -335 OFFCURVE",
"877 -286 OFFCURVE",
"877 -196 CURVE SMOOTH",
"877 7 LINE",
"553 7 LINE",
"553 -182 LINE SMOOTH",
"553 -280 OFFCURVE",
"642 -349 OFFCURVE",
"741 -385 CURVE SMOOTH",
"834 -419 OFFCURVE",
"922 -423 OFFCURVE",
"1003 -423 CURVE SMOOTH"
);
}
);
width = 1584;
},
{
components = (
{
name = O;
transform = "{1, 0, 0, 1.007, 0, -4}";
}
);
layerId = "A518794E-5143-4302-A915-751D2A609FF0";
paths = (
{
closed = 1;
nodes = (
"1022 -379 OFFCURVE",
"1046 -374 OFFCURVE",
"1048 -353 CURVE",
"1011 -353 LINE SMOOTH",
"845 -353 OFFCURVE",
"743 -305 OFFCURVE",
"743 -161 CURVE SMOOTH",
"743 3 LINE",
"696 3 LINE",
"696 -177 LINE SMOOTH",
"696 -260 OFFCURVE",
"742 -311 OFFCURVE",
"784 -338 CURVE SMOOTH",
"828 -366 OFFCURVE",
"880 -379 OFFCURVE",
"968 -379 CURVE SMOOTH"
);
}
);
width = 1480;
},
{
components = (
{
name = O;
}
);
layerId = "1D873E37-AF27-4769-9F86-9F16E4B4DD36";
paths = (
{
closed = 1;
nodes = (
"1137 -423 OFFCURVE",
"1189 -412 OFFCURVE",
"1189 -335 CURVE",
"1026 -335 LINE SMOOTH",
"930 -335 OFFCURVE",
"877 -286 OFFCURVE",
"877 -196 CURVE SMOOTH",
"877 7 LINE",
"553 7 LINE",
"553 -182 LINE SMOOTH",
"553 -280 OFFCURVE",
"642 -349 OFFCURVE",
"741 -385 CURVE SMOOTH",
"834 -419 OFFCURVE",
"922 -423 OFFCURVE",
"1003 -423 CURVE SMOOTH"
);
}
);
width = 1584;
},
{
components = (
{
name = O;
transform = "{1, 0, 0, 1.007, 0, -4}";
}
);
layerId = "092756DD-C6BD-4F67-9765-10D57923B42B";
paths = (
{
closed = 1;
nodes = (
"1022 -379 OFFCURVE",
"1046 -374 OFFCURVE",
"1048 -353 CURVE",
"1011 -353 LINE SMOOTH",
"845 -353 OFFCURVE",
"743 -305 OFFCURVE",
"743 -161 CURVE SMOOTH",
"743 3 LINE",
"696 3 LINE",
"696 -177 LINE SMOOTH",
"696 -260 OFFCURVE",
"742 -311 OFFCURVE",
"784 -338 CURVE SMOOTH",
"828 -366 OFFCURVE",
"880 -379 OFFCURVE",
"968 -379 CURVE SMOOTH"
);
}
);
width = 1480;
}
);
leftKerningGroup = O;
leftMetricsKey = O;
note = Q;
rightKerningGroup = O;
rightMetricsKey = O;
unicode = 0051;
},
{
glyphname = R;
lastChange = "2019-11-04 21:30:13 +0000";
layers = (
{
anchors = (
{
name = bottom;
position = "{560, 0}";
},
{
name = top;
position = "{560, 1430}";
}
);
background = {
anchors = (
{
name = bottom;
position = "{596, 0}";
},
{
name = top;
position = "{576, 1430}";
}
);
paths = (
{
closed = 1;
nodes = (
"320 0 LINE",
"320 740 LINE",
"456 740 LINE SMOOTH",
"748 740 OFFCURVE",
"706 612 OFFCURVE",
"854 0 CURVE",
"1076 0 LINE",
"924 560 OFFCURVE",
"982 760 OFFCURVE",
"680 760 CURVE",
"796 758 OFFCURVE",
"846 788 OFFCURVE",
"878 814 CURVE SMOOTH",
"954 876 OFFCURVE",
"1010 962 OFFCURVE",
"1010 1084 CURVE SMOOTH",
"1010 1312 OFFCURVE",
"816 1430 OFFCURVE",
"506 1430 CURVE SMOOTH",
"114 1430 LINE",
"114 0 LINE"
);
},
{
closed = 1;
nodes = (
"320 1394 LINE",
"506 1394 LINE SMOOTH",
"762 1394 OFFCURVE",
"792 1218 OFFCURVE",
"792 1074 CURVE SMOOTH",
"792 904 OFFCURVE",
"748 776 OFFCURVE",
"506 776 CURVE SMOOTH",
"320 776 LINE"
);
}
);
};
layerId = "EA94BB3F-1054-4F03-AAB6-69C3B81B3CC3";
paths = (
{
closed = 1;
nodes = (
"320 0 LINE",
"320 733 LINE",
"227 720 LINE",
"456 720 LINE SMOOTH",
"603 720 OFFCURVE",
"662 691 OFFCURVE",
"705 597 CURVE SMOOTH",
"731 542 OFFCURVE",
"740 507 OFFCURVE",
"804 219 CURVE SMOOTH",
"826 120 OFFCURVE",
"839 61 OFFCURVE",
"854 0 CURVE",
"1076 0 LINE",
"1054 78 OFFCURVE",
"1035 158 OFFCURVE",
"1011 268 CURVE SMOOTH",
"943 576 OFFCURVE",
"928 623 OFFCURVE",
"878 675 CURVE SMOOTH",
"837 717 OFFCURVE",
"775 737 OFFCURVE",
"680 738 CURVE",
"680 742 LINE",
"882 742 OFFCURVE",
"1010 860 OFFCURVE",
"1010 1072 CURVE SMOOTH",
"1010 1319 OFFCURVE",
"835 1430 OFFCURVE",
"506 1430 CURVE SMOOTH",
"114 1430 LINE",
"114 0 LINE"
);
},
{
closed = 1;
nodes = (
"320 1407 LINE",
"227 1394 LINE",
"506 1394 LINE SMOOTH",
"762 1394 OFFCURVE",
"792 1218 OFFCURVE",
"792 1076 CURVE SMOOTH",
"792 903 OFFCURVE",
"748 756 OFFCURVE",
"506 756 CURVE SMOOTH",
"227 756 LINE",
"320 743 LINE"
);
}
);
width = 1120;
},
{
anchors = (
{
name = bottom;
position = "{508, 0}";
},
{
name = top;
position = "{508, 1430}";
}
);
background = {
paths = (
{
closed = 1;
nodes = (
"257 0 LINE",
"257 692 LINE",
"212 687 LINE",
"436 687 LINE SMOOTH",
"563 687 OFFCURVE",
"673 680 OFFCURVE",
"709 622 CURVE SMOOTH",
"744 566 OFFCURVE",
"767 475 OFFCURVE",
"824 220 CURVE SMOOTH",
"851 99 OFFCURVE",
"865 34 OFFCURVE",
"873 0 CURVE",
"943 0 LINE",
"917 92 OFFCURVE",
"898 171 OFFCURVE",
"877 267 CURVE SMOOTH",
"837 448 OFFCURVE",
"806 599 OFFCURVE",
"754 659 CURVE SMOOTH",
"728 689 OFFCURVE",
"688 705 OFFCURVE",
"651 710 CURVE",
"651 711 LINE",
"824 758 OFFCURVE",
"898 857 OFFCURVE",
"898 1068 CURVE SMOOTH",
"898 1326 OFFCURVE",
"742 1430 OFFCURVE",
"452 1430 CURVE SMOOTH",
"197 1430 LINE",
"197 0 LINE"
);
},
{
closed = 1;
nodes = (
"257 1419 LINE",
"212 1404 LINE",
"414 1404 LINE SMOOTH",
"724 1404 OFFCURVE",
"833 1302 OFFCURVE",
"833 1068 CURVE SMOOTH",
"833 791 OFFCURVE",
"722 713 OFFCURVE",
"414 713 CURVE SMOOTH",
"212 713 LINE",
"257 705 LINE"
);
}
);
};
layerId = "1A84AFAC-8532-492C-A52A-D2ACD869B7F8";
paths = (
{
closed = 1;
nodes = (
"257 0 LINE",
"257 692 LINE",
"212 687 LINE",
"476 687 LINE SMOOTH",
"523 687 OFFCURVE",
"610 678 OFFCURVE",
"692 627 CURVE SMOOTH",
"754 588 OFFCURVE",
"768 576 OFFCURVE",
"832 250 CURVE SMOOTH",
"835 237 OFFCURVE",
"875 34 OFFCURVE",
"883 0 CURVE",
"951 0 LINE",
"927 92 OFFCURVE",
"903 219 OFFCURVE",
"882 322 CURVE SMOOTH",
"854 462 OFFCURVE",
"830 570 OFFCURVE",
"766 638 CURVE SMOOTH",
"722 685 OFFCURVE",
"676 694 OFFCURVE",
"641 701 CURVE",
"641 702 LINE",
"773 724 OFFCURVE",
"898 865 OFFCURVE",
"898 1068 CURVE SMOOTH",
"898 1334 OFFCURVE",
"682 1430 OFFCURVE",
"452 1430 CURVE SMOOTH",
"197 1430 LINE",
"197 0 LINE"
);
},
{
closed = 1;
nodes = (
"257 1419 LINE",
"212 1404 LINE",
"414 1404 LINE SMOOTH",
"664 1404 OFFCURVE",
"833 1327 OFFCURVE",
"833 1068 CURVE SMOOTH",
"833 816 OFFCURVE",
"672 713 OFFCURVE",
"454 713 CURVE SMOOTH",
"212 713 LINE",
"257 705 LINE"
);
}
);
width = 1016;
},
{
anchors = (
{
name = bottom;
position = "{585, 0}";
},
{
name = top;
position = "{585, 1430}";
}
);
layerId = "16E03120-9D89-4B3A-B1E3-633A6E865927";
paths = (
{
closed = 1;
nodes = (
"434 0 LINE",
"434 758 LINE",
"253 705 LINE",
"505 705 LINE SMOOTH",
"631 705 OFFCURVE",
"647 696 OFFCURVE",
"695 591 CURVE SMOOTH",
"713 553 OFFCURVE",
"723 512 OFFCURVE",
"790 216 CURVE SMOOTH",
"809 129 OFFCURVE",
"822 84 OFFCURVE",
"843 0 CURVE",
"1193 0 LINE",
"1172 74 OFFCURVE",
"1150 147 OFFCURVE",
"1123 271 CURVE SMOOTH",
"1051 599 OFFCURVE",
"1047 610 OFFCURVE",
"974 685 CURVE SMOOTH",
"943 717 OFFCURVE",
"849 752 OFFCURVE",
"794 752 CURVE",
"794 727 LINE",
"986 727 OFFCURVE",
"1124 871 OFFCURVE",
"1124 1072 CURVE SMOOTH",
"1124 1315 OFFCURVE",
"925 1445 OFFCURVE",
"555 1445 CURVE SMOOTH",
"98 1445 LINE",
"98 0 LINE"
);
},
{
closed = 1;
nodes = (
"434 1432 LINE",
"253 1379 LINE",
"555 1379 LINE SMOOTH",
"711 1379 OFFCURVE",
"776 1289 OFFCURVE",
"776 1076 CURVE SMOOTH",
"776 857 OFFCURVE",
"714 771 OFFCURVE",
"555 771 CURVE SMOOTH",
"253 771 LINE",
"434 718 LINE"
);
}
);
width = 1169;
},
{
anchors = (
{
name = bottom;
position = "{585, 0}";
},
{
name = top;
position = "{585, 1430}";
}
);
layerId = "D5C24015-3945-4844-A39C-2F638D3E2004";
paths = (
{
closed = 1;
nodes = (
"434 0 LINE",
"434 758 LINE",
"253 705 LINE",
"505 705 LINE SMOOTH",
"631 705 OFFCURVE",
"647 696 OFFCURVE",
"695 591 CURVE SMOOTH",
"713 553 OFFCURVE",
"723 512 OFFCURVE",
"790 216 CURVE SMOOTH",
"809 129 OFFCURVE",
"822 84 OFFCURVE",
"843 0 CURVE",
"1193 0 LINE",
"1172 74 OFFCURVE",
"1150 147 OFFCURVE",
"1123 271 CURVE SMOOTH",
"1051 599 OFFCURVE",
"1047 610 OFFCURVE",
"974 685 CURVE SMOOTH",
"943 717 OFFCURVE",
"849 752 OFFCURVE",
"794 752 CURVE",
"794 727 LINE",
"986 727 OFFCURVE",
"1124 871 OFFCURVE",
"1124 1072 CURVE SMOOTH",
"1124 1315 OFFCURVE",
"925 1445 OFFCURVE",
"555 1445 CURVE SMOOTH",
"98 1445 LINE",
"98 0 LINE"
);
},
{
closed = 1;
nodes = (
"434 1432 LINE",
"253 1379 LINE",
"555 1379 LINE SMOOTH",
"711 1379 OFFCURVE",
"776 1289 OFFCURVE",
"776 1076 CURVE SMOOTH",
"776 857 OFFCURVE",
"714 771 OFFCURVE",
"555 771 CURVE SMOOTH",
"253 771 LINE",
"434 718 LINE"
);
}
);
width = 1169;
},
{
anchors = (
{
name = bottom;
position = "{508, 0}";
},
{
name = top;
position = "{508, 1430}";
}
);
background = {
paths = (
{
closed = 1;
nodes = (
"257 0 LINE",
"257 692 LINE",
"212 687 LINE",
"436 687 LINE SMOOTH",
"563 687 OFFCURVE",
"673 680 OFFCURVE",
"709 622 CURVE SMOOTH",
"744 566 OFFCURVE",
"767 475 OFFCURVE",
"824 220 CURVE SMOOTH",
"851 99 OFFCURVE",
"865 34 OFFCURVE",
"873 0 CURVE",
"943 0 LINE",
"917 92 OFFCURVE",
"898 171 OFFCURVE",
"877 267 CURVE SMOOTH",
"837 448 OFFCURVE",
"806 599 OFFCURVE",
"754 659 CURVE SMOOTH",
"728 689 OFFCURVE",
"688 705 OFFCURVE",
"651 710 CURVE",
"651 711 LINE",
"824 758 OFFCURVE",
"898 857 OFFCURVE",
"898 1068 CURVE SMOOTH",
"898 1326 OFFCURVE",
"742 1430 OFFCURVE",
"452 1430 CURVE SMOOTH",
"197 1430 LINE",
"197 0 LINE"
);
},
{
closed = 1;
nodes = (
"257 1419 LINE",
"212 1404 LINE",
"414 1404 LINE SMOOTH",
"724 1404 OFFCURVE",
"833 1302 OFFCURVE",
"833 1068 CURVE SMOOTH",
"833 791 OFFCURVE",
"722 713 OFFCURVE",
"414 713 CURVE SMOOTH",
"212 713 LINE",
"257 705 LINE"
);
}
);
};
layerId = "A518794E-5143-4302-A915-751D2A609FF0";
paths = (
{
closed = 1;
nodes = (
"257 0 LINE",
"257 692 LINE",
"212 687 LINE",
"476 687 LINE SMOOTH",
"523 687 OFFCURVE",
"610 678 OFFCURVE",
"692 627 CURVE SMOOTH",
"754 588 OFFCURVE",
"768 576 OFFCURVE",
"832 250 CURVE SMOOTH",
"835 237 OFFCURVE",
"875 34 OFFCURVE",
"883 0 CURVE",
"951 0 LINE",
"927 92 OFFCURVE",
"903 219 OFFCURVE",
"882 322 CURVE SMOOTH",
"854 462 OFFCURVE",
"830 570 OFFCURVE",
"766 638 CURVE SMOOTH",
"722 685 OFFCURVE",
"676 694 OFFCURVE",
"641 701 CURVE",
"641 702 LINE",
"773 724 OFFCURVE",
"898 865 OFFCURVE",
"898 1068 CURVE SMOOTH",
"898 1334 OFFCURVE",
"682 1430 OFFCURVE",
"452 1430 CURVE SMOOTH",
"197 1430 LINE",
"197 0 LINE"
);
},
{
closed = 1;
nodes = (
"257 1419 LINE",
"212 1404 LINE",
"414 1404 LINE SMOOTH",
"664 1404 OFFCURVE",
"833 1327 OFFCURVE",
"833 1068 CURVE SMOOTH",
"833 816 OFFCURVE",
"672 713 OFFCURVE",
"454 713 CURVE SMOOTH",
"212 713 LINE",
"257 705 LINE"
);
}
);
width = 1016;
},
{
anchors = (
{
name = bottom;
position = "{585, 0}";
},
{
name = top;
position = "{585, 1430}";
}
);
layerId = "1D873E37-AF27-4769-9F86-9F16E4B4DD36";
paths = (
{
closed = 1;
nodes = (
"434 0 LINE",
"434 758 LINE",
"253 705 LINE",
"505 705 LINE SMOOTH",
"631 705 OFFCURVE",
"647 696 OFFCURVE",
"695 591 CURVE SMOOTH",
"713 553 OFFCURVE",
"723 512 OFFCURVE",
"790 216 CURVE SMOOTH",
"809 129 OFFCURVE",
"822 84 OFFCURVE",
"843 0 CURVE",
"1193 0 LINE",
"1172 74 OFFCURVE",
"1150 147 OFFCURVE",
"1123 271 CURVE SMOOTH",
"1051 599 OFFCURVE",
"1047 610 OFFCURVE",
"974 685 CURVE SMOOTH",
"943 717 OFFCURVE",
"849 752 OFFCURVE",
"794 752 CURVE",
"794 727 LINE",
"986 727 OFFCURVE",
"1124 871 OFFCURVE",
"1124 1072 CURVE SMOOTH",
"1124 1315 OFFCURVE",
"925 1445 OFFCURVE",
"555 1445 CURVE SMOOTH",
"98 1445 LINE",
"98 0 LINE"
);
},
{
closed = 1;
nodes = (
"434 1432 LINE",
"253 1379 LINE",
"555 1379 LINE SMOOTH",
"711 1379 OFFCURVE",
"776 1289 OFFCURVE",
"776 1076 CURVE SMOOTH",
"776 857 OFFCURVE",
"714 771 OFFCURVE",
"555 771 CURVE SMOOTH",
"253 771 LINE",
"434 718 LINE"
);
}
);
width = 1169;
},
{
anchors = (
{
name = bottom;
position = "{508, 0}";
},
{
name = top;
position = "{508, 1430}";
}
);
background = {
paths = (
{
closed = 1;
nodes = (
"257 0 LINE",
"257 692 LINE",
"212 687 LINE",
"436 687 LINE SMOOTH",
"563 687 OFFCURVE",
"673 680 OFFCURVE",
"709 622 CURVE SMOOTH",
"744 566 OFFCURVE",
"767 475 OFFCURVE",
"824 220 CURVE SMOOTH",
"851 99 OFFCURVE",
"865 34 OFFCURVE",
"873 0 CURVE",
"943 0 LINE",
"917 92 OFFCURVE",
"898 171 OFFCURVE",
"877 267 CURVE SMOOTH",
"837 448 OFFCURVE",
"806 599 OFFCURVE",
"754 659 CURVE SMOOTH",
"728 689 OFFCURVE",
"688 705 OFFCURVE",
"651 710 CURVE",
"651 711 LINE",
"824 758 OFFCURVE",
"898 857 OFFCURVE",
"898 1068 CURVE SMOOTH",
"898 1326 OFFCURVE",
"742 1430 OFFCURVE",
"452 1430 CURVE SMOOTH",
"197 1430 LINE",
"197 0 LINE"
);
},
{
closed = 1;
nodes = (
"257 1419 LINE",
"212 1404 LINE",
"414 1404 LINE SMOOTH",
"724 1404 OFFCURVE",
"833 1302 OFFCURVE",
"833 1068 CURVE SMOOTH",
"833 791 OFFCURVE",
"722 713 OFFCURVE",
"414 713 CURVE SMOOTH",
"212 713 LINE",
"257 705 LINE"
);
}
);
};
layerId = "092756DD-C6BD-4F67-9765-10D57923B42B";
paths = (
{
closed = 1;
nodes = (
"257 0 LINE",
"257 692 LINE",
"212 687 LINE",
"476 687 LINE SMOOTH",
"523 687 OFFCURVE",
"610 678 OFFCURVE",
"692 627 CURVE SMOOTH",
"754 588 OFFCURVE",
"768 576 OFFCURVE",
"832 250 CURVE SMOOTH",
"835 237 OFFCURVE",
"875 34 OFFCURVE",
"883 0 CURVE",
"951 0 LINE",
"927 92 OFFCURVE",
"903 219 OFFCURVE",
"882 322 CURVE SMOOTH",
"854 462 OFFCURVE",
"830 570 OFFCURVE",
"766 638 CURVE SMOOTH",
"722 685 OFFCURVE",
"676 694 OFFCURVE",
"641 701 CURVE",
"641 702 LINE",
"773 724 OFFCURVE",
"898 865 OFFCURVE",
"898 1068 CURVE SMOOTH",
"898 1334 OFFCURVE",
"682 1430 OFFCURVE",
"452 1430 CURVE SMOOTH",
"197 1430 LINE",
"197 0 LINE"
);
},
{
closed = 1;
nodes = (
"257 1419 LINE",
"212 1404 LINE",
"414 1404 LINE SMOOTH",
"664 1404 OFFCURVE",
"833 1327 OFFCURVE",
"833 1068 CURVE SMOOTH",
"833 816 OFFCURVE",
"672 713 OFFCURVE",
"454 713 CURVE SMOOTH",
"212 713 LINE",
"257 705 LINE"
);
}
);
width = 1016;
}
);
leftKerningGroup = H;
note = R;
rightKerningGroup = R;
unicode = 0052;
},
{
glyphname = S;
lastChange = "2019-11-04 21:30:13 +0000";
layers = (
{
anchors = (
{
name = bottom;
position = "{568, 0}";
},
{
name = top;
position = "{542, 1430}";
}
);
background = {
paths = (
{
closed = 1;
nodes = (
"134 510 LINE",
"134 -16 LINE",
"170 -16 LINE",
"178 56 OFFCURVE",
"190 80 OFFCURVE",
"226 80 CURVE SMOOTH",
"246 80 OFFCURVE",
"270 72 OFFCURVE",
"306 60 CURVE",
"372 32 LINE SMOOTH",
"490 -12 OFFCURVE",
"556 -28 OFFCURVE",
"660 -28 CURVE SMOOTH",
"932 -28 OFFCURVE",
"1120 158 OFFCURVE",
"1120 430 CURVE SMOOTH",
"1120 564 OFFCURVE",
"1074 674 OFFCURVE",
"992 738 CURVE SMOOTH",
"926 786 OFFCURVE",
"830 818 OFFCURVE",
"690 840 CURVE SMOOTH",
"582 856 LINE SMOOTH",
"328 892 OFFCURVE",
"232 964 OFFCURVE",
"232 1128 CURVE SMOOTH",
"232 1306 OFFCURVE",
"366 1428 OFFCURVE",
"560 1428 CURVE SMOOTH",
"702 1428 OFFCURVE",
"842 1362 OFFCURVE",
"914 1256 CURVE SMOOTH",
"970 1178 OFFCURVE",
"996 1100 OFFCURVE",
"1002 984 CURVE",
"1038 984 LINE",
"1038 1412 LINE",
"1002 1412 LINE",
"998 1350 OFFCURVE",
"984 1328 OFFCURVE",
"952 1330 CURVE",
"938 1330 OFFCURVE",
"926 1334 OFFCURVE",
"910 1342 CURVE SMOOTH",
"878 1362 LINE SMOOTH",
"724 1450 OFFCURVE",
"684 1462 OFFCURVE",
"576 1462 CURVE SMOOTH",
"320 1462 OFFCURVE",
"144 1286 OFFCURVE",
"144 1034 CURVE SMOOTH",
"144 918 OFFCURVE",
"184 810 OFFCURVE",
"246 748 CURVE SMOOTH",
"302 692 OFFCURVE",
"394 658 OFFCURVE",
"550 634 CURVE SMOOTH",
"662 616 LINE SMOOTH",
"808 594 OFFCURVE",
"878 570 OFFCURVE",
"936 524 CURVE",
"996 478 OFFCURVE",
"1026 414 OFFCURVE",
"1026 334 CURVE SMOOTH",
"1026 140 OFFCURVE",
"876 6 OFFCURVE",
"658 6 CURVE SMOOTH",
"484 6 OFFCURVE",
"316 96 OFFCURVE",
"238 236 CURVE SMOOTH",
"196 306 OFFCURVE",
"182 374 OFFCURVE",
"170 510 CURVE"
);
}
);
};
layerId = "EA94BB3F-1054-4F03-AAB6-69C3B81B3CC3";
paths = (
{
closed = 1;
nodes = (
"896 -26 OFFCURVE",
"1052 152 OFFCURVE",
"1052 416 CURVE SMOOTH",
"1052 698 OFFCURVE",
"875 788 OFFCURVE",
"594 876 CURVE SMOOTH",
"441 924 OFFCURVE",
"278 966 OFFCURVE",
"278 1147 CURVE SMOOTH",
"278 1293 OFFCURVE",
"385 1434 OFFCURVE",
"525 1434 CURVE SMOOTH",
"673 1434 OFFCURVE",
"820 1278 OFFCURVE",
"832 1120 CURVE",
"984 1120 LINE",
"938 1368 OFFCURVE",
"742 1464 OFFCURVE",
"542 1464 CURVE SMOOTH",
"222 1464 OFFCURVE",
"120 1218 OFFCURVE",
"120 1060 CURVE SMOOTH",
"120 865 OFFCURVE",
"275 774 OFFCURVE",
"534 682 CURVE SMOOTH",
"733 611 OFFCURVE",
"908 571 OFFCURVE",
"908 358 CURVE SMOOTH",
"908 172 OFFCURVE",
"774 10 OFFCURVE",
"584 10 CURVE SMOOTH",
"376 10 OFFCURVE",
"265 206 OFFCURVE",
"244 420 CURVE",
"82 420 LINE",
"116 54 OFFCURVE",
"352 -26 OFFCURVE",
"570 -26 CURVE SMOOTH"
);
}
);
width = 1106;
},
{
associatedMasterId = "EA94BB3F-1054-4F03-AAB6-69C3B81B3CC3";
background = {
paths = (
{
closed = 1;
nodes = (
"122 510 LINE",
"122 -16 LINE",
"158 -16 LINE",
"166 56 OFFCURVE",
"178 80 OFFCURVE",
"214 80 CURVE SMOOTH",
"234 80 OFFCURVE",
"258 72 OFFCURVE",
"294 60 CURVE",
"360 32 LINE SMOOTH",
"478 -12 OFFCURVE",
"544 -28 OFFCURVE",
"648 -28 CURVE SMOOTH",
"920 -28 OFFCURVE",
"1108 158 OFFCURVE",
"1108 430 CURVE SMOOTH",
"1108 564 OFFCURVE",
"1062 674 OFFCURVE",
"980 738 CURVE SMOOTH",
"914 786 OFFCURVE",
"818 818 OFFCURVE",
"678 840 CURVE SMOOTH",
"570 856 LINE SMOOTH",
"316 892 OFFCURVE",
"220 964 OFFCURVE",
"220 1128 CURVE SMOOTH",
"220 1306 OFFCURVE",
"354 1428 OFFCURVE",
"548 1428 CURVE SMOOTH",
"690 1428 OFFCURVE",
"830 1362 OFFCURVE",
"902 1256 CURVE SMOOTH",
"958 1178 OFFCURVE",
"984 1100 OFFCURVE",
"990 984 CURVE",
"1026 984 LINE",
"1026 1412 LINE",
"990 1412 LINE",
"986 1350 OFFCURVE",
"972 1328 OFFCURVE",
"940 1330 CURVE",
"926 1330 OFFCURVE",
"914 1334 OFFCURVE",
"898 1342 CURVE SMOOTH",
"866 1362 LINE SMOOTH",
"712 1450 OFFCURVE",
"672 1462 OFFCURVE",
"564 1462 CURVE SMOOTH",
"308 1462 OFFCURVE",
"132 1286 OFFCURVE",
"132 1034 CURVE SMOOTH",
"132 918 OFFCURVE",
"172 810 OFFCURVE",
"234 748 CURVE SMOOTH",
"290 692 OFFCURVE",
"382 658 OFFCURVE",
"538 634 CURVE SMOOTH",
"650 616 LINE SMOOTH",
"796 594 OFFCURVE",
"866 570 OFFCURVE",
"924 524 CURVE",
"984 478 OFFCURVE",
"1014 414 OFFCURVE",
"1014 334 CURVE SMOOTH",
"1014 140 OFFCURVE",
"864 6 OFFCURVE",
"646 6 CURVE SMOOTH",
"472 6 OFFCURVE",
"304 96 OFFCURVE",
"226 236 CURVE SMOOTH",
"184 306 OFFCURVE",
"170 374 OFFCURVE",
"158 510 CURVE"
);
}
);
};
layerId = "F316E7BC-0223-4E5C-A467-02236A855F32";
name = "Regular Sep 21 15, 01:08";
paths = (
{
closed = 1;
nodes = (
"932 -26 OFFCURVE",
"1092 228 OFFCURVE",
"1092 464 CURVE SMOOTH",
"1092 756 OFFCURVE",
"850 838 OFFCURVE",
"664 890 CURVE SMOOTH",
"424 958 OFFCURVE",
"266 970 OFFCURVE",
"266 1140 CURVE SMOOTH",
"266 1288 OFFCURVE",
"388 1420 OFFCURVE",
"540 1420 CURVE SMOOTH",
"698 1420 OFFCURVE",
"810 1274 OFFCURVE",
"850 1120 CURVE",
"1040 1120 LINE",
"1030 1348 OFFCURVE",
"774 1464 OFFCURVE",
"560 1464 CURVE SMOOTH",
"262 1464 OFFCURVE",
"134 1242 OFFCURVE",
"134 1036 CURVE SMOOTH",
"134 894 OFFCURVE",
"198 724 OFFCURVE",
"538 662 CURVE SMOOTH",
"706 632 OFFCURVE",
"958 552 OFFCURVE",
"958 368 CURVE SMOOTH",
"958 214 OFFCURVE",
"784 22 OFFCURVE",
"626 22 CURVE SMOOTH",
"466 22 OFFCURVE",
"276 212 OFFCURVE",
"256 420 CURVE",
"58 420 LINE",
"88 74 OFFCURVE",
"398 -26 OFFCURVE",
"604 -26 CURVE SMOOTH"
);
}
);
width = 1568;
},
{
anchors = (
{
name = bottom;
position = "{553, 0}";
},
{
name = top;
position = "{553, 1430}";
}
);
layerId = "1A84AFAC-8532-492C-A52A-D2ACD869B7F8";
paths = (
{
closed = 1;
nodes = (
"875 -26 OFFCURVE",
"999 159 OFFCURVE",
"999 384 CURVE SMOOTH",
"999 617 OFFCURVE",
"817 727 OFFCURVE",
"596 788 CURVE SMOOTH",
"350 855 OFFCURVE",
"243 968 OFFCURVE",
"243 1130 CURVE SMOOTH",
"243 1301 OFFCURVE",
"365 1438 OFFCURVE",
"549 1438 CURVE SMOOTH",
"731 1438 OFFCURVE",
"909 1303 OFFCURVE",
"925 1128 CURVE",
"972 1128 LINE",
"937 1336 OFFCURVE",
"770 1464 OFFCURVE",
"556 1464 CURVE SMOOTH",
"315 1464 OFFCURVE",
"181 1298 OFFCURVE",
"181 1112 CURVE SMOOTH",
"181 904 OFFCURVE",
"321 813 OFFCURVE",
"538 744 CURVE SMOOTH",
"784 665 OFFCURVE",
"932 589 OFFCURVE",
"932 355 CURVE SMOOTH",
"932 170 OFFCURVE",
"850 0 OFFCURVE",
"568 0 CURVE SMOOTH",
"352 0 OFFCURVE",
"208 100 OFFCURVE",
"174 393 CURVE",
"124 393 LINE",
"152 100 OFFCURVE",
"307 -26 OFFCURVE",
"564 -26 CURVE SMOOTH"
);
}
);
width = 1106;
},
{
anchors = (
{
name = bottom;
position = "{568, 0}";
},
{
name = top;
position = "{542, 1430}";
}
);
layerId = "16E03120-9D89-4B3A-B1E3-633A6E865927";
paths = (
{
closed = 1;
nodes = (
"957 -41 OFFCURVE",
"1117 93 OFFCURVE",
"1117 416 CURVE SMOOTH",
"1117 633 OFFCURVE",
"959 781 OFFCURVE",
"613 890 CURVE SMOOTH",
"412 952 OFFCURVE",
"343 1018 OFFCURVE",
"343 1147 CURVE SMOOTH",
"343 1286 OFFCURVE",
"437 1419 OFFCURVE",
"535 1419 CURVE SMOOTH",
"644 1419 OFFCURVE",
"763 1259 OFFCURVE",
"768 1105 CURVE",
"1051 1105 LINE",
"1018 1335 OFFCURVE",
"826 1479 OFFCURVE",
"552 1479 CURVE SMOOTH",
"209 1479 OFFCURVE",
"55 1349 OFFCURVE",
"55 1060 CURVE SMOOTH",
"55 891 OFFCURVE",
"177 786 OFFCURVE",
"512 668 CURVE SMOOTH",
"746 585 OFFCURVE",
"843 494 OFFCURVE",
"843 358 CURVE SMOOTH",
"843 175 OFFCURVE",
"726 25 OFFCURVE",
"584 25 CURVE SMOOTH",
"438 25 OFFCURVE",
"328 187 OFFCURVE",
"307 435 CURVE",
"16 435 LINE",
"38 123 OFFCURVE",
"228 -41 OFFCURVE",
"570 -41 CURVE SMOOTH"
);
}
);
width = 1106;
},
{
anchors = (
{
name = bottom;
position = "{568, 0}";
},
{
name = top;
position = "{542, 1430}";
}
);
layerId = "D5C24015-3945-4844-A39C-2F638D3E2004";
paths = (
{
closed = 1;
nodes = (
"957 -41 OFFCURVE",
"1117 93 OFFCURVE",
"1117 416 CURVE SMOOTH",
"1117 633 OFFCURVE",
"959 781 OFFCURVE",
"613 890 CURVE SMOOTH",
"412 952 OFFCURVE",
"343 1018 OFFCURVE",
"343 1147 CURVE SMOOTH",
"343 1286 OFFCURVE",
"437 1419 OFFCURVE",
"535 1419 CURVE SMOOTH",
"644 1419 OFFCURVE",
"763 1259 OFFCURVE",
"768 1105 CURVE",
"1051 1105 LINE",
"1018 1335 OFFCURVE",
"826 1479 OFFCURVE",
"552 1479 CURVE SMOOTH",
"209 1479 OFFCURVE",
"55 1349 OFFCURVE",
"55 1060 CURVE SMOOTH",
"55 891 OFFCURVE",
"177 786 OFFCURVE",
"512 668 CURVE SMOOTH",
"746 585 OFFCURVE",
"843 494 OFFCURVE",
"843 358 CURVE SMOOTH",
"843 175 OFFCURVE",
"726 25 OFFCURVE",
"584 25 CURVE SMOOTH",
"438 25 OFFCURVE",
"328 187 OFFCURVE",
"307 435 CURVE",
"16 435 LINE",
"38 123 OFFCURVE",
"228 -41 OFFCURVE",
"570 -41 CURVE SMOOTH"
);
}
);
width = 1106;
},
{
anchors = (
{
name = bottom;
position = "{553, 0}";
},
{
name = top;
position = "{553, 1430}";
}
);
layerId = "A518794E-5143-4302-A915-751D2A609FF0";
paths = (
{
closed = 1;
nodes = (
"875 -26 OFFCURVE",
"999 159 OFFCURVE",
"999 384 CURVE SMOOTH",
"999 617 OFFCURVE",
"817 727 OFFCURVE",
"596 788 CURVE SMOOTH",
"350 855 OFFCURVE",
"243 968 OFFCURVE",
"243 1130 CURVE SMOOTH",
"243 1301 OFFCURVE",
"365 1438 OFFCURVE",
"549 1438 CURVE SMOOTH",
"731 1438 OFFCURVE",
"909 1303 OFFCURVE",
"925 1128 CURVE",
"972 1128 LINE",
"937 1336 OFFCURVE",
"770 1464 OFFCURVE",
"556 1464 CURVE SMOOTH",
"315 1464 OFFCURVE",
"181 1298 OFFCURVE",
"181 1112 CURVE SMOOTH",
"181 904 OFFCURVE",
"321 813 OFFCURVE",
"538 744 CURVE SMOOTH",
"784 665 OFFCURVE",
"932 589 OFFCURVE",
"932 355 CURVE SMOOTH",
"932 170 OFFCURVE",
"850 0 OFFCURVE",
"568 0 CURVE SMOOTH",
"352 0 OFFCURVE",
"208 100 OFFCURVE",
"174 393 CURVE",
"124 393 LINE",
"152 100 OFFCURVE",
"307 -26 OFFCURVE",
"564 -26 CURVE SMOOTH"
);
}
);
width = 1106;
},
{
anchors = (
{
name = bottom;
position = "{568, 0}";
},
{
name = top;
position = "{542, 1430}";
}
);
layerId = "1D873E37-AF27-4769-9F86-9F16E4B4DD36";
paths = (
{
closed = 1;
nodes = (
"957 -41 OFFCURVE",
"1117 93 OFFCURVE",
"1117 416 CURVE SMOOTH",
"1117 633 OFFCURVE",
"959 781 OFFCURVE",
"613 890 CURVE SMOOTH",
"412 952 OFFCURVE",
"343 1018 OFFCURVE",
"343 1147 CURVE SMOOTH",
"343 1286 OFFCURVE",
"437 1419 OFFCURVE",
"535 1419 CURVE SMOOTH",
"644 1419 OFFCURVE",
"763 1259 OFFCURVE",
"768 1105 CURVE",
"1051 1105 LINE",
"1018 1335 OFFCURVE",
"826 1479 OFFCURVE",
"552 1479 CURVE SMOOTH",
"209 1479 OFFCURVE",
"55 1349 OFFCURVE",
"55 1060 CURVE SMOOTH",
"55 891 OFFCURVE",
"177 786 OFFCURVE",
"512 668 CURVE SMOOTH",
"746 585 OFFCURVE",
"843 494 OFFCURVE",
"843 358 CURVE SMOOTH",
"843 175 OFFCURVE",
"726 25 OFFCURVE",
"584 25 CURVE SMOOTH",
"438 25 OFFCURVE",
"328 187 OFFCURVE",
"307 435 CURVE",
"16 435 LINE",
"38 123 OFFCURVE",
"228 -41 OFFCURVE",
"570 -41 CURVE SMOOTH"
);
}
);
width = 1106;
},
{
anchors = (
{
name = bottom;
position = "{553, 0}";
},
{
name = top;
position = "{553, 1430}";
}
);
layerId = "092756DD-C6BD-4F67-9765-10D57923B42B";
paths = (
{
closed = 1;
nodes = (
"875 -26 OFFCURVE",
"999 159 OFFCURVE",
"999 384 CURVE SMOOTH",
"999 617 OFFCURVE",
"817 727 OFFCURVE",
"596 788 CURVE SMOOTH",
"350 855 OFFCURVE",
"243 968 OFFCURVE",
"243 1130 CURVE SMOOTH",
"243 1301 OFFCURVE",
"365 1438 OFFCURVE",
"549 1438 CURVE SMOOTH",
"731 1438 OFFCURVE",
"909 1303 OFFCURVE",
"925 1128 CURVE",
"972 1128 LINE",
"937 1336 OFFCURVE",
"770 1464 OFFCURVE",
"556 1464 CURVE SMOOTH",
"315 1464 OFFCURVE",
"181 1298 OFFCURVE",
"181 1112 CURVE SMOOTH",
"181 904 OFFCURVE",
"321 813 OFFCURVE",
"538 744 CURVE SMOOTH",
"784 665 OFFCURVE",
"932 589 OFFCURVE",
"932 355 CURVE SMOOTH",
"932 170 OFFCURVE",
"850 0 OFFCURVE",
"568 0 CURVE SMOOTH",
"352 0 OFFCURVE",
"208 100 OFFCURVE",
"174 393 CURVE",
"124 393 LINE",
"152 100 OFFCURVE",
"307 -26 OFFCURVE",
"564 -26 CURVE SMOOTH"
);
}
);
width = 1106;
}
);
leftKerningGroup = S;
note = S;
rightKerningGroup = S;
unicode = 0053;
},
{
glyphname = Scedilla;
lastChange = "2019-11-04 21:30:13 +0000";
layers = (
{
background = {
paths = (
{
closed = 1;
nodes = (
"114 -14 LINE",
"148 -14 LINE",
"154 52 OFFCURVE",
"166 74 OFFCURVE",
"200 74 CURVE SMOOTH",
"218 74 OFFCURVE",
"240 68 OFFCURVE",
"274 56 CURVE",
"434 -8 OFFCURVE",
"448 -12 OFFCURVE",
"550 -24 CURVE",
"438 -216 LINE",
"454 -230 LINE",
"492 -210 OFFCURVE",
"502 -206 OFFCURVE",
"528 -206 CURVE SMOOTH",
"586 -206 OFFCURVE",
"626 -242 OFFCURVE",
"626 -292 CURVE SMOOTH",
"626 -350 OFFCURVE",
"578 -392 OFFCURVE",
"512 -392 CURVE SMOOTH",
"464 -392 OFFCURVE",
"406 -380 OFFCURVE",
"368 -360 CURVE",
"354 -388 LINE",
"414 -416 OFFCURVE",
"480 -432 OFFCURVE",
"540 -432 CURVE SMOOTH",
"664 -432 OFFCURVE",
"756 -372 OFFCURVE",
"756 -290 CURVE SMOOTH",
"756 -220 OFFCURVE",
"692 -170 OFFCURVE",
"600 -170 CURVE SMOOTH",
"562 -170 OFFCURVE",
"534 -176 OFFCURVE",
"490 -192 CURVE",
"586 -26 LINE",
"608 -26 LINE SMOOTH",
"858 -26 OFFCURVE",
"1034 150 OFFCURVE",
"1034 400 CURVE SMOOTH",
"1034 526 OFFCURVE",
"992 628 OFFCURVE",
"914 688 CURVE SMOOTH",
"852 734 OFFCURVE",
"764 764 OFFCURVE",
"632 784 CURVE SMOOTH",
"532 798 LINE SMOOTH",
"294 832 OFFCURVE",
"206 900 OFFCURVE",
"206 1052 CURVE SMOOTH",
"206 1218 OFFCURVE",
"330 1332 OFFCURVE",
"512 1332 CURVE SMOOTH",
"644 1332 OFFCURVE",
"774 1270 OFFCURVE",
"842 1172 CURVE SMOOTH",
"894 1098 OFFCURVE",
"918 1026 OFFCURVE",
"924 918 CURVE",
"958 918 LINE",
"958 1318 LINE",
"924 1318 LINE",
"920 1260 OFFCURVE",
"906 1238 OFFCURVE",
"876 1240 CURVE",
"864 1240 OFFCURVE",
"852 1244 OFFCURVE",
"838 1252 CURVE SMOOTH",
"808 1270 LINE SMOOTH",
"664 1352 OFFCURVE",
"626 1364 OFFCURVE",
"526 1364 CURVE SMOOTH",
"288 1364 OFFCURVE",
"124 1200 OFFCURVE",
"124 964 CURVE SMOOTH",
"124 856 OFFCURVE",
"160 756 OFFCURVE",
"218 698 CURVE SMOOTH",
"270 646 OFFCURVE",
"356 614 OFFCURVE",
"502 592 CURVE SMOOTH",
"606 574 LINE SMOOTH",
"742 554 OFFCURVE",
"808 532 OFFCURVE",
"862 488 CURVE",
"918 446 OFFCURVE",
"946 386 OFFCURVE",
"946 312 CURVE SMOOTH",
"946 130 OFFCURVE",
"806 6 OFFCURVE",
"602 6 CURVE SMOOTH",
"440 6 OFFCURVE",
"284 90 OFFCURVE",
"210 220 CURVE SMOOTH",
"172 286 OFFCURVE",
"158 348 OFFCURVE",
"148 476 CURVE",
"114 476 LINE"
);
}
);
};
components = (
{
name = S;
},
{
name = cedillacomb;
transform = "{1, 0, 0, 1, 324, -20}";
}
);
layerId = "EA94BB3F-1054-4F03-AAB6-69C3B81B3CC3";
width = 1106;
},
{
components = (
{
name = S;
},
{
name = cedillacomb;
transform = "{1, 0, 0, 1, 385, 0}";
}
);
layerId = "1A84AFAC-8532-492C-A52A-D2ACD869B7F8";
width = 1106;
},
{
components = (
{
name = S;
},
{
name = cedillacomb;
transform = "{1, 0, 0, 1, 317, -10}";
}
);
layerId = "16E03120-9D89-4B3A-B1E3-633A6E865927";
width = 1106;
},
{
components = (
{
name = S;
},
{
name = cedillacomb;
transform = "{1, 0, 0, 1, 317, -10}";
}
);
layerId = "D5C24015-3945-4844-A39C-2F638D3E2004";
width = 1106;
},
{
components = (
{
name = S;
},
{
name = cedillacomb;
transform = "{1, 0, 0, 1, 385, 0}";
}
);
layerId = "A518794E-5143-4302-A915-751D2A609FF0";
width = 1106;
},
{
components = (
{
name = S;
},
{
name = cedillacomb;
transform = "{1, 0, 0, 1, 317, -10}";
}
);
layerId = "1D873E37-AF27-4769-9F86-9F16E4B4DD36";
width = 1106;
},
{
components = (
{
name = S;
},
{
name = cedillacomb;
transform = "{1, 0, 0, 1, 385, 0}";
}
);
layerId = "092756DD-C6BD-4F67-9765-10D57923B42B";
width = 1106;
}
);
leftKerningGroup = S;
note = Scedilla;
rightKerningGroup = S;
unicode = 015E;
},
{
color = 1;
glyphname = T;
lastChange = "2019-11-04 21:30:13 +0000";
layers = (
{
anchors = (
{
name = bottom;
position = "{590, 0}";
},
{
name = center;
position = "{590, 716}";
},
{
name = top;
position = "{590, 1430}";
}
);
background = {
paths = (
{
closed = 1;
nodes = (
"534 1300 LINE",
"534 34 LINE",
"320 34 LINE",
"320 0 LINE",
"942 0 LINE",
"942 34 LINE",
"728 34 LINE",
"728 1300 LINE",
"790 1300 LINE SMOOTH",
"866 1300 OFFCURVE",
"946 1294 OFFCURVE",
"1002 1284 CURVE SMOOTH",
"1108 1264 OFFCURVE",
"1154 1234 OFFCURVE",
"1174 1170 CURVE SMOOTH",
"1190 1118 OFFCURVE",
"1200 1044 OFFCURVE",
"1200 962 CURVE SMOOTH",
"1200 934 LINE",
"1234 934 LINE",
"1218 1334 LINE",
"44 1334 LINE",
"28 934 LINE",
"62 934 LINE",
"62 960 LINE SMOOTH",
"62 1120 OFFCURVE",
"84 1194 OFFCURVE",
"148 1234 CURVE",
"222 1284 OFFCURVE",
"306 1300 OFFCURVE",
"500 1300 CURVE SMOOTH"
);
}
);
};
layerId = "EA94BB3F-1054-4F03-AAB6-69C3B81B3CC3";
paths = (
{
closed = 1;
nodes = (
"694 0 LINE",
"694 1417 LINE",
"601 1394 LINE",
"1118 1394 LINE",
"1118 1430 LINE",
"60 1430 LINE",
"60 1394 LINE",
"581 1394 LINE",
"488 1417 LINE",
"488 0 LINE"
);
}
);
width = 1178;
},
{
anchors = (
{
name = bottom;
position = "{535, 0}";
},
{
name = center;
position = "{535, 715}";
},
{
name = top;
position = "{535, 1430}";
}
);
layerId = "1A84AFAC-8532-492C-A52A-D2ACD869B7F8";
paths = (
{
closed = 1;
nodes = (
"566 0 LINE",
"566 1419 LINE",
"541 1404 LINE",
"1031 1404 LINE",
"1031 1430 LINE",
"39 1430 LINE",
"39 1404 LINE",
"529 1404 LINE",
"504 1419 LINE",
"504 0 LINE"
);
}
);
width = 1070;
},
{
anchors = (
{
name = bottom;
position = "{590, 0}";
},
{
name = center;
position = "{590, 716}";
},
{
name = top;
position = "{590, 1430}";
}
);
layerId = "16E03120-9D89-4B3A-B1E3-633A6E865927";
paths = (
{
closed = 1;
nodes = (
"759 -15 LINE",
"759 1411 LINE",
"466 1379 LINE",
"1183 1379 LINE",
"1183 1445 LINE",
"-5 1445 LINE",
"-5 1379 LINE",
"716 1379 LINE",
"423 1411 LINE",
"423 -15 LINE"
);
}
);
width = 1178;
},
{
anchors = (
{
name = bottom;
position = "{590, 0}";
},
{
name = center;
position = "{590, 716}";
},
{
name = top;
position = "{590, 1430}";
}
);
layerId = "D5C24015-3945-4844-A39C-2F638D3E2004";
paths = (
{
closed = 1;
nodes = (
"759 -15 LINE",
"759 1411 LINE",
"466 1379 LINE",
"1183 1379 LINE",
"1183 1445 LINE",
"-5 1445 LINE",
"-5 1379 LINE",
"716 1379 LINE",
"423 1411 LINE",
"423 -15 LINE"
);
}
);
width = 1178;
},
{
anchors = (
{
name = bottom;
position = "{535, 0}";
},
{
name = center;
position = "{535, 715}";
},
{
name = top;
position = "{535, 1430}";
}
);
layerId = "A518794E-5143-4302-A915-751D2A609FF0";
paths = (
{
closed = 1;
nodes = (
"566 0 LINE",
"566 1419 LINE",
"541 1404 LINE",
"1031 1404 LINE",
"1031 1430 LINE",
"39 1430 LINE",
"39 1404 LINE",
"529 1404 LINE",
"504 1419 LINE",
"504 0 LINE"
);
}
);
width = 1070;
},
{
anchors = (
{
name = bottom;
position = "{590, 0}";
},
{
name = center;
position = "{590, 716}";
},
{
name = top;
position = "{590, 1430}";
}
);
layerId = "1D873E37-AF27-4769-9F86-9F16E4B4DD36";
paths = (
{
closed = 1;
nodes = (
"759 -15 LINE",
"759 1411 LINE",
"466 1379 LINE",
"1183 1379 LINE",
"1183 1445 LINE",
"-5 1445 LINE",
"-5 1379 LINE",
"716 1379 LINE",
"423 1411 LINE",
"423 -15 LINE"
);
}
);
width = 1178;
},
{
anchors = (
{
name = bottom;
position = "{535, 0}";
},
{
name = center;
position = "{535, 715}";
},
{
name = top;
position = "{535, 1430}";
}
);
layerId = "092756DD-C6BD-4F67-9765-10D57923B42B";
paths = (
{
closed = 1;
nodes = (
"566 0 LINE",
"566 1419 LINE",
"541 1404 LINE",
"1031 1404 LINE",
"1031 1430 LINE",
"39 1430 LINE",
"39 1404 LINE",
"529 1404 LINE",
"504 1419 LINE",
"504 0 LINE"
);
}
);
width = 1070;
}
);
leftKerningGroup = T;
note = T;
rightKerningGroup = T;
unicode = 0054;
},
{
color = 1;
glyphname = U;
lastChange = "2019-11-04 21:30:13 +0000";
layers = (
{
anchors = (
{
name = bottom;
position = "{646, 13}";
},
{
name = ogonek;
position = "{904, 33}";
},
{
name = top;
position = "{646, 1443}";
},
{
name = topright;
position = "{1326, 1443}";
}
);
background = {
paths = (
{
closed = 1;
nodes = (
"768 697 LINE",
"768 715 LINE",
"521 715 LINE",
"521 697 LINE",
"573 697 LINE SMOOTH",
"635 697 OFFCURVE",
"646 684 OFFCURVE",
"646 609 CURVE SMOOTH",
"646 240 LINE SMOOTH",
"646 158 OFFCURVE",
"636 120 OFFCURVE",
"605 80 CURVE SMOOTH",
"564 29 OFFCURVE",
"503 4 OFFCURVE",
"421 4 CURVE SMOOTH",
"343 4 OFFCURVE",
"287 25 OFFCURVE",
"248 64 CURVE SMOOTH",
"218 96 OFFCURVE",
"212 123 OFFCURVE",
"212 218 CURVE SMOOTH",
"212 697 LINE",
"323 697 LINE",
"323 715 LINE",
"2 715 LINE",
"2 697 LINE",
"105 697 LINE",
"105 223 LINE SMOOTH",
"105 125 OFFCURVE",
"111 100 OFFCURVE",
"141 65 CURVE SMOOTH",
"188 11 OFFCURVE",
"268 -15 OFFCURVE",
"394 -15 CURVE SMOOTH",
"485 -15 OFFCURVE",
"547 2 OFFCURVE",
"593 41 CURVE SMOOTH",
"644 84 OFFCURVE",
"664 141 OFFCURVE",
"664 243 CURVE SMOOTH",
"664 609 LINE SMOOTH",
"664 682 OFFCURVE",
"675 697 OFFCURVE",
"724 697 CURVE SMOOTH"
);
}
);
};
layerId = "EA94BB3F-1054-4F03-AAB6-69C3B81B3CC3";
paths = (
{
closed = 1;
nodes = (
"970 -26 OFFCURVE",
"1234 236 OFFCURVE",
"1234 560 CURVE SMOOTH",
"1234 1430 LINE",
"1198 1430 LINE",
"1198 552 LINE SMOOTH",
"1198 212 OFFCURVE",
"900 10 OFFCURVE",
"650 10 CURVE SMOOTH",
"458 10 OFFCURVE",
"268 130 OFFCURVE",
"268 552 CURVE SMOOTH",
"268 1430 LINE",
"62 1430 LINE",
"62 560 LINE SMOOTH",
"62 236 OFFCURVE",
"326 -26 OFFCURVE",
"648 -26 CURVE SMOOTH"
);
}
);
width = 1296;
},
{
associatedMasterId = "EA94BB3F-1054-4F03-AAB6-69C3B81B3CC3";
background = {
paths = (
{
closed = 1;
nodes = (
"722 650 LINE",
"722 667 LINE",
"492 667 LINE",
"492 650 LINE",
"540 650 LINE SMOOTH",
"598 650 OFFCURVE",
"608 638 OFFCURVE",
"608 568 CURVE SMOOTH",
"608 224 LINE SMOOTH",
"608 147 OFFCURVE",
"599 112 OFFCURVE",
"570 75 CURVE SMOOTH",
"532 27 OFFCURVE",
"475 4 OFFCURVE",
"398 4 CURVE SMOOTH",
"326 4 OFFCURVE",
"273 23 OFFCURVE",
"237 60 CURVE SMOOTH",
"209 90 OFFCURVE",
"203 115 OFFCURVE",
"203 203 CURVE SMOOTH",
"203 650 LINE",
"307 650 LINE",
"307 667 LINE",
"7 667 LINE",
"7 650 LINE",
"104 650 LINE",
"104 208 LINE SMOOTH",
"104 117 OFFCURVE",
"109 93 OFFCURVE",
"137 61 CURVE SMOOTH",
"181 10 OFFCURVE",
"256 -14 OFFCURVE",
"373 -14 CURVE SMOOTH",
"458 -14 OFFCURVE",
"516 2 OFFCURVE",
"559 38 CURVE SMOOTH",
"606 78 OFFCURVE",
"625 132 OFFCURVE",
"625 227 CURVE SMOOTH",
"625 568 LINE SMOOTH",
"625 636 OFFCURVE",
"635 650 OFFCURVE",
"681 650 CURVE SMOOTH"
);
}
);
};
layerId = "D5373BAD-2ADC-4B72-8FF4-EE0AE5993387";
name = guide;
paths = (
{
closed = 1;
nodes = (
"522 -13 OFFCURVE",
"654 118 OFFCURVE",
"654 280 CURVE SMOOTH",
"654 441 OFFCURVE",
"522 572 OFFCURVE",
"361 572 CURVE SMOOTH",
"200 572 OFFCURVE",
"68 441 OFFCURVE",
"68 280 CURVE SMOOTH",
"68 118 OFFCURVE",
"200 -13 OFFCURVE",
"361 -13 CURVE SMOOTH"
);
}
);
width = 720;
},
{
anchors = (
{
name = bottom;
position = "{712, 0}";
},
{
name = ogonek;
position = "{1230, 10}";
},
{
name = top;
position = "{712, 1430}";
},
{
name = topright;
position = "{1340, 1430}";
}
);
layerId = "1A84AFAC-8532-492C-A52A-D2ACD869B7F8";
paths = (
{
closed = 1;
nodes = (
"982 -24 OFFCURVE",
"1230 243 OFFCURVE",
"1230 581 CURVE SMOOTH",
"1230 1430 LINE",
"1205 1430 LINE",
"1205 559 LINE SMOOTH",
"1205 236 OFFCURVE",
"921 2 OFFCURVE",
"672 2 CURVE SMOOTH",
"423 2 OFFCURVE",
"179 236 OFFCURVE",
"179 559 CURVE SMOOTH",
"179 1430 LINE",
"119 1430 LINE",
"119 551 LINE SMOOTH",
"119 185 OFFCURVE",
"402 -24 OFFCURVE",
"674 -24 CURVE SMOOTH"
);
}
);
width = 1347;
},
{
anchors = (
{
name = bottom;
position = "{666, 13}";
},
{
name = ogonek;
position = "{924, 33}";
},
{
name = top;
position = "{666, 1443}";
},
{
name = topright;
position = "{1346, 1443}";
}
);
layerId = "16E03120-9D89-4B3A-B1E3-633A6E865927";
paths = (
{
closed = 1;
nodes = (
"1027 -41 OFFCURVE",
"1319 228 OFFCURVE",
"1319 539 CURVE SMOOTH",
"1319 1445 LINE",
"1153 1445 LINE",
"1153 522 LINE SMOOTH",
"1153 214 OFFCURVE",
"901 25 OFFCURVE",
"670 25 CURVE SMOOTH",
"439 25 OFFCURVE",
"353 213 OFFCURVE",
"353 552 CURVE SMOOTH",
"353 1445 LINE",
"17 1445 LINE",
"17 560 LINE SMOOTH",
"17 228 OFFCURVE",
"309 -41 OFFCURVE",
"668 -41 CURVE SMOOTH"
);
}
);
width = 1336;
},
{
anchors = (
{
name = bottom;
position = "{666, 13}";
},
{
name = ogonek;
position = "{924, 33}";
},
{
name = top;
position = "{666, 1443}";
},
{
name = topright;
position = "{1346, 1443}";
}
);
layerId = "D5C24015-3945-4844-A39C-2F638D3E2004";
paths = (
{
closed = 1;
nodes = (
"1027 -41 OFFCURVE",
"1319 228 OFFCURVE",
"1319 539 CURVE SMOOTH",
"1319 1445 LINE",
"1153 1445 LINE",
"1153 522 LINE SMOOTH",
"1153 214 OFFCURVE",
"901 25 OFFCURVE",
"670 25 CURVE SMOOTH",
"439 25 OFFCURVE",
"353 213 OFFCURVE",
"353 552 CURVE SMOOTH",
"353 1445 LINE",
"17 1445 LINE",
"17 560 LINE SMOOTH",
"17 228 OFFCURVE",
"309 -41 OFFCURVE",
"668 -41 CURVE SMOOTH"
);
}
);
width = 1336;
},
{
anchors = (
{
name = bottom;
position = "{712, 0}";
},
{
name = ogonek;
position = "{1230, 10}";
},
{
name = top;
position = "{712, 1430}";
},
{
name = topright;
position = "{1340, 1430}";
}
);
layerId = "A518794E-5143-4302-A915-751D2A609FF0";
paths = (
{
closed = 1;
nodes = (
"982 -24 OFFCURVE",
"1230 243 OFFCURVE",
"1230 581 CURVE SMOOTH",
"1230 1430 LINE",
"1205 1430 LINE",
"1205 559 LINE SMOOTH",
"1205 236 OFFCURVE",
"921 2 OFFCURVE",
"672 2 CURVE SMOOTH",
"423 2 OFFCURVE",
"179 236 OFFCURVE",
"179 559 CURVE SMOOTH",
"179 1430 LINE",
"119 1430 LINE",
"119 551 LINE SMOOTH",
"119 185 OFFCURVE",
"402 -24 OFFCURVE",
"674 -24 CURVE SMOOTH"
);
}
);
width = 1347;
},
{
anchors = (
{
name = bottom;
position = "{666, 13}";
},
{
name = ogonek;
position = "{924, 33}";
},
{
name = top;
position = "{666, 1443}";
},
{
name = topright;
position = "{1346, 1443}";
}
);
layerId = "1D873E37-AF27-4769-9F86-9F16E4B4DD36";
paths = (
{
closed = 1;
nodes = (
"1027 -41 OFFCURVE",
"1319 228 OFFCURVE",
"1319 539 CURVE SMOOTH",
"1319 1445 LINE",
"1153 1445 LINE",
"1153 522 LINE SMOOTH",
"1153 214 OFFCURVE",
"901 25 OFFCURVE",
"670 25 CURVE SMOOTH",
"439 25 OFFCURVE",
"353 213 OFFCURVE",
"353 552 CURVE SMOOTH",
"353 1445 LINE",
"17 1445 LINE",
"17 560 LINE SMOOTH",
"17 228 OFFCURVE",
"309 -41 OFFCURVE",
"668 -41 CURVE SMOOTH"
);
}
);
width = 1336;
},
{
anchors = (
{
name = bottom;
position = "{712, 0}";
},
{
name = ogonek;
position = "{1230, 10}";
},
{
name = top;
position = "{712, 1430}";
},
{
name = topright;
position = "{1340, 1430}";
}
);
layerId = "092756DD-C6BD-4F67-9765-10D57923B42B";
paths = (
{
closed = 1;
nodes = (
"982 -24 OFFCURVE",
"1230 243 OFFCURVE",
"1230 581 CURVE SMOOTH",
"1230 1430 LINE",
"1205 1430 LINE",
"1205 559 LINE SMOOTH",
"1205 236 OFFCURVE",
"921 2 OFFCURVE",
"672 2 CURVE SMOOTH",
"423 2 OFFCURVE",
"179 236 OFFCURVE",
"179 559 CURVE SMOOTH",
"179 1430 LINE",
"119 1430 LINE",
"119 551 LINE SMOOTH",
"119 185 OFFCURVE",
"402 -24 OFFCURVE",
"674 -24 CURVE SMOOTH"
);
}
);
width = 1347;
}
);
leftKerningGroup = U;
note = U;
rightKerningGroup = U;
unicode = 0055;
},
{
glyphname = Udieresis;
lastChange = "2019-11-04 21:30:13 +0000";
layers = (
{
background = {
paths = (
{
closed = 1;
nodes = (
"1444 1300 LINE",
"1444 1334 LINE",
"984 1334 LINE",
"984 1300 LINE",
"1080 1300 LINE SMOOTH",
"1196 1300 OFFCURVE",
"1216 1276 OFFCURVE",
"1216 1136 CURVE SMOOTH",
"1216 448 LINE SMOOTH",
"1216 294 OFFCURVE",
"1198 224 OFFCURVE",
"1140 150 CURVE SMOOTH",
"1064 54 OFFCURVE",
"950 8 OFFCURVE",
"796 8 CURVE SMOOTH",
"652 8 OFFCURVE",
"546 46 OFFCURVE",
"474 120 CURVE SMOOTH",
"418 180 OFFCURVE",
"406 230 OFFCURVE",
"406 406 CURVE SMOOTH",
"406 1300 LINE",
"614 1300 LINE",
"614 1334 LINE",
"14 1334 LINE",
"14 1300 LINE",
"208 1300 LINE",
"208 416 LINE SMOOTH",
"208 234 OFFCURVE",
"218 186 OFFCURVE",
"274 122 CURVE SMOOTH",
"362 20 OFFCURVE",
"512 -28 OFFCURVE",
"746 -28 CURVE SMOOTH",
"916 -28 OFFCURVE",
"1032 4 OFFCURVE",
"1118 76 CURVE SMOOTH",
"1212 156 OFFCURVE",
"1250 264 OFFCURVE",
"1250 454 CURVE SMOOTH",
"1250 1136 LINE SMOOTH",
"1250 1272 OFFCURVE",
"1270 1300 OFFCURVE",
"1362 1300 CURVE SMOOTH"
);
},
{
closed = 1;
nodes = (
"938 1698 OFFCURVE",
"894 1656 OFFCURVE",
"894 1602 CURVE SMOOTH",
"894 1550 OFFCURVE",
"938 1506 OFFCURVE",
"990 1506 CURVE SMOOTH",
"1042 1506 OFFCURVE",
"1086 1550 OFFCURVE",
"1086 1602 CURVE SMOOTH",
"1086 1654 OFFCURVE",
"1042 1698 OFFCURVE",
"992 1698 CURVE SMOOTH"
);
},
{
closed = 1;
nodes = (
"562 1698 OFFCURVE",
"518 1656 OFFCURVE",
"518 1602 CURVE SMOOTH",
"518 1550 OFFCURVE",
"562 1506 OFFCURVE",
"614 1506 CURVE SMOOTH",
"666 1506 OFFCURVE",
"710 1550 OFFCURVE",
"710 1602 CURVE SMOOTH",
"710 1654 OFFCURVE",
"666 1698 OFFCURVE",
"616 1698 CURVE SMOOTH"
);
}
);
};
components = (
{
name = U;
},
{
name = dieresiscomb;
transform = "{1, 0, 0, 1, 310, 529}";
}
);
layerId = "EA94BB3F-1054-4F03-AAB6-69C3B81B3CC3";
width = 1296;
},
{
components = (
{
name = U;
},
{
name = dieresiscomb;
transform = "{1, 0, 0, 1, 487, 516}";
}
);
layerId = "1A84AFAC-8532-492C-A52A-D2ACD869B7F8";
width = 1347;
},
{
components = (
{
name = U;
},
{
name = dieresiscomb;
transform = "{1, 0, 0, 1, 267, 524}";
}
);
layerId = "16E03120-9D89-4B3A-B1E3-633A6E865927";
width = 1336;
},
{
components = (
{
name = U;
},
{
name = dieresiscomb;
transform = "{1, 0, 0, 1, 267, 524}";
}
);
layerId = "D5C24015-3945-4844-A39C-2F638D3E2004";
width = 1336;
},
{
components = (
{
name = U;
},
{
name = dieresiscomb;
transform = "{1, 0, 0, 1, 487, 516}";
}
);
layerId = "A518794E-5143-4302-A915-751D2A609FF0";
width = 1347;
},
{
components = (
{
name = U;
},
{
name = dieresiscomb;
transform = "{1, 0, 0, 1, 267, 524}";
}
);
layerId = "1D873E37-AF27-4769-9F86-9F16E4B4DD36";
width = 1336;
},
{
components = (
{
name = U;
},
{
name = dieresiscomb;
transform = "{1, 0, 0, 1, 487, 516}";
}
);
layerId = "092756DD-C6BD-4F67-9765-10D57923B42B";
width = 1347;
}
);
leftKerningGroup = U;
note = Udieresis;
rightKerningGroup = U;
unicode = 00DC;
},
{
color = 1;
glyphname = V;
lastChange = "2019-11-04 21:30:13 +0000";
layers = (
{
background = {
paths = (
{
closed = 1;
nodes = (
"-22 1430 LINE",
"-22 1394 LINE",
"168 1394 LINE",
"690 -52 LINE",
"1168 1226 LINE SMOOTH",
"1208 1324 OFFCURVE",
"1210 1330 OFFCURVE",
"1232 1358 CURVE",
"1256 1380 OFFCURVE",
"1286 1394 OFFCURVE",
"1328 1394 CURVE SMOOTH",
"1430 1394 LINE",
"1430 1430 LINE",
"960 1430 LINE",
"960 1394 LINE",
"1066 1394 LINE SMOOTH",
"1124 1394 OFFCURVE",
"1156 1368 OFFCURVE",
"1156 1324 CURVE SMOOTH",
"1156 1302 OFFCURVE",
"1140 1244 OFFCURVE",
"1120 1190 CURVE SMOOTH",
"786 298 LINE",
"400 1394 LINE",
"608 1394 LINE",
"608 1430 LINE"
);
}
);
};
layerId = "EA94BB3F-1054-4F03-AAB6-69C3B81B3CC3";
paths = (
{
closed = 1;
nodes = (
"1182 1430 LINE",
"1148 1430 LINE",
"643 182 LINE",
"688 242 LINE",
"214 1430 LINE",
"-24 1430 LINE",
"580 -56 LINE"
);
}
);
width = 1160;
},
{
layerId = "1A84AFAC-8532-492C-A52A-D2ACD869B7F8";
paths = (
{
closed = 1;
nodes = (
"1222 1429 LINE",
"1211 1429 LINE",
"645 0 LINE",
"674 58 LINE",
"122 1430 LINE",
"44 1429 LINE",
"640 -41 LINE"
);
}
);
width = 1267;
},
{
layerId = "16E03120-9D89-4B3A-B1E3-633A6E865927";
paths = (
{
closed = 1;
nodes = (
"1183 1445 LINE",
"1024 1445 LINE",
"542 257 LINE",
"749 415 LINE",
"338 1445 LINE",
"-25 1445 LINE",
"580 -40 LINE"
);
}
);
width = 1160;
},
{
layerId = "D5C24015-3945-4844-A39C-2F638D3E2004";
paths = (
{
closed = 1;
nodes = (
"1183 1445 LINE",
"1024 1445 LINE",
"542 257 LINE",
"749 415 LINE",
"338 1445 LINE",
"-25 1445 LINE",
"580 -40 LINE"
);
}
);
width = 1160;
},
{
layerId = "A518794E-5143-4302-A915-751D2A609FF0";
paths = (
{
closed = 1;
nodes = (
"1222 1429 LINE",
"1211 1429 LINE",
"645 0 LINE",
"674 58 LINE",
"122 1430 LINE",
"44 1429 LINE",
"640 -41 LINE"
);
}
);
width = 1267;
},
{
layerId = "1D873E37-AF27-4769-9F86-9F16E4B4DD36";
paths = (
{
closed = 1;
nodes = (
"1183 1445 LINE",
"1024 1445 LINE",
"542 257 LINE",
"749 415 LINE",
"338 1445 LINE",
"-25 1445 LINE",
"580 -40 LINE"
);
}
);
width = 1160;
},
{
layerId = "092756DD-C6BD-4F67-9765-10D57923B42B";
paths = (
{
closed = 1;
nodes = (
"1222 1429 LINE",
"1211 1429 LINE",
"645 0 LINE",
"674 58 LINE",
"122 1430 LINE",
"44 1429 LINE",
"640 -41 LINE"
);
}
);
width = 1267;
}
);
leftKerningGroup = V;
note = V;
rightKerningGroup = V;
unicode = 0056;
},
